<?xml version="1.0" encoding="utf-8" standalone="no"?>
<!DOCTYPE svg PUBLIC "-//W3C//DTD SVG 1.1//EN"
  "http://www.w3.org/Graphics/SVG/1.1/DTD/svg11.dtd">
<svg xmlns:xlink="http://www.w3.org/1999/xlink" width="1440pt" height="720pt" viewBox="0 0 1440 720" xmlns="http://www.w3.org/2000/svg" version="1.1">
 <metadata>
  <rdf:RDF xmlns:dc="http://purl.org/dc/elements/1.1/" xmlns:cc="http://creativecommons.org/ns#" xmlns:rdf="http://www.w3.org/1999/02/22-rdf-syntax-ns#">
   <cc:Work>
    <dc:type rdf:resource="http://purl.org/dc/dcmitype/StillImage"/>
    <dc:date>2026-04-10T16:30:16.212745</dc:date>
    <dc:format>image/svg+xml</dc:format>
    <dc:creator>
     <cc:Agent>
      <dc:title>Matplotlib v3.10.8, https://matplotlib.org/</dc:title>
     </cc:Agent>
    </dc:creator>
   </cc:Work>
  </rdf:RDF>
 </metadata>
 <defs>
  <style type="text/css">*{stroke-linejoin: round; stroke-linecap: butt}</style>
 </defs>
 <g id="figure_1">
  <g id="patch_1">
   <path d="M 0 720 
L 1440 720 
L 1440 0 
L 0 0 
z
" style="fill: #ffffff"/>
  </g>
  <g id="axes_1">
   <g id="line2d_1">
    <path d="M 738 97.270588 
L 440.4 205.976471 
" clip-path="url(#p6b3f746500)" style="fill: none; stroke: #000000; stroke-width: 1.5; stroke-linecap: square"/>
   </g>
   <g id="line2d_2">
    <path d="M 440.4 205.976471 
L 291.6 314.682353 
" clip-path="url(#p6b3f746500)" style="fill: none; stroke: #000000; stroke-width: 1.5; stroke-linecap: square"/>
   </g>
   <g id="line2d_3">
    <path d="M 291.6 314.682353 
L 217.2 423.388235 
" clip-path="url(#p6b3f746500)" style="fill: none; stroke: #000000; stroke-width: 1.5; stroke-linecap: square"/>
   </g>
   <g id="line2d_4">
    <path d="M 217.2 423.388235 
L 180 532.094118 
" clip-path="url(#p6b3f746500)" style="fill: none; stroke: #000000; stroke-width: 1.5; stroke-linecap: square"/>
   </g>
   <g id="line2d_5">
    <path d="M 180 532.094118 
L 161.4 640.8 
" clip-path="url(#p6b3f746500)" style="fill: none; stroke: #000000; stroke-width: 1.5; stroke-linecap: square"/>
   </g>
   <g id="line2d_6">
    <path d="M 180 532.094118 
L 198.6 640.8 
" clip-path="url(#p6b3f746500)" style="fill: none; stroke: #000000; stroke-width: 1.5; stroke-linecap: square"/>
   </g>
   <g id="line2d_7">
    <path d="M 217.2 423.388235 
L 254.4 532.094118 
" clip-path="url(#p6b3f746500)" style="fill: none; stroke: #000000; stroke-width: 1.5; stroke-linecap: square"/>
   </g>
   <g id="line2d_8">
    <path d="M 254.4 532.094118 
L 235.8 640.8 
" clip-path="url(#p6b3f746500)" style="fill: none; stroke: #000000; stroke-width: 1.5; stroke-linecap: square"/>
   </g>
   <g id="line2d_9">
    <path d="M 254.4 532.094118 
L 273 640.8 
" clip-path="url(#p6b3f746500)" style="fill: none; stroke: #000000; stroke-width: 1.5; stroke-linecap: square"/>
   </g>
   <g id="line2d_10">
    <path d="M 291.6 314.682353 
L 366 423.388235 
" clip-path="url(#p6b3f746500)" style="fill: none; stroke: #000000; stroke-width: 1.5; stroke-linecap: square"/>
   </g>
   <g id="line2d_11">
    <path d="M 366 423.388235 
L 328.8 532.094118 
" clip-path="url(#p6b3f746500)" style="fill: none; stroke: #000000; stroke-width: 1.5; stroke-linecap: square"/>
   </g>
   <g id="line2d_12">
    <path d="M 328.8 532.094118 
L 310.2 640.8 
" clip-path="url(#p6b3f746500)" style="fill: none; stroke: #000000; stroke-width: 1.5; stroke-linecap: square"/>
   </g>
   <g id="line2d_13">
    <path d="M 328.8 532.094118 
L 347.4 640.8 
" clip-path="url(#p6b3f746500)" style="fill: none; stroke: #000000; stroke-width: 1.5; stroke-linecap: square"/>
   </g>
   <g id="line2d_14">
    <path d="M 366 423.388235 
L 403.2 532.094118 
" clip-path="url(#p6b3f746500)" style="fill: none; stroke: #000000; stroke-width: 1.5; stroke-linecap: square"/>
   </g>
   <g id="line2d_15">
    <path d="M 403.2 532.094118 
L 384.6 640.8 
" clip-path="url(#p6b3f746500)" style="fill: none; stroke: #000000; stroke-width: 1.5; stroke-linecap: square"/>
   </g>
   <g id="line2d_16">
    <path d="M 403.2 532.094118 
L 421.8 640.8 
" clip-path="url(#p6b3f746500)" style="fill: none; stroke: #000000; stroke-width: 1.5; stroke-linecap: square"/>
   </g>
   <g id="line2d_17">
    <path d="M 440.4 205.976471 
L 589.2 314.682353 
" clip-path="url(#p6b3f746500)" style="fill: none; stroke: #000000; stroke-width: 1.5; stroke-linecap: square"/>
   </g>
   <g id="line2d_18">
    <path d="M 589.2 314.682353 
L 514.8 423.388235 
" clip-path="url(#p6b3f746500)" style="fill: none; stroke: #000000; stroke-width: 1.5; stroke-linecap: square"/>
   </g>
   <g id="line2d_19">
    <path d="M 514.8 423.388235 
L 477.6 532.094118 
" clip-path="url(#p6b3f746500)" style="fill: none; stroke: #000000; stroke-width: 1.5; stroke-linecap: square"/>
   </g>
   <g id="line2d_20">
    <path d="M 477.6 532.094118 
L 459 640.8 
" clip-path="url(#p6b3f746500)" style="fill: none; stroke: #000000; stroke-width: 1.5; stroke-linecap: square"/>
   </g>
   <g id="line2d_21">
    <path d="M 477.6 532.094118 
L 496.2 640.8 
" clip-path="url(#p6b3f746500)" style="fill: none; stroke: #000000; stroke-width: 1.5; stroke-linecap: square"/>
   </g>
   <g id="line2d_22">
    <path d="M 514.8 423.388235 
L 552 532.094118 
" clip-path="url(#p6b3f746500)" style="fill: none; stroke: #000000; stroke-width: 1.5; stroke-linecap: square"/>
   </g>
   <g id="line2d_23">
    <path d="M 552 532.094118 
L 533.4 640.8 
" clip-path="url(#p6b3f746500)" style="fill: none; stroke: #000000; stroke-width: 1.5; stroke-linecap: square"/>
   </g>
   <g id="line2d_24">
    <path d="M 552 532.094118 
L 570.6 640.8 
" clip-path="url(#p6b3f746500)" style="fill: none; stroke: #000000; stroke-width: 1.5; stroke-linecap: square"/>
   </g>
   <g id="line2d_25">
    <path d="M 589.2 314.682353 
L 663.6 423.388235 
" clip-path="url(#p6b3f746500)" style="fill: none; stroke: #000000; stroke-width: 1.5; stroke-linecap: square"/>
   </g>
   <g id="line2d_26">
    <path d="M 663.6 423.388235 
L 626.4 532.094118 
" clip-path="url(#p6b3f746500)" style="fill: none; stroke: #000000; stroke-width: 1.5; stroke-linecap: square"/>
   </g>
   <g id="line2d_27">
    <path d="M 626.4 532.094118 
L 607.8 640.8 
" clip-path="url(#p6b3f746500)" style="fill: none; stroke: #000000; stroke-width: 1.5; stroke-linecap: square"/>
   </g>
   <g id="line2d_28">
    <path d="M 626.4 532.094118 
L 645 640.8 
" clip-path="url(#p6b3f746500)" style="fill: none; stroke: #000000; stroke-width: 1.5; stroke-linecap: square"/>
   </g>
   <g id="line2d_29">
    <path d="M 663.6 423.388235 
L 700.8 532.094118 
" clip-path="url(#p6b3f746500)" style="fill: none; stroke: #000000; stroke-width: 1.5; stroke-linecap: square"/>
   </g>
   <g id="line2d_30">
    <path d="M 700.8 532.094118 
L 682.2 640.8 
" clip-path="url(#p6b3f746500)" style="fill: none; stroke: #000000; stroke-width: 1.5; stroke-linecap: square"/>
   </g>
   <g id="line2d_31">
    <path d="M 700.8 532.094118 
L 719.4 640.8 
" clip-path="url(#p6b3f746500)" style="fill: none; stroke: #000000; stroke-width: 1.5; stroke-linecap: square"/>
   </g>
   <g id="line2d_32">
    <path d="M 738 97.270588 
L 1035.6 205.976471 
" clip-path="url(#p6b3f746500)" style="fill: none; stroke: #000000; stroke-width: 1.5; stroke-linecap: square"/>
   </g>
   <g id="line2d_33">
    <path d="M 1035.6 205.976471 
L 886.8 314.682353 
" clip-path="url(#p6b3f746500)" style="fill: none; stroke: #000000; stroke-width: 1.5; stroke-linecap: square"/>
   </g>
   <g id="line2d_34">
    <path d="M 886.8 314.682353 
L 812.4 423.388235 
" clip-path="url(#p6b3f746500)" style="fill: none; stroke: #000000; stroke-width: 1.5; stroke-linecap: square"/>
   </g>
   <g id="line2d_35">
    <path d="M 812.4 423.388235 
L 775.2 532.094118 
" clip-path="url(#p6b3f746500)" style="fill: none; stroke: #000000; stroke-width: 1.5; stroke-linecap: square"/>
   </g>
   <g id="line2d_36">
    <path d="M 775.2 532.094118 
L 756.6 640.8 
" clip-path="url(#p6b3f746500)" style="fill: none; stroke: #000000; stroke-width: 1.5; stroke-linecap: square"/>
   </g>
   <g id="line2d_37">
    <path d="M 775.2 532.094118 
L 793.8 640.8 
" clip-path="url(#p6b3f746500)" style="fill: none; stroke: #000000; stroke-width: 1.5; stroke-linecap: square"/>
   </g>
   <g id="line2d_38">
    <path d="M 812.4 423.388235 
L 849.6 532.094118 
" clip-path="url(#p6b3f746500)" style="fill: none; stroke: #000000; stroke-width: 1.5; stroke-linecap: square"/>
   </g>
   <g id="line2d_39">
    <path d="M 849.6 532.094118 
L 831 640.8 
" clip-path="url(#p6b3f746500)" style="fill: none; stroke: #000000; stroke-width: 1.5; stroke-linecap: square"/>
   </g>
   <g id="line2d_40">
    <path d="M 849.6 532.094118 
L 868.2 640.8 
" clip-path="url(#p6b3f746500)" style="fill: none; stroke: #000000; stroke-width: 1.5; stroke-linecap: square"/>
   </g>
   <g id="line2d_41">
    <path d="M 886.8 314.682353 
L 961.2 423.388235 
" clip-path="url(#p6b3f746500)" style="fill: none; stroke: #000000; stroke-width: 1.5; stroke-linecap: square"/>
   </g>
   <g id="line2d_42">
    <path d="M 961.2 423.388235 
L 924 532.094118 
" clip-path="url(#p6b3f746500)" style="fill: none; stroke: #000000; stroke-width: 1.5; stroke-linecap: square"/>
   </g>
   <g id="line2d_43">
    <path d="M 924 532.094118 
L 905.4 640.8 
" clip-path="url(#p6b3f746500)" style="fill: none; stroke: #000000; stroke-width: 1.5; stroke-linecap: square"/>
   </g>
   <g id="line2d_44">
    <path d="M 924 532.094118 
L 942.6 640.8 
" clip-path="url(#p6b3f746500)" style="fill: none; stroke: #000000; stroke-width: 1.5; stroke-linecap: square"/>
   </g>
   <g id="line2d_45">
    <path d="M 961.2 423.388235 
L 998.4 532.094118 
" clip-path="url(#p6b3f746500)" style="fill: none; stroke: #000000; stroke-width: 1.5; stroke-linecap: square"/>
   </g>
   <g id="line2d_46">
    <path d="M 998.4 532.094118 
L 979.8 640.8 
" clip-path="url(#p6b3f746500)" style="fill: none; stroke: #000000; stroke-width: 1.5; stroke-linecap: square"/>
   </g>
   <g id="line2d_47">
    <path d="M 998.4 532.094118 
L 1017 640.8 
" clip-path="url(#p6b3f746500)" style="fill: none; stroke: #000000; stroke-width: 1.5; stroke-linecap: square"/>
   </g>
   <g id="line2d_48">
    <path d="M 1035.6 205.976471 
L 1184.4 314.682353 
" clip-path="url(#p6b3f746500)" style="fill: none; stroke: #000000; stroke-width: 1.5; stroke-linecap: square"/>
   </g>
   <g id="line2d_49">
    <path d="M 1184.4 314.682353 
L 1110 423.388235 
" clip-path="url(#p6b3f746500)" style="fill: none; stroke: #000000; stroke-width: 1.5; stroke-linecap: square"/>
   </g>
   <g id="line2d_50">
    <path d="M 1110 423.388235 
L 1072.8 532.094118 
" clip-path="url(#p6b3f746500)" style="fill: none; stroke: #000000; stroke-width: 1.5; stroke-linecap: square"/>
   </g>
   <g id="line2d_51">
    <path d="M 1072.8 532.094118 
L 1054.2 640.8 
" clip-path="url(#p6b3f746500)" style="fill: none; stroke: #000000; stroke-width: 1.5; stroke-linecap: square"/>
   </g>
   <g id="line2d_52">
    <path d="M 1072.8 532.094118 
L 1091.4 640.8 
" clip-path="url(#p6b3f746500)" style="fill: none; stroke: #000000; stroke-width: 1.5; stroke-linecap: square"/>
   </g>
   <g id="line2d_53">
    <path d="M 1110 423.388235 
L 1147.2 532.094118 
" clip-path="url(#p6b3f746500)" style="fill: none; stroke: #000000; stroke-width: 1.5; stroke-linecap: square"/>
   </g>
   <g id="line2d_54">
    <path d="M 1147.2 532.094118 
L 1128.6 640.8 
" clip-path="url(#p6b3f746500)" style="fill: none; stroke: #000000; stroke-width: 1.5; stroke-linecap: square"/>
   </g>
   <g id="line2d_55">
    <path d="M 1147.2 532.094118 
L 1165.8 640.8 
" clip-path="url(#p6b3f746500)" style="fill: none; stroke: #000000; stroke-width: 1.5; stroke-linecap: square"/>
   </g>
   <g id="line2d_56">
    <path d="M 1184.4 314.682353 
L 1258.8 423.388235 
" clip-path="url(#p6b3f746500)" style="fill: none; stroke: #000000; stroke-width: 1.5; stroke-linecap: square"/>
   </g>
   <g id="line2d_57">
    <path d="M 1258.8 423.388235 
L 1221.6 532.094118 
" clip-path="url(#p6b3f746500)" style="fill: none; stroke: #000000; stroke-width: 1.5; stroke-linecap: square"/>
   </g>
   <g id="line2d_58">
    <path d="M 1221.6 532.094118 
L 1203 640.8 
" clip-path="url(#p6b3f746500)" style="fill: none; stroke: #000000; stroke-width: 1.5; stroke-linecap: square"/>
   </g>
   <g id="line2d_59">
    <path d="M 1221.6 532.094118 
L 1240.2 640.8 
" clip-path="url(#p6b3f746500)" style="fill: none; stroke: #000000; stroke-width: 1.5; stroke-linecap: square"/>
   </g>
   <g id="line2d_60">
    <path d="M 1258.8 423.388235 
L 1296 532.094118 
" clip-path="url(#p6b3f746500)" style="fill: none; stroke: #000000; stroke-width: 1.5; stroke-linecap: square"/>
   </g>
   <g id="line2d_61">
    <path d="M 1296 532.094118 
L 1277.4 640.8 
" clip-path="url(#p6b3f746500)" style="fill: none; stroke: #000000; stroke-width: 1.5; stroke-linecap: square"/>
   </g>
   <g id="line2d_62">
    <path d="M 1296 532.094118 
L 1314.6 640.8 
" clip-path="url(#p6b3f746500)" style="fill: none; stroke: #000000; stroke-width: 1.5; stroke-linecap: square"/>
   </g>
   <g id="text_1">
    <g id="patch_2">
     <path d="M 738 105.109651 
C 740.078944 105.109651 742.073019 104.283678 743.543054 102.813642 
C 745.013089 101.343607 745.839063 99.349532 745.839063 97.270588 
C 745.839063 95.191645 745.013089 93.197569 743.543054 91.727534 
C 742.073019 90.257499 740.078944 89.431526 738 89.431526 
C 735.921056 89.431526 733.926981 90.257499 732.456946 91.727534 
C 730.986911 93.197569 730.160938 95.191645 730.160938 97.270588 
C 730.160938 99.349532 730.986911 101.343607 732.456946 102.813642 
C 733.926981 104.283678 735.921056 105.109651 738 105.109651 
z
" style="fill: #f08080; stroke: #000000; stroke-linejoin: miter"/>
    </g>
    <!-- 1 -->
    <g transform="translate(734.81875 100.029963) scale(0.1 -0.1)">
     <defs>
      <path id="DejaVuSans-31" d="M 794 531 
L 1825 531 
L 1825 4091 
L 703 3866 
L 703 4441 
L 1819 4666 
L 2450 4666 
L 2450 531 
L 3481 531 
L 3481 0 
L 794 0 
L 794 531 
z
" transform="scale(0.015625)"/>
     </defs>
     <use xlink:href="#DejaVuSans-31"/>
    </g>
   </g>
   <g id="text_2">
    <!-- 3 -->
    <g transform="translate(735.455 132.089853) scale(0.08 -0.08)">
     <defs>
      <path id="DejaVuSans-33" d="M 2597 2516 
Q 3050 2419 3304 2112 
Q 3559 1806 3559 1356 
Q 3559 666 3084 287 
Q 2609 -91 1734 -91 
Q 1441 -91 1130 -33 
Q 819 25 488 141 
L 488 750 
Q 750 597 1062 519 
Q 1375 441 1716 441 
Q 2309 441 2620 675 
Q 2931 909 2931 1356 
Q 2931 1769 2642 2001 
Q 2353 2234 1838 2234 
L 1294 2234 
L 1294 2753 
L 1863 2753 
Q 2328 2753 2575 2939 
Q 2822 3125 2822 3475 
Q 2822 3834 2567 4026 
Q 2313 4219 1838 4219 
Q 1578 4219 1281 4162 
Q 984 4106 628 3988 
L 628 4550 
Q 988 4650 1302 4700 
Q 1616 4750 1894 4750 
Q 2613 4750 3031 4423 
Q 3450 4097 3450 3541 
Q 3450 3153 3228 2886 
Q 3006 2619 2597 2516 
z
" transform="scale(0.015625)"/>
     </defs>
     <use xlink:href="#DejaVuSans-33"/>
    </g>
   </g>
   <g id="text_3">
    <g id="patch_3">
     <path d="M 440.4 213.815533 
C 442.478944 213.815533 444.473019 212.98956 445.943054 211.519525 
C 447.413089 210.04949 448.239062 208.055414 448.239062 205.976471 
C 448.239062 203.897527 447.413089 201.903452 445.943054 200.433416 
C 444.473019 198.963381 442.478944 198.137408 440.4 198.137408 
C 438.321056 198.137408 436.326981 198.963381 434.856946 200.433416 
C 433.386911 201.903452 432.560938 203.897527 432.560938 205.976471 
C 432.560938 208.055414 433.386911 210.04949 434.856946 211.519525 
C 436.326981 212.98956 438.321056 213.815533 440.4 213.815533 
z
" style="fill: #add8e6; stroke: #000000; stroke-linejoin: miter"/>
    </g>
    <!-- 2 -->
    <g transform="translate(437.21875 208.735846) scale(0.1 -0.1)">
     <defs>
      <path id="DejaVuSans-32" d="M 1228 531 
L 3431 531 
L 3431 0 
L 469 0 
L 469 531 
Q 828 903 1448 1529 
Q 2069 2156 2228 2338 
Q 2531 2678 2651 2914 
Q 2772 3150 2772 3378 
Q 2772 3750 2511 3984 
Q 2250 4219 1831 4219 
Q 1534 4219 1204 4116 
Q 875 4013 500 3803 
L 500 4441 
Q 881 4594 1212 4672 
Q 1544 4750 1819 4750 
Q 2544 4750 2975 4387 
Q 3406 4025 3406 3419 
Q 3406 3131 3298 2873 
Q 3191 2616 2906 2266 
Q 2828 2175 2409 1742 
Q 1991 1309 1228 531 
z
" transform="scale(0.015625)"/>
     </defs>
     <use xlink:href="#DejaVuSans-32"/>
    </g>
   </g>
   <g id="text_4">
    <!-- 5 -->
    <g transform="translate(437.855 240.795735) scale(0.08 -0.08)">
     <defs>
      <path id="DejaVuSans-35" d="M 691 4666 
L 3169 4666 
L 3169 4134 
L 1269 4134 
L 1269 2991 
Q 1406 3038 1543 3061 
Q 1681 3084 1819 3084 
Q 2600 3084 3056 2656 
Q 3513 2228 3513 1497 
Q 3513 744 3044 326 
Q 2575 -91 1722 -91 
Q 1428 -91 1123 -41 
Q 819 9 494 109 
L 494 744 
Q 775 591 1075 516 
Q 1375 441 1709 441 
Q 2250 441 2565 725 
Q 2881 1009 2881 1497 
Q 2881 1984 2565 2268 
Q 2250 2553 1709 2553 
Q 1456 2553 1204 2497 
Q 953 2441 691 2322 
L 691 4666 
z
" transform="scale(0.015625)"/>
     </defs>
     <use xlink:href="#DejaVuSans-35"/>
    </g>
   </g>
   <g id="text_5">
    <g id="patch_4">
     <path d="M 291.6 322.521415 
C 293.678944 322.521415 295.673019 321.695442 297.143054 320.225407 
C 298.613089 318.755372 299.439062 316.761297 299.439062 314.682353 
C 299.439062 312.603409 298.613089 310.609334 297.143054 309.139299 
C 295.673019 307.669264 293.678944 306.84329 291.6 306.84329 
C 289.521056 306.84329 287.526981 307.669264 286.056946 309.139299 
C 284.586911 310.609334 283.760938 312.603409 283.760938 314.682353 
C 283.760938 316.761297 284.586911 318.755372 286.056946 320.225407 
C 287.526981 321.695442 289.521056 322.521415 291.6 322.521415 
z
" style="fill: #add8e6; stroke: #000000; stroke-linejoin: miter"/>
    </g>
    <!-- 4 -->
    <g transform="translate(288.41875 317.441728) scale(0.1 -0.1)">
     <defs>
      <path id="DejaVuSans-34" d="M 2419 4116 
L 825 1625 
L 2419 1625 
L 2419 4116 
z
M 2253 4666 
L 3047 4666 
L 3047 1625 
L 3713 1625 
L 3713 1100 
L 3047 1100 
L 3047 0 
L 2419 0 
L 2419 1100 
L 313 1100 
L 313 1709 
L 2253 4666 
z
" transform="scale(0.015625)"/>
     </defs>
     <use xlink:href="#DejaVuSans-34"/>
    </g>
   </g>
   <g id="text_6">
    <!-- 9 -->
    <g transform="translate(289.055 349.501618) scale(0.08 -0.08)">
     <defs>
      <path id="DejaVuSans-39" d="M 703 97 
L 703 672 
Q 941 559 1184 500 
Q 1428 441 1663 441 
Q 2288 441 2617 861 
Q 2947 1281 2994 2138 
Q 2813 1869 2534 1725 
Q 2256 1581 1919 1581 
Q 1219 1581 811 2004 
Q 403 2428 403 3163 
Q 403 3881 828 4315 
Q 1253 4750 1959 4750 
Q 2769 4750 3195 4129 
Q 3622 3509 3622 2328 
Q 3622 1225 3098 567 
Q 2575 -91 1691 -91 
Q 1453 -91 1209 -44 
Q 966 3 703 97 
z
M 1959 2075 
Q 2384 2075 2632 2365 
Q 2881 2656 2881 3163 
Q 2881 3666 2632 3958 
Q 2384 4250 1959 4250 
Q 1534 4250 1286 3958 
Q 1038 3666 1038 3163 
Q 1038 2656 1286 2365 
Q 1534 2075 1959 2075 
z
" transform="scale(0.015625)"/>
     </defs>
     <use xlink:href="#DejaVuSans-39"/>
    </g>
   </g>
   <g id="text_7">
    <g id="patch_5">
     <path d="M 217.2 431.227298 
C 219.278944 431.227298 221.273019 430.401325 222.743054 428.93129 
C 224.213089 427.461254 225.039062 425.467179 225.039062 423.388235 
C 225.039062 421.309292 224.213089 419.315216 222.743054 417.845181 
C 221.273019 416.375146 219.278944 415.549173 217.2 415.549173 
C 215.121056 415.549173 213.126981 416.375146 211.656946 417.845181 
C 210.186911 419.315216 209.360937 421.309292 209.360937 423.388235 
C 209.360937 425.467179 210.186911 427.461254 211.656946 428.93129 
C 213.126981 430.401325 215.121056 431.227298 217.2 431.227298 
z
" style="fill: #add8e6; stroke: #000000; stroke-linejoin: miter"/>
    </g>
    <!-- 8 -->
    <g transform="translate(214.01875 426.14761) scale(0.1 -0.1)">
     <defs>
      <path id="DejaVuSans-38" d="M 2034 2216 
Q 1584 2216 1326 1975 
Q 1069 1734 1069 1313 
Q 1069 891 1326 650 
Q 1584 409 2034 409 
Q 2484 409 2743 651 
Q 3003 894 3003 1313 
Q 3003 1734 2745 1975 
Q 2488 2216 2034 2216 
z
M 1403 2484 
Q 997 2584 770 2862 
Q 544 3141 544 3541 
Q 544 4100 942 4425 
Q 1341 4750 2034 4750 
Q 2731 4750 3128 4425 
Q 3525 4100 3525 3541 
Q 3525 3141 3298 2862 
Q 3072 2584 2669 2484 
Q 3125 2378 3379 2068 
Q 3634 1759 3634 1313 
Q 3634 634 3220 271 
Q 2806 -91 2034 -91 
Q 1263 -91 848 271 
Q 434 634 434 1313 
Q 434 1759 690 2068 
Q 947 2378 1403 2484 
z
M 1172 3481 
Q 1172 3119 1398 2916 
Q 1625 2713 2034 2713 
Q 2441 2713 2670 2916 
Q 2900 3119 2900 3481 
Q 2900 3844 2670 4047 
Q 2441 4250 2034 4250 
Q 1625 4250 1398 4047 
Q 1172 3844 1172 3481 
z
" transform="scale(0.015625)"/>
     </defs>
     <use xlink:href="#DejaVuSans-38"/>
    </g>
   </g>
   <g id="text_8">
    <!-- 17 -->
    <g transform="translate(212.11 458.2075) scale(0.08 -0.08)">
     <defs>
      <path id="DejaVuSans-37" d="M 525 4666 
L 3525 4666 
L 3525 4397 
L 1831 0 
L 1172 0 
L 2766 4134 
L 525 4134 
L 525 4666 
z
" transform="scale(0.015625)"/>
     </defs>
     <use xlink:href="#DejaVuSans-31"/>
     <use xlink:href="#DejaVuSans-37" transform="translate(63.623047 0)"/>
    </g>
   </g>
   <g id="text_9">
    <g id="patch_6">
     <path d="M 180 541.456618 
C 182.482964 541.456618 184.864567 540.470126 186.620287 538.714405 
C 188.376008 536.958684 189.3625 534.577082 189.3625 532.094118 
C 189.3625 529.611154 188.376008 527.229551 186.620287 525.47383 
C 184.864567 523.71811 182.482964 522.731618 180 522.731618 
C 177.517036 522.731618 175.135433 523.71811 173.379713 525.47383 
C 171.623992 527.229551 170.6375 529.611154 170.6375 532.094118 
C 170.6375 534.577082 171.623992 536.958684 173.379713 538.714405 
C 175.135433 540.470126 177.517036 541.456618 180 541.456618 
z
" style="fill: #add8e6; stroke: #000000; stroke-linejoin: miter"/>
    </g>
    <!-- 16 -->
    <g transform="translate(173.6375 534.853493) scale(0.1 -0.1)">
     <defs>
      <path id="DejaVuSans-36" d="M 2113 2584 
Q 1688 2584 1439 2293 
Q 1191 2003 1191 1497 
Q 1191 994 1439 701 
Q 1688 409 2113 409 
Q 2538 409 2786 701 
Q 3034 994 3034 1497 
Q 3034 2003 2786 2293 
Q 2538 2584 2113 2584 
z
M 3366 4563 
L 3366 3988 
Q 3128 4100 2886 4159 
Q 2644 4219 2406 4219 
Q 1781 4219 1451 3797 
Q 1122 3375 1075 2522 
Q 1259 2794 1537 2939 
Q 1816 3084 2150 3084 
Q 2853 3084 3261 2657 
Q 3669 2231 3669 1497 
Q 3669 778 3244 343 
Q 2819 -91 2113 -91 
Q 1303 -91 875 529 
Q 447 1150 447 2328 
Q 447 3434 972 4092 
Q 1497 4750 2381 4750 
Q 2619 4750 2861 4703 
Q 3103 4656 3366 4563 
z
" transform="scale(0.015625)"/>
     </defs>
     <use xlink:href="#DejaVuSans-31"/>
     <use xlink:href="#DejaVuSans-36" transform="translate(63.623047 0)"/>
    </g>
   </g>
   <g id="text_10">
    <!-- 33 -->
    <g transform="translate(174.91 566.913382) scale(0.08 -0.08)">
     <use xlink:href="#DejaVuSans-33"/>
     <use xlink:href="#DejaVuSans-33" transform="translate(63.623047 0)"/>
    </g>
   </g>
   <g id="text_11">
    <g id="patch_7">
     <path d="M 161.4 650.1625 
C 163.882964 650.1625 166.264567 649.176008 168.020287 647.420287 
C 169.776008 645.664567 170.7625 643.282964 170.7625 640.8 
C 170.7625 638.317036 169.776008 635.935433 168.020287 634.179713 
C 166.264567 632.423992 163.882964 631.4375 161.4 631.4375 
C 158.917036 631.4375 156.535433 632.423992 154.779713 634.179713 
C 153.023992 635.935433 152.0375 638.317036 152.0375 640.8 
C 152.0375 643.282964 153.023992 645.664567 154.779713 647.420287 
C 156.535433 649.176008 158.917036 650.1625 161.4 650.1625 
z
" style="fill: #add8e6; stroke: #000000; stroke-linejoin: miter"/>
    </g>
    <!-- 32 -->
    <g transform="translate(155.0375 643.559375) scale(0.1 -0.1)">
     <use xlink:href="#DejaVuSans-33"/>
     <use xlink:href="#DejaVuSans-32" transform="translate(63.623047 0)"/>
    </g>
   </g>
   <g id="text_12">
    <!-- 1 -->
    <g transform="translate(158.855 675.619265) scale(0.08 -0.08)">
     <use xlink:href="#DejaVuSans-31"/>
    </g>
   </g>
   <g id="text_13">
    <g id="patch_8">
     <path d="M 198.6 650.1625 
C 201.082964 650.1625 203.464567 649.176008 205.220287 647.420287 
C 206.976008 645.664567 207.9625 643.282964 207.9625 640.8 
C 207.9625 638.317036 206.976008 635.935433 205.220287 634.179713 
C 203.464567 632.423992 201.082964 631.4375 198.6 631.4375 
C 196.117036 631.4375 193.735433 632.423992 191.979713 634.179713 
C 190.223992 635.935433 189.2375 638.317036 189.2375 640.8 
C 189.2375 643.282964 190.223992 645.664567 191.979713 647.420287 
C 193.735433 649.176008 196.117036 650.1625 198.6 650.1625 
z
" style="fill: #add8e6; stroke: #000000; stroke-linejoin: miter"/>
    </g>
    <!-- 33 -->
    <g transform="translate(192.2375 643.559375) scale(0.1 -0.1)">
     <use xlink:href="#DejaVuSans-33"/>
     <use xlink:href="#DejaVuSans-33" transform="translate(63.623047 0)"/>
    </g>
   </g>
   <g id="text_14">
    <!-- 32 -->
    <g transform="translate(193.51 675.619265) scale(0.08 -0.08)">
     <use xlink:href="#DejaVuSans-33"/>
     <use xlink:href="#DejaVuSans-32" transform="translate(63.623047 0)"/>
    </g>
   </g>
   <g id="text_15">
    <g id="patch_9">
     <path d="M 254.4 541.456618 
C 256.882964 541.456618 259.264567 540.470126 261.020287 538.714405 
C 262.776008 536.958684 263.7625 534.577082 263.7625 532.094118 
C 263.7625 529.611154 262.776008 527.229551 261.020287 525.47383 
C 259.264567 523.71811 256.882964 522.731618 254.4 522.731618 
C 251.917036 522.731618 249.535433 523.71811 247.779713 525.47383 
C 246.023992 527.229551 245.0375 529.611154 245.0375 532.094118 
C 245.0375 534.577082 246.023992 536.958684 247.779713 538.714405 
C 249.535433 540.470126 251.917036 541.456618 254.4 541.456618 
z
" style="fill: #add8e6; stroke: #000000; stroke-linejoin: miter"/>
    </g>
    <!-- 17 -->
    <g transform="translate(248.0375 534.853493) scale(0.1 -0.1)">
     <use xlink:href="#DejaVuSans-31"/>
     <use xlink:href="#DejaVuSans-37" transform="translate(63.623047 0)"/>
    </g>
   </g>
   <g id="text_16">
    <!-- 35 -->
    <g transform="translate(249.31 566.913382) scale(0.08 -0.08)">
     <use xlink:href="#DejaVuSans-33"/>
     <use xlink:href="#DejaVuSans-35" transform="translate(63.623047 0)"/>
    </g>
   </g>
   <g id="text_17">
    <g id="patch_10">
     <path d="M 235.8 650.1625 
C 238.282964 650.1625 240.664567 649.176008 242.420287 647.420287 
C 244.176008 645.664567 245.1625 643.282964 245.1625 640.8 
C 245.1625 638.317036 244.176008 635.935433 242.420287 634.179713 
C 240.664567 632.423992 238.282964 631.4375 235.8 631.4375 
C 233.317036 631.4375 230.935433 632.423992 229.179713 634.179713 
C 227.423992 635.935433 226.4375 638.317036 226.4375 640.8 
C 226.4375 643.282964 227.423992 645.664567 229.179713 647.420287 
C 230.935433 649.176008 233.317036 650.1625 235.8 650.1625 
z
" style="fill: #add8e6; stroke: #000000; stroke-linejoin: miter"/>
    </g>
    <!-- 34 -->
    <g transform="translate(229.4375 643.559375) scale(0.1 -0.1)">
     <use xlink:href="#DejaVuSans-33"/>
     <use xlink:href="#DejaVuSans-34" transform="translate(63.623047 0)"/>
    </g>
   </g>
   <g id="text_18">
    <!-- 16 -->
    <g transform="translate(230.71 675.619265) scale(0.08 -0.08)">
     <use xlink:href="#DejaVuSans-31"/>
     <use xlink:href="#DejaVuSans-36" transform="translate(63.623047 0)"/>
    </g>
   </g>
   <g id="text_19">
    <g id="patch_11">
     <path d="M 273 650.1625 
C 275.482964 650.1625 277.864567 649.176008 279.620287 647.420287 
C 281.376008 645.664567 282.3625 643.282964 282.3625 640.8 
C 282.3625 638.317036 281.376008 635.935433 279.620287 634.179713 
C 277.864567 632.423992 275.482964 631.4375 273 631.4375 
C 270.517036 631.4375 268.135433 632.423992 266.379713 634.179713 
C 264.623992 635.935433 263.6375 638.317036 263.6375 640.8 
C 263.6375 643.282964 264.623992 645.664567 266.379713 647.420287 
C 268.135433 649.176008 270.517036 650.1625 273 650.1625 
z
" style="fill: #add8e6; stroke: #000000; stroke-linejoin: miter"/>
    </g>
    <!-- 35 -->
    <g transform="translate(266.6375 643.559375) scale(0.1 -0.1)">
     <use xlink:href="#DejaVuSans-33"/>
     <use xlink:href="#DejaVuSans-35" transform="translate(63.623047 0)"/>
    </g>
   </g>
   <g id="text_20">
    <!-- 34 -->
    <g transform="translate(267.91 675.619265) scale(0.08 -0.08)">
     <use xlink:href="#DejaVuSans-33"/>
     <use xlink:href="#DejaVuSans-34" transform="translate(63.623047 0)"/>
    </g>
   </g>
   <g id="text_21">
    <g id="patch_12">
     <path d="M 366 431.227298 
C 368.078944 431.227298 370.073019 430.401325 371.543054 428.93129 
C 373.013089 427.461254 373.839063 425.467179 373.839063 423.388235 
C 373.839063 421.309292 373.013089 419.315216 371.543054 417.845181 
C 370.073019 416.375146 368.078944 415.549173 366 415.549173 
C 363.921056 415.549173 361.926981 416.375146 360.456946 417.845181 
C 358.986911 419.315216 358.160938 421.309292 358.160938 423.388235 
C 358.160938 425.467179 358.986911 427.461254 360.456946 428.93129 
C 361.926981 430.401325 363.921056 431.227298 366 431.227298 
z
" style="fill: #add8e6; stroke: #000000; stroke-linejoin: miter"/>
    </g>
    <!-- 9 -->
    <g transform="translate(362.81875 426.14761) scale(0.1 -0.1)">
     <use xlink:href="#DejaVuSans-39"/>
    </g>
   </g>
   <g id="text_22">
    <!-- 19 -->
    <g transform="translate(360.91 458.2075) scale(0.08 -0.08)">
     <use xlink:href="#DejaVuSans-31"/>
     <use xlink:href="#DejaVuSans-39" transform="translate(63.623047 0)"/>
    </g>
   </g>
   <g id="text_23">
    <g id="patch_13">
     <path d="M 328.8 541.456618 
C 331.282964 541.456618 333.664567 540.470126 335.420287 538.714405 
C 337.176008 536.958684 338.1625 534.577082 338.1625 532.094118 
C 338.1625 529.611154 337.176008 527.229551 335.420287 525.47383 
C 333.664567 523.71811 331.282964 522.731618 328.8 522.731618 
C 326.317036 522.731618 323.935433 523.71811 322.179713 525.47383 
C 320.423992 527.229551 319.4375 529.611154 319.4375 532.094118 
C 319.4375 534.577082 320.423992 536.958684 322.179713 538.714405 
C 323.935433 540.470126 326.317036 541.456618 328.8 541.456618 
z
" style="fill: #add8e6; stroke: #000000; stroke-linejoin: miter"/>
    </g>
    <!-- 18 -->
    <g transform="translate(322.4375 534.853493) scale(0.1 -0.1)">
     <use xlink:href="#DejaVuSans-31"/>
     <use xlink:href="#DejaVuSans-38" transform="translate(63.623047 0)"/>
    </g>
   </g>
   <g id="text_24">
    <!-- 37 -->
    <g transform="translate(323.71 566.913382) scale(0.08 -0.08)">
     <use xlink:href="#DejaVuSans-33"/>
     <use xlink:href="#DejaVuSans-37" transform="translate(63.623047 0)"/>
    </g>
   </g>
   <g id="text_25">
    <g id="patch_14">
     <path d="M 310.2 650.1625 
C 312.682964 650.1625 315.064567 649.176008 316.820287 647.420287 
C 318.576008 645.664567 319.5625 643.282964 319.5625 640.8 
C 319.5625 638.317036 318.576008 635.935433 316.820287 634.179713 
C 315.064567 632.423992 312.682964 631.4375 310.2 631.4375 
C 307.717036 631.4375 305.335433 632.423992 303.579713 634.179713 
C 301.823992 635.935433 300.8375 638.317036 300.8375 640.8 
C 300.8375 643.282964 301.823992 645.664567 303.579713 647.420287 
C 305.335433 649.176008 307.717036 650.1625 310.2 650.1625 
z
" style="fill: #add8e6; stroke: #000000; stroke-linejoin: miter"/>
    </g>
    <!-- 36 -->
    <g transform="translate(303.8375 643.559375) scale(0.1 -0.1)">
     <use xlink:href="#DejaVuSans-33"/>
     <use xlink:href="#DejaVuSans-36" transform="translate(63.623047 0)"/>
    </g>
   </g>
   <g id="text_26">
    <!-- 8 -->
    <g transform="translate(307.655 675.619265) scale(0.08 -0.08)">
     <use xlink:href="#DejaVuSans-38"/>
    </g>
   </g>
   <g id="text_27">
    <g id="patch_15">
     <path d="M 347.4 650.1625 
C 349.882964 650.1625 352.264567 649.176008 354.020287 647.420287 
C 355.776008 645.664567 356.7625 643.282964 356.7625 640.8 
C 356.7625 638.317036 355.776008 635.935433 354.020287 634.179713 
C 352.264567 632.423992 349.882964 631.4375 347.4 631.4375 
C 344.917036 631.4375 342.535433 632.423992 340.779713 634.179713 
C 339.023992 635.935433 338.0375 638.317036 338.0375 640.8 
C 338.0375 643.282964 339.023992 645.664567 340.779713 647.420287 
C 342.535433 649.176008 344.917036 650.1625 347.4 650.1625 
z
" style="fill: #add8e6; stroke: #000000; stroke-linejoin: miter"/>
    </g>
    <!-- 37 -->
    <g transform="translate(341.0375 643.559375) scale(0.1 -0.1)">
     <use xlink:href="#DejaVuSans-33"/>
     <use xlink:href="#DejaVuSans-37" transform="translate(63.623047 0)"/>
    </g>
   </g>
   <g id="text_28">
    <!-- 36 -->
    <g transform="translate(342.31 675.619265) scale(0.08 -0.08)">
     <use xlink:href="#DejaVuSans-33"/>
     <use xlink:href="#DejaVuSans-36" transform="translate(63.623047 0)"/>
    </g>
   </g>
   <g id="text_29">
    <g id="patch_16">
     <path d="M 403.2 541.456618 
C 405.682964 541.456618 408.064567 540.470126 409.820287 538.714405 
C 411.576008 536.958684 412.5625 534.577082 412.5625 532.094118 
C 412.5625 529.611154 411.576008 527.229551 409.820287 525.47383 
C 408.064567 523.71811 405.682964 522.731618 403.2 522.731618 
C 400.717036 522.731618 398.335433 523.71811 396.579713 525.47383 
C 394.823992 527.229551 393.8375 529.611154 393.8375 532.094118 
C 393.8375 534.577082 394.823992 536.958684 396.579713 538.714405 
C 398.335433 540.470126 400.717036 541.456618 403.2 541.456618 
z
" style="fill: #add8e6; stroke: #000000; stroke-linejoin: miter"/>
    </g>
    <!-- 19 -->
    <g transform="translate(396.8375 534.853493) scale(0.1 -0.1)">
     <use xlink:href="#DejaVuSans-31"/>
     <use xlink:href="#DejaVuSans-39" transform="translate(63.623047 0)"/>
    </g>
   </g>
   <g id="text_30">
    <!-- 39 -->
    <g transform="translate(398.11 566.913382) scale(0.08 -0.08)">
     <use xlink:href="#DejaVuSans-33"/>
     <use xlink:href="#DejaVuSans-39" transform="translate(63.623047 0)"/>
    </g>
   </g>
   <g id="text_31">
    <g id="patch_17">
     <path d="M 384.6 650.1625 
C 387.082964 650.1625 389.464567 649.176008 391.220287 647.420287 
C 392.976008 645.664567 393.9625 643.282964 393.9625 640.8 
C 393.9625 638.317036 392.976008 635.935433 391.220287 634.179713 
C 389.464567 632.423992 387.082964 631.4375 384.6 631.4375 
C 382.117036 631.4375 379.735433 632.423992 377.979713 634.179713 
C 376.223992 635.935433 375.2375 638.317036 375.2375 640.8 
C 375.2375 643.282964 376.223992 645.664567 377.979713 647.420287 
C 379.735433 649.176008 382.117036 650.1625 384.6 650.1625 
z
" style="fill: #add8e6; stroke: #000000; stroke-linejoin: miter"/>
    </g>
    <!-- 38 -->
    <g transform="translate(378.2375 643.559375) scale(0.1 -0.1)">
     <use xlink:href="#DejaVuSans-33"/>
     <use xlink:href="#DejaVuSans-38" transform="translate(63.623047 0)"/>
    </g>
   </g>
   <g id="text_32">
    <!-- 18 -->
    <g transform="translate(379.51 675.619265) scale(0.08 -0.08)">
     <use xlink:href="#DejaVuSans-31"/>
     <use xlink:href="#DejaVuSans-38" transform="translate(63.623047 0)"/>
    </g>
   </g>
   <g id="text_33">
    <g id="patch_18">
     <path d="M 421.8 650.1625 
C 424.282964 650.1625 426.664567 649.176008 428.420287 647.420287 
C 430.176008 645.664567 431.1625 643.282964 431.1625 640.8 
C 431.1625 638.317036 430.176008 635.935433 428.420287 634.179713 
C 426.664567 632.423992 424.282964 631.4375 421.8 631.4375 
C 419.317036 631.4375 416.935433 632.423992 415.179713 634.179713 
C 413.423992 635.935433 412.4375 638.317036 412.4375 640.8 
C 412.4375 643.282964 413.423992 645.664567 415.179713 647.420287 
C 416.935433 649.176008 419.317036 650.1625 421.8 650.1625 
z
" style="fill: #add8e6; stroke: #000000; stroke-linejoin: miter"/>
    </g>
    <!-- 39 -->
    <g transform="translate(415.4375 643.559375) scale(0.1 -0.1)">
     <use xlink:href="#DejaVuSans-33"/>
     <use xlink:href="#DejaVuSans-39" transform="translate(63.623047 0)"/>
    </g>
   </g>
   <g id="text_34">
    <!-- 38 -->
    <g transform="translate(416.71 675.619265) scale(0.08 -0.08)">
     <use xlink:href="#DejaVuSans-33"/>
     <use xlink:href="#DejaVuSans-38" transform="translate(63.623047 0)"/>
    </g>
   </g>
   <g id="text_35">
    <g id="patch_19">
     <path d="M 589.2 322.521415 
C 591.278944 322.521415 593.273019 321.695442 594.743054 320.225407 
C 596.213089 318.755372 597.039063 316.761297 597.039063 314.682353 
C 597.039063 312.603409 596.213089 310.609334 594.743054 309.139299 
C 593.273019 307.669264 591.278944 306.84329 589.2 306.84329 
C 587.121056 306.84329 585.126981 307.669264 583.656946 309.139299 
C 582.186911 310.609334 581.360938 312.603409 581.360938 314.682353 
C 581.360938 316.761297 582.186911 318.755372 583.656946 320.225407 
C 585.126981 321.695442 587.121056 322.521415 589.2 322.521415 
z
" style="fill: #add8e6; stroke: #000000; stroke-linejoin: miter"/>
    </g>
    <!-- 5 -->
    <g transform="translate(586.01875 317.441728) scale(0.1 -0.1)">
     <use xlink:href="#DejaVuSans-35"/>
    </g>
   </g>
   <g id="text_36">
    <!-- 11 -->
    <g transform="translate(584.11 349.501618) scale(0.08 -0.08)">
     <use xlink:href="#DejaVuSans-31"/>
     <use xlink:href="#DejaVuSans-31" transform="translate(63.623047 0)"/>
    </g>
   </g>
   <g id="text_37">
    <g id="patch_20">
     <path d="M 514.8 432.750735 
C 517.282964 432.750735 519.664567 431.764243 521.420287 430.008523 
C 523.176008 428.252802 524.1625 425.871199 524.1625 423.388235 
C 524.1625 420.905271 523.176008 418.523669 521.420287 416.767948 
C 519.664567 415.012227 517.282964 414.025735 514.8 414.025735 
C 512.317036 414.025735 509.935433 415.012227 508.179713 416.767948 
C 506.423992 418.523669 505.4375 420.905271 505.4375 423.388235 
C 505.4375 425.871199 506.423992 428.252802 508.179713 430.008523 
C 509.935433 431.764243 512.317036 432.750735 514.8 432.750735 
z
" style="fill: #add8e6; stroke: #000000; stroke-linejoin: miter"/>
    </g>
    <!-- 10 -->
    <g transform="translate(508.4375 426.14761) scale(0.1 -0.1)">
     <defs>
      <path id="DejaVuSans-30" d="M 2034 4250 
Q 1547 4250 1301 3770 
Q 1056 3291 1056 2328 
Q 1056 1369 1301 889 
Q 1547 409 2034 409 
Q 2525 409 2770 889 
Q 3016 1369 3016 2328 
Q 3016 3291 2770 3770 
Q 2525 4250 2034 4250 
z
M 2034 4750 
Q 2819 4750 3233 4129 
Q 3647 3509 3647 2328 
Q 3647 1150 3233 529 
Q 2819 -91 2034 -91 
Q 1250 -91 836 529 
Q 422 1150 422 2328 
Q 422 3509 836 4129 
Q 1250 4750 2034 4750 
z
" transform="scale(0.015625)"/>
     </defs>
     <use xlink:href="#DejaVuSans-31"/>
     <use xlink:href="#DejaVuSans-30" transform="translate(63.623047 0)"/>
    </g>
   </g>
   <g id="text_38">
    <!-- 21 -->
    <g transform="translate(509.71 458.2075) scale(0.08 -0.08)">
     <use xlink:href="#DejaVuSans-32"/>
     <use xlink:href="#DejaVuSans-31" transform="translate(63.623047 0)"/>
    </g>
   </g>
   <g id="text_39">
    <g id="patch_21">
     <path d="M 477.6 541.456618 
C 480.082964 541.456618 482.464567 540.470126 484.220287 538.714405 
C 485.976008 536.958684 486.9625 534.577082 486.9625 532.094118 
C 486.9625 529.611154 485.976008 527.229551 484.220287 525.47383 
C 482.464567 523.71811 480.082964 522.731618 477.6 522.731618 
C 475.117036 522.731618 472.735433 523.71811 470.979713 525.47383 
C 469.223992 527.229551 468.2375 529.611154 468.2375 532.094118 
C 468.2375 534.577082 469.223992 536.958684 470.979713 538.714405 
C 472.735433 540.470126 475.117036 541.456618 477.6 541.456618 
z
" style="fill: #add8e6; stroke: #000000; stroke-linejoin: miter"/>
    </g>
    <!-- 20 -->
    <g transform="translate(471.2375 534.853493) scale(0.1 -0.1)">
     <use xlink:href="#DejaVuSans-32"/>
     <use xlink:href="#DejaVuSans-30" transform="translate(63.623047 0)"/>
    </g>
   </g>
   <g id="text_40">
    <!-- 41 -->
    <g transform="translate(472.51 566.913382) scale(0.08 -0.08)">
     <use xlink:href="#DejaVuSans-34"/>
     <use xlink:href="#DejaVuSans-31" transform="translate(63.623047 0)"/>
    </g>
   </g>
   <g id="text_41">
    <g id="patch_22">
     <path d="M 459 650.1625 
C 461.482964 650.1625 463.864567 649.176008 465.620287 647.420287 
C 467.376008 645.664567 468.3625 643.282964 468.3625 640.8 
C 468.3625 638.317036 467.376008 635.935433 465.620287 634.179713 
C 463.864567 632.423992 461.482964 631.4375 459 631.4375 
C 456.517036 631.4375 454.135433 632.423992 452.379713 634.179713 
C 450.623992 635.935433 449.6375 638.317036 449.6375 640.8 
C 449.6375 643.282964 450.623992 645.664567 452.379713 647.420287 
C 454.135433 649.176008 456.517036 650.1625 459 650.1625 
z
" style="fill: #add8e6; stroke: #000000; stroke-linejoin: miter"/>
    </g>
    <!-- 40 -->
    <g transform="translate(452.6375 643.559375) scale(0.1 -0.1)">
     <use xlink:href="#DejaVuSans-34"/>
     <use xlink:href="#DejaVuSans-30" transform="translate(63.623047 0)"/>
    </g>
   </g>
   <g id="text_42">
    <!-- 4 -->
    <g transform="translate(456.455 675.619265) scale(0.08 -0.08)">
     <use xlink:href="#DejaVuSans-34"/>
    </g>
   </g>
   <g id="text_43">
    <g id="patch_23">
     <path d="M 496.2 650.1625 
C 498.682964 650.1625 501.064567 649.176008 502.820287 647.420287 
C 504.576008 645.664567 505.5625 643.282964 505.5625 640.8 
C 505.5625 638.317036 504.576008 635.935433 502.820287 634.179713 
C 501.064567 632.423992 498.682964 631.4375 496.2 631.4375 
C 493.717036 631.4375 491.335433 632.423992 489.579713 634.179713 
C 487.823992 635.935433 486.8375 638.317036 486.8375 640.8 
C 486.8375 643.282964 487.823992 645.664567 489.579713 647.420287 
C 491.335433 649.176008 493.717036 650.1625 496.2 650.1625 
z
" style="fill: #add8e6; stroke: #000000; stroke-linejoin: miter"/>
    </g>
    <!-- 41 -->
    <g transform="translate(489.8375 643.559375) scale(0.1 -0.1)">
     <use xlink:href="#DejaVuSans-34"/>
     <use xlink:href="#DejaVuSans-31" transform="translate(63.623047 0)"/>
    </g>
   </g>
   <g id="text_44">
    <!-- 40 -->
    <g transform="translate(491.11 675.619265) scale(0.08 -0.08)">
     <use xlink:href="#DejaVuSans-34"/>
     <use xlink:href="#DejaVuSans-30" transform="translate(63.623047 0)"/>
    </g>
   </g>
   <g id="text_45">
    <g id="patch_24">
     <path d="M 552 541.456618 
C 554.482964 541.456618 556.864567 540.470126 558.620287 538.714405 
C 560.376008 536.958684 561.3625 534.577082 561.3625 532.094118 
C 561.3625 529.611154 560.376008 527.229551 558.620287 525.47383 
C 556.864567 523.71811 554.482964 522.731618 552 522.731618 
C 549.517036 522.731618 547.135433 523.71811 545.379713 525.47383 
C 543.623992 527.229551 542.6375 529.611154 542.6375 532.094118 
C 542.6375 534.577082 543.623992 536.958684 545.379713 538.714405 
C 547.135433 540.470126 549.517036 541.456618 552 541.456618 
z
" style="fill: #add8e6; stroke: #000000; stroke-linejoin: miter"/>
    </g>
    <!-- 21 -->
    <g transform="translate(545.6375 534.853493) scale(0.1 -0.1)">
     <use xlink:href="#DejaVuSans-32"/>
     <use xlink:href="#DejaVuSans-31" transform="translate(63.623047 0)"/>
    </g>
   </g>
   <g id="text_46">
    <!-- 43 -->
    <g transform="translate(546.91 566.913382) scale(0.08 -0.08)">
     <use xlink:href="#DejaVuSans-34"/>
     <use xlink:href="#DejaVuSans-33" transform="translate(63.623047 0)"/>
    </g>
   </g>
   <g id="text_47">
    <g id="patch_25">
     <path d="M 533.4 650.1625 
C 535.882964 650.1625 538.264567 649.176008 540.020287 647.420287 
C 541.776008 645.664567 542.7625 643.282964 542.7625 640.8 
C 542.7625 638.317036 541.776008 635.935433 540.020287 634.179713 
C 538.264567 632.423992 535.882964 631.4375 533.4 631.4375 
C 530.917036 631.4375 528.535433 632.423992 526.779713 634.179713 
C 525.023992 635.935433 524.0375 638.317036 524.0375 640.8 
C 524.0375 643.282964 525.023992 645.664567 526.779713 647.420287 
C 528.535433 649.176008 530.917036 650.1625 533.4 650.1625 
z
" style="fill: #add8e6; stroke: #000000; stroke-linejoin: miter"/>
    </g>
    <!-- 42 -->
    <g transform="translate(527.0375 643.559375) scale(0.1 -0.1)">
     <use xlink:href="#DejaVuSans-34"/>
     <use xlink:href="#DejaVuSans-32" transform="translate(63.623047 0)"/>
    </g>
   </g>
   <g id="text_48">
    <!-- 20 -->
    <g transform="translate(528.31 675.619265) scale(0.08 -0.08)">
     <use xlink:href="#DejaVuSans-32"/>
     <use xlink:href="#DejaVuSans-30" transform="translate(63.623047 0)"/>
    </g>
   </g>
   <g id="text_49">
    <g id="patch_26">
     <path d="M 570.6 650.1625 
C 573.082964 650.1625 575.464567 649.176008 577.220287 647.420287 
C 578.976008 645.664567 579.9625 643.282964 579.9625 640.8 
C 579.9625 638.317036 578.976008 635.935433 577.220287 634.179713 
C 575.464567 632.423992 573.082964 631.4375 570.6 631.4375 
C 568.117036 631.4375 565.735433 632.423992 563.979713 634.179713 
C 562.223992 635.935433 561.2375 638.317036 561.2375 640.8 
C 561.2375 643.282964 562.223992 645.664567 563.979713 647.420287 
C 565.735433 649.176008 568.117036 650.1625 570.6 650.1625 
z
" style="fill: #add8e6; stroke: #000000; stroke-linejoin: miter"/>
    </g>
    <!-- 43 -->
    <g transform="translate(564.2375 643.559375) scale(0.1 -0.1)">
     <use xlink:href="#DejaVuSans-34"/>
     <use xlink:href="#DejaVuSans-33" transform="translate(63.623047 0)"/>
    </g>
   </g>
   <g id="text_50">
    <!-- 42 -->
    <g transform="translate(565.51 675.619265) scale(0.08 -0.08)">
     <use xlink:href="#DejaVuSans-34"/>
     <use xlink:href="#DejaVuSans-32" transform="translate(63.623047 0)"/>
    </g>
   </g>
   <g id="text_51">
    <g id="patch_27">
     <path d="M 663.6 432.750735 
C 666.082964 432.750735 668.464567 431.764243 670.220287 430.008523 
C 671.976008 428.252802 672.9625 425.871199 672.9625 423.388235 
C 672.9625 420.905271 671.976008 418.523669 670.220287 416.767948 
C 668.464567 415.012227 666.082964 414.025735 663.6 414.025735 
C 661.117036 414.025735 658.735433 415.012227 656.979713 416.767948 
C 655.223992 418.523669 654.2375 420.905271 654.2375 423.388235 
C 654.2375 425.871199 655.223992 428.252802 656.979713 430.008523 
C 658.735433 431.764243 661.117036 432.750735 663.6 432.750735 
z
" style="fill: #add8e6; stroke: #000000; stroke-linejoin: miter"/>
    </g>
    <!-- 11 -->
    <g transform="translate(657.2375 426.14761) scale(0.1 -0.1)">
     <use xlink:href="#DejaVuSans-31"/>
     <use xlink:href="#DejaVuSans-31" transform="translate(63.623047 0)"/>
    </g>
   </g>
   <g id="text_52">
    <!-- 23 -->
    <g transform="translate(658.51 458.2075) scale(0.08 -0.08)">
     <use xlink:href="#DejaVuSans-32"/>
     <use xlink:href="#DejaVuSans-33" transform="translate(63.623047 0)"/>
    </g>
   </g>
   <g id="text_53">
    <g id="patch_28">
     <path d="M 626.4 541.456618 
C 628.882964 541.456618 631.264567 540.470126 633.020287 538.714405 
C 634.776008 536.958684 635.7625 534.577082 635.7625 532.094118 
C 635.7625 529.611154 634.776008 527.229551 633.020287 525.47383 
C 631.264567 523.71811 628.882964 522.731618 626.4 522.731618 
C 623.917036 522.731618 621.535433 523.71811 619.779713 525.47383 
C 618.023992 527.229551 617.0375 529.611154 617.0375 532.094118 
C 617.0375 534.577082 618.023992 536.958684 619.779713 538.714405 
C 621.535433 540.470126 623.917036 541.456618 626.4 541.456618 
z
" style="fill: #add8e6; stroke: #000000; stroke-linejoin: miter"/>
    </g>
    <!-- 22 -->
    <g transform="translate(620.0375 534.853493) scale(0.1 -0.1)">
     <use xlink:href="#DejaVuSans-32"/>
     <use xlink:href="#DejaVuSans-32" transform="translate(63.623047 0)"/>
    </g>
   </g>
   <g id="text_54">
    <!-- 45 -->
    <g transform="translate(621.31 566.913382) scale(0.08 -0.08)">
     <use xlink:href="#DejaVuSans-34"/>
     <use xlink:href="#DejaVuSans-35" transform="translate(63.623047 0)"/>
    </g>
   </g>
   <g id="text_55">
    <g id="patch_29">
     <path d="M 607.8 650.1625 
C 610.282964 650.1625 612.664567 649.176008 614.420287 647.420287 
C 616.176008 645.664567 617.1625 643.282964 617.1625 640.8 
C 617.1625 638.317036 616.176008 635.935433 614.420287 634.179713 
C 612.664567 632.423992 610.282964 631.4375 607.8 631.4375 
C 605.317036 631.4375 602.935433 632.423992 601.179713 634.179713 
C 599.423992 635.935433 598.4375 638.317036 598.4375 640.8 
C 598.4375 643.282964 599.423992 645.664567 601.179713 647.420287 
C 602.935433 649.176008 605.317036 650.1625 607.8 650.1625 
z
" style="fill: #add8e6; stroke: #000000; stroke-linejoin: miter"/>
    </g>
    <!-- 44 -->
    <g transform="translate(601.4375 643.559375) scale(0.1 -0.1)">
     <use xlink:href="#DejaVuSans-34"/>
     <use xlink:href="#DejaVuSans-34" transform="translate(63.623047 0)"/>
    </g>
   </g>
   <g id="text_56">
    <!-- 10 -->
    <g transform="translate(602.71 675.619265) scale(0.08 -0.08)">
     <use xlink:href="#DejaVuSans-31"/>
     <use xlink:href="#DejaVuSans-30" transform="translate(63.623047 0)"/>
    </g>
   </g>
   <g id="text_57">
    <g id="patch_30">
     <path d="M 645 650.1625 
C 647.482964 650.1625 649.864567 649.176008 651.620287 647.420287 
C 653.376008 645.664567 654.3625 643.282964 654.3625 640.8 
C 654.3625 638.317036 653.376008 635.935433 651.620287 634.179713 
C 649.864567 632.423992 647.482964 631.4375 645 631.4375 
C 642.517036 631.4375 640.135433 632.423992 638.379713 634.179713 
C 636.623992 635.935433 635.6375 638.317036 635.6375 640.8 
C 635.6375 643.282964 636.623992 645.664567 638.379713 647.420287 
C 640.135433 649.176008 642.517036 650.1625 645 650.1625 
z
" style="fill: #add8e6; stroke: #000000; stroke-linejoin: miter"/>
    </g>
    <!-- 45 -->
    <g transform="translate(638.6375 643.559375) scale(0.1 -0.1)">
     <use xlink:href="#DejaVuSans-34"/>
     <use xlink:href="#DejaVuSans-35" transform="translate(63.623047 0)"/>
    </g>
   </g>
   <g id="text_58">
    <!-- 44 -->
    <g transform="translate(639.91 675.619265) scale(0.08 -0.08)">
     <use xlink:href="#DejaVuSans-34"/>
     <use xlink:href="#DejaVuSans-34" transform="translate(63.623047 0)"/>
    </g>
   </g>
   <g id="text_59">
    <g id="patch_31">
     <path d="M 700.8 541.456618 
C 703.282964 541.456618 705.664567 540.470126 707.420287 538.714405 
C 709.176008 536.958684 710.1625 534.577082 710.1625 532.094118 
C 710.1625 529.611154 709.176008 527.229551 707.420287 525.47383 
C 705.664567 523.71811 703.282964 522.731618 700.8 522.731618 
C 698.317036 522.731618 695.935433 523.71811 694.179713 525.47383 
C 692.423992 527.229551 691.4375 529.611154 691.4375 532.094118 
C 691.4375 534.577082 692.423992 536.958684 694.179713 538.714405 
C 695.935433 540.470126 698.317036 541.456618 700.8 541.456618 
z
" style="fill: #add8e6; stroke: #000000; stroke-linejoin: miter"/>
    </g>
    <!-- 23 -->
    <g transform="translate(694.4375 534.853493) scale(0.1 -0.1)">
     <use xlink:href="#DejaVuSans-32"/>
     <use xlink:href="#DejaVuSans-33" transform="translate(63.623047 0)"/>
    </g>
   </g>
   <g id="text_60">
    <!-- 47 -->
    <g transform="translate(695.71 566.913382) scale(0.08 -0.08)">
     <use xlink:href="#DejaVuSans-34"/>
     <use xlink:href="#DejaVuSans-37" transform="translate(63.623047 0)"/>
    </g>
   </g>
   <g id="text_61">
    <g id="patch_32">
     <path d="M 682.2 650.1625 
C 684.682964 650.1625 687.064567 649.176008 688.820287 647.420287 
C 690.576008 645.664567 691.5625 643.282964 691.5625 640.8 
C 691.5625 638.317036 690.576008 635.935433 688.820287 634.179713 
C 687.064567 632.423992 684.682964 631.4375 682.2 631.4375 
C 679.717036 631.4375 677.335433 632.423992 675.579713 634.179713 
C 673.823992 635.935433 672.8375 638.317036 672.8375 640.8 
C 672.8375 643.282964 673.823992 645.664567 675.579713 647.420287 
C 677.335433 649.176008 679.717036 650.1625 682.2 650.1625 
z
" style="fill: #add8e6; stroke: #000000; stroke-linejoin: miter"/>
    </g>
    <!-- 46 -->
    <g transform="translate(675.8375 643.559375) scale(0.1 -0.1)">
     <use xlink:href="#DejaVuSans-34"/>
     <use xlink:href="#DejaVuSans-36" transform="translate(63.623047 0)"/>
    </g>
   </g>
   <g id="text_62">
    <!-- 22 -->
    <g transform="translate(677.11 675.619265) scale(0.08 -0.08)">
     <use xlink:href="#DejaVuSans-32"/>
     <use xlink:href="#DejaVuSans-32" transform="translate(63.623047 0)"/>
    </g>
   </g>
   <g id="text_63">
    <g id="patch_33">
     <path d="M 719.4 650.1625 
C 721.882964 650.1625 724.264567 649.176008 726.020287 647.420287 
C 727.776008 645.664567 728.7625 643.282964 728.7625 640.8 
C 728.7625 638.317036 727.776008 635.935433 726.020287 634.179713 
C 724.264567 632.423992 721.882964 631.4375 719.4 631.4375 
C 716.917036 631.4375 714.535433 632.423992 712.779713 634.179713 
C 711.023992 635.935433 710.0375 638.317036 710.0375 640.8 
C 710.0375 643.282964 711.023992 645.664567 712.779713 647.420287 
C 714.535433 649.176008 716.917036 650.1625 719.4 650.1625 
z
" style="fill: #add8e6; stroke: #000000; stroke-linejoin: miter"/>
    </g>
    <!-- 47 -->
    <g transform="translate(713.0375 643.559375) scale(0.1 -0.1)">
     <use xlink:href="#DejaVuSans-34"/>
     <use xlink:href="#DejaVuSans-37" transform="translate(63.623047 0)"/>
    </g>
   </g>
   <g id="text_64">
    <!-- 46 -->
    <g transform="translate(714.31 675.619265) scale(0.08 -0.08)">
     <use xlink:href="#DejaVuSans-34"/>
     <use xlink:href="#DejaVuSans-36" transform="translate(63.623047 0)"/>
    </g>
   </g>
   <g id="text_65">
    <g id="patch_34">
     <path d="M 1035.6 213.815533 
C 1037.678944 213.815533 1039.673019 212.98956 1041.143054 211.519525 
C 1042.613089 210.04949 1043.439062 208.055414 1043.439062 205.976471 
C 1043.439062 203.897527 1042.613089 201.903452 1041.143054 200.433416 
C 1039.673019 198.963381 1037.678944 198.137408 1035.6 198.137408 
C 1033.521056 198.137408 1031.526981 198.963381 1030.056946 200.433416 
C 1028.586911 201.903452 1027.760937 203.897527 1027.760937 205.976471 
C 1027.760937 208.055414 1028.586911 210.04949 1030.056946 211.519525 
C 1031.526981 212.98956 1033.521056 213.815533 1035.6 213.815533 
z
" style="fill: #f08080; stroke: #000000; stroke-linejoin: miter"/>
    </g>
    <!-- 3 -->
    <g transform="translate(1032.41875 208.735846) scale(0.1 -0.1)">
     <use xlink:href="#DejaVuSans-33"/>
    </g>
   </g>
   <g id="text_66">
    <!-- 7 -->
    <g transform="translate(1033.055 240.795735) scale(0.08 -0.08)">
     <use xlink:href="#DejaVuSans-37"/>
    </g>
   </g>
   <g id="text_67">
    <g id="patch_35">
     <path d="M 886.8 322.521415 
C 888.878944 322.521415 890.873019 321.695442 892.343054 320.225407 
C 893.813089 318.755372 894.639063 316.761297 894.639063 314.682353 
C 894.639063 312.603409 893.813089 310.609334 892.343054 309.139299 
C 890.873019 307.669264 888.878944 306.84329 886.8 306.84329 
C 884.721056 306.84329 882.726981 307.669264 881.256946 309.139299 
C 879.786911 310.609334 878.960938 312.603409 878.960938 314.682353 
C 878.960938 316.761297 879.786911 318.755372 881.256946 320.225407 
C 882.726981 321.695442 884.721056 322.521415 886.8 322.521415 
z
" style="fill: #add8e6; stroke: #000000; stroke-linejoin: miter"/>
    </g>
    <!-- 6 -->
    <g transform="translate(883.61875 317.441728) scale(0.1 -0.1)">
     <use xlink:href="#DejaVuSans-36"/>
    </g>
   </g>
   <g id="text_68">
    <!-- 13 -->
    <g transform="translate(881.71 349.501618) scale(0.08 -0.08)">
     <use xlink:href="#DejaVuSans-31"/>
     <use xlink:href="#DejaVuSans-33" transform="translate(63.623047 0)"/>
    </g>
   </g>
   <g id="text_69">
    <g id="patch_36">
     <path d="M 812.4 432.750735 
C 814.882964 432.750735 817.264567 431.764243 819.020287 430.008523 
C 820.776008 428.252802 821.7625 425.871199 821.7625 423.388235 
C 821.7625 420.905271 820.776008 418.523669 819.020287 416.767948 
C 817.264567 415.012227 814.882964 414.025735 812.4 414.025735 
C 809.917036 414.025735 807.535433 415.012227 805.779713 416.767948 
C 804.023992 418.523669 803.0375 420.905271 803.0375 423.388235 
C 803.0375 425.871199 804.023992 428.252802 805.779713 430.008523 
C 807.535433 431.764243 809.917036 432.750735 812.4 432.750735 
z
" style="fill: #add8e6; stroke: #000000; stroke-linejoin: miter"/>
    </g>
    <!-- 12 -->
    <g transform="translate(806.0375 426.14761) scale(0.1 -0.1)">
     <use xlink:href="#DejaVuSans-31"/>
     <use xlink:href="#DejaVuSans-32" transform="translate(63.623047 0)"/>
    </g>
   </g>
   <g id="text_70">
    <!-- 25 -->
    <g transform="translate(807.31 458.2075) scale(0.08 -0.08)">
     <use xlink:href="#DejaVuSans-32"/>
     <use xlink:href="#DejaVuSans-35" transform="translate(63.623047 0)"/>
    </g>
   </g>
   <g id="text_71">
    <g id="patch_37">
     <path d="M 775.2 541.456618 
C 777.682964 541.456618 780.064567 540.470126 781.820287 538.714405 
C 783.576008 536.958684 784.5625 534.577082 784.5625 532.094118 
C 784.5625 529.611154 783.576008 527.229551 781.820287 525.47383 
C 780.064567 523.71811 777.682964 522.731618 775.2 522.731618 
C 772.717036 522.731618 770.335433 523.71811 768.579713 525.47383 
C 766.823992 527.229551 765.8375 529.611154 765.8375 532.094118 
C 765.8375 534.577082 766.823992 536.958684 768.579713 538.714405 
C 770.335433 540.470126 772.717036 541.456618 775.2 541.456618 
z
" style="fill: #add8e6; stroke: #000000; stroke-linejoin: miter"/>
    </g>
    <!-- 24 -->
    <g transform="translate(768.8375 534.853493) scale(0.1 -0.1)">
     <use xlink:href="#DejaVuSans-32"/>
     <use xlink:href="#DejaVuSans-34" transform="translate(63.623047 0)"/>
    </g>
   </g>
   <g id="text_72">
    <!-- 49 -->
    <g transform="translate(770.11 566.913382) scale(0.08 -0.08)">
     <use xlink:href="#DejaVuSans-34"/>
     <use xlink:href="#DejaVuSans-39" transform="translate(63.623047 0)"/>
    </g>
   </g>
   <g id="text_73">
    <g id="patch_38">
     <path d="M 756.6 650.1625 
C 759.082964 650.1625 761.464567 649.176008 763.220287 647.420287 
C 764.976008 645.664567 765.9625 643.282964 765.9625 640.8 
C 765.9625 638.317036 764.976008 635.935433 763.220287 634.179713 
C 761.464567 632.423992 759.082964 631.4375 756.6 631.4375 
C 754.117036 631.4375 751.735433 632.423992 749.979713 634.179713 
C 748.223992 635.935433 747.2375 638.317036 747.2375 640.8 
C 747.2375 643.282964 748.223992 645.664567 749.979713 647.420287 
C 751.735433 649.176008 754.117036 650.1625 756.6 650.1625 
z
" style="fill: #add8e6; stroke: #000000; stroke-linejoin: miter"/>
    </g>
    <!-- 48 -->
    <g transform="translate(750.2375 643.559375) scale(0.1 -0.1)">
     <use xlink:href="#DejaVuSans-34"/>
     <use xlink:href="#DejaVuSans-38" transform="translate(63.623047 0)"/>
    </g>
   </g>
   <g id="text_74">
    <!-- 2 -->
    <g transform="translate(754.055 675.619265) scale(0.08 -0.08)">
     <use xlink:href="#DejaVuSans-32"/>
    </g>
   </g>
   <g id="text_75">
    <g id="patch_39">
     <path d="M 793.8 650.1625 
C 796.282964 650.1625 798.664567 649.176008 800.420287 647.420287 
C 802.176008 645.664567 803.1625 643.282964 803.1625 640.8 
C 803.1625 638.317036 802.176008 635.935433 800.420287 634.179713 
C 798.664567 632.423992 796.282964 631.4375 793.8 631.4375 
C 791.317036 631.4375 788.935433 632.423992 787.179713 634.179713 
C 785.423992 635.935433 784.4375 638.317036 784.4375 640.8 
C 784.4375 643.282964 785.423992 645.664567 787.179713 647.420287 
C 788.935433 649.176008 791.317036 650.1625 793.8 650.1625 
z
" style="fill: #add8e6; stroke: #000000; stroke-linejoin: miter"/>
    </g>
    <!-- 49 -->
    <g transform="translate(787.4375 643.559375) scale(0.1 -0.1)">
     <use xlink:href="#DejaVuSans-34"/>
     <use xlink:href="#DejaVuSans-39" transform="translate(63.623047 0)"/>
    </g>
   </g>
   <g id="text_76">
    <!-- 48 -->
    <g transform="translate(788.71 675.619265) scale(0.08 -0.08)">
     <use xlink:href="#DejaVuSans-34"/>
     <use xlink:href="#DejaVuSans-38" transform="translate(63.623047 0)"/>
    </g>
   </g>
   <g id="text_77">
    <g id="patch_40">
     <path d="M 849.6 541.456618 
C 852.082964 541.456618 854.464567 540.470126 856.220287 538.714405 
C 857.976008 536.958684 858.9625 534.577082 858.9625 532.094118 
C 858.9625 529.611154 857.976008 527.229551 856.220287 525.47383 
C 854.464567 523.71811 852.082964 522.731618 849.6 522.731618 
C 847.117036 522.731618 844.735433 523.71811 842.979713 525.47383 
C 841.223992 527.229551 840.2375 529.611154 840.2375 532.094118 
C 840.2375 534.577082 841.223992 536.958684 842.979713 538.714405 
C 844.735433 540.470126 847.117036 541.456618 849.6 541.456618 
z
" style="fill: #add8e6; stroke: #000000; stroke-linejoin: miter"/>
    </g>
    <!-- 25 -->
    <g transform="translate(843.2375 534.853493) scale(0.1 -0.1)">
     <use xlink:href="#DejaVuSans-32"/>
     <use xlink:href="#DejaVuSans-35" transform="translate(63.623047 0)"/>
    </g>
   </g>
   <g id="text_78">
    <!-- 51 -->
    <g transform="translate(844.51 566.913382) scale(0.08 -0.08)">
     <use xlink:href="#DejaVuSans-35"/>
     <use xlink:href="#DejaVuSans-31" transform="translate(63.623047 0)"/>
    </g>
   </g>
   <g id="text_79">
    <g id="patch_41">
     <path d="M 831 650.1625 
C 833.482964 650.1625 835.864567 649.176008 837.620287 647.420287 
C 839.376008 645.664567 840.3625 643.282964 840.3625 640.8 
C 840.3625 638.317036 839.376008 635.935433 837.620287 634.179713 
C 835.864567 632.423992 833.482964 631.4375 831 631.4375 
C 828.517036 631.4375 826.135433 632.423992 824.379713 634.179713 
C 822.623992 635.935433 821.6375 638.317036 821.6375 640.8 
C 821.6375 643.282964 822.623992 645.664567 824.379713 647.420287 
C 826.135433 649.176008 828.517036 650.1625 831 650.1625 
z
" style="fill: #add8e6; stroke: #000000; stroke-linejoin: miter"/>
    </g>
    <!-- 50 -->
    <g transform="translate(824.6375 643.559375) scale(0.1 -0.1)">
     <use xlink:href="#DejaVuSans-35"/>
     <use xlink:href="#DejaVuSans-30" transform="translate(63.623047 0)"/>
    </g>
   </g>
   <g id="text_80">
    <!-- 24 -->
    <g transform="translate(825.91 675.619265) scale(0.08 -0.08)">
     <use xlink:href="#DejaVuSans-32"/>
     <use xlink:href="#DejaVuSans-34" transform="translate(63.623047 0)"/>
    </g>
   </g>
   <g id="text_81">
    <g id="patch_42">
     <path d="M 868.2 650.1625 
C 870.682964 650.1625 873.064567 649.176008 874.820287 647.420287 
C 876.576008 645.664567 877.5625 643.282964 877.5625 640.8 
C 877.5625 638.317036 876.576008 635.935433 874.820287 634.179713 
C 873.064567 632.423992 870.682964 631.4375 868.2 631.4375 
C 865.717036 631.4375 863.335433 632.423992 861.579713 634.179713 
C 859.823992 635.935433 858.8375 638.317036 858.8375 640.8 
C 858.8375 643.282964 859.823992 645.664567 861.579713 647.420287 
C 863.335433 649.176008 865.717036 650.1625 868.2 650.1625 
z
" style="fill: #add8e6; stroke: #000000; stroke-linejoin: miter"/>
    </g>
    <!-- 51 -->
    <g transform="translate(861.8375 643.559375) scale(0.1 -0.1)">
     <use xlink:href="#DejaVuSans-35"/>
     <use xlink:href="#DejaVuSans-31" transform="translate(63.623047 0)"/>
    </g>
   </g>
   <g id="text_82">
    <!-- 50 -->
    <g transform="translate(863.11 675.619265) scale(0.08 -0.08)">
     <use xlink:href="#DejaVuSans-35"/>
     <use xlink:href="#DejaVuSans-30" transform="translate(63.623047 0)"/>
    </g>
   </g>
   <g id="text_83">
    <g id="patch_43">
     <path d="M 961.2 432.750735 
C 963.682964 432.750735 966.064567 431.764243 967.820287 430.008523 
C 969.576008 428.252802 970.5625 425.871199 970.5625 423.388235 
C 970.5625 420.905271 969.576008 418.523669 967.820287 416.767948 
C 966.064567 415.012227 963.682964 414.025735 961.2 414.025735 
C 958.717036 414.025735 956.335433 415.012227 954.579713 416.767948 
C 952.823992 418.523669 951.8375 420.905271 951.8375 423.388235 
C 951.8375 425.871199 952.823992 428.252802 954.579713 430.008523 
C 956.335433 431.764243 958.717036 432.750735 961.2 432.750735 
z
" style="fill: #add8e6; stroke: #000000; stroke-linejoin: miter"/>
    </g>
    <!-- 13 -->
    <g transform="translate(954.8375 426.14761) scale(0.1 -0.1)">
     <use xlink:href="#DejaVuSans-31"/>
     <use xlink:href="#DejaVuSans-33" transform="translate(63.623047 0)"/>
    </g>
   </g>
   <g id="text_84">
    <!-- 27 -->
    <g transform="translate(956.11 458.2075) scale(0.08 -0.08)">
     <use xlink:href="#DejaVuSans-32"/>
     <use xlink:href="#DejaVuSans-37" transform="translate(63.623047 0)"/>
    </g>
   </g>
   <g id="text_85">
    <g id="patch_44">
     <path d="M 924 541.456618 
C 926.482964 541.456618 928.864567 540.470126 930.620287 538.714405 
C 932.376008 536.958684 933.3625 534.577082 933.3625 532.094118 
C 933.3625 529.611154 932.376008 527.229551 930.620287 525.47383 
C 928.864567 523.71811 926.482964 522.731618 924 522.731618 
C 921.517036 522.731618 919.135433 523.71811 917.379713 525.47383 
C 915.623992 527.229551 914.6375 529.611154 914.6375 532.094118 
C 914.6375 534.577082 915.623992 536.958684 917.379713 538.714405 
C 919.135433 540.470126 921.517036 541.456618 924 541.456618 
z
" style="fill: #add8e6; stroke: #000000; stroke-linejoin: miter"/>
    </g>
    <!-- 26 -->
    <g transform="translate(917.6375 534.853493) scale(0.1 -0.1)">
     <use xlink:href="#DejaVuSans-32"/>
     <use xlink:href="#DejaVuSans-36" transform="translate(63.623047 0)"/>
    </g>
   </g>
   <g id="text_86">
    <!-- 53 -->
    <g transform="translate(918.91 566.913382) scale(0.08 -0.08)">
     <use xlink:href="#DejaVuSans-35"/>
     <use xlink:href="#DejaVuSans-33" transform="translate(63.623047 0)"/>
    </g>
   </g>
   <g id="text_87">
    <g id="patch_45">
     <path d="M 905.4 650.1625 
C 907.882964 650.1625 910.264567 649.176008 912.020287 647.420287 
C 913.776008 645.664567 914.7625 643.282964 914.7625 640.8 
C 914.7625 638.317036 913.776008 635.935433 912.020287 634.179713 
C 910.264567 632.423992 907.882964 631.4375 905.4 631.4375 
C 902.917036 631.4375 900.535433 632.423992 898.779713 634.179713 
C 897.023992 635.935433 896.0375 638.317036 896.0375 640.8 
C 896.0375 643.282964 897.023992 645.664567 898.779713 647.420287 
C 900.535433 649.176008 902.917036 650.1625 905.4 650.1625 
z
" style="fill: #add8e6; stroke: #000000; stroke-linejoin: miter"/>
    </g>
    <!-- 52 -->
    <g transform="translate(899.0375 643.559375) scale(0.1 -0.1)">
     <use xlink:href="#DejaVuSans-35"/>
     <use xlink:href="#DejaVuSans-32" transform="translate(63.623047 0)"/>
    </g>
   </g>
   <g id="text_88">
    <!-- 12 -->
    <g transform="translate(900.31 675.619265) scale(0.08 -0.08)">
     <use xlink:href="#DejaVuSans-31"/>
     <use xlink:href="#DejaVuSans-32" transform="translate(63.623047 0)"/>
    </g>
   </g>
   <g id="text_89">
    <g id="patch_46">
     <path d="M 942.6 650.1625 
C 945.082964 650.1625 947.464567 649.176008 949.220287 647.420287 
C 950.976008 645.664567 951.9625 643.282964 951.9625 640.8 
C 951.9625 638.317036 950.976008 635.935433 949.220287 634.179713 
C 947.464567 632.423992 945.082964 631.4375 942.6 631.4375 
C 940.117036 631.4375 937.735433 632.423992 935.979713 634.179713 
C 934.223992 635.935433 933.2375 638.317036 933.2375 640.8 
C 933.2375 643.282964 934.223992 645.664567 935.979713 647.420287 
C 937.735433 649.176008 940.117036 650.1625 942.6 650.1625 
z
" style="fill: #add8e6; stroke: #000000; stroke-linejoin: miter"/>
    </g>
    <!-- 53 -->
    <g transform="translate(936.2375 643.559375) scale(0.1 -0.1)">
     <use xlink:href="#DejaVuSans-35"/>
     <use xlink:href="#DejaVuSans-33" transform="translate(63.623047 0)"/>
    </g>
   </g>
   <g id="text_90">
    <!-- 52 -->
    <g transform="translate(937.51 675.619265) scale(0.08 -0.08)">
     <use xlink:href="#DejaVuSans-35"/>
     <use xlink:href="#DejaVuSans-32" transform="translate(63.623047 0)"/>
    </g>
   </g>
   <g id="text_91">
    <g id="patch_47">
     <path d="M 998.4 541.456618 
C 1000.882964 541.456618 1003.264567 540.470126 1005.020287 538.714405 
C 1006.776008 536.958684 1007.7625 534.577082 1007.7625 532.094118 
C 1007.7625 529.611154 1006.776008 527.229551 1005.020287 525.47383 
C 1003.264567 523.71811 1000.882964 522.731618 998.4 522.731618 
C 995.917036 522.731618 993.535433 523.71811 991.779713 525.47383 
C 990.023992 527.229551 989.0375 529.611154 989.0375 532.094118 
C 989.0375 534.577082 990.023992 536.958684 991.779713 538.714405 
C 993.535433 540.470126 995.917036 541.456618 998.4 541.456618 
z
" style="fill: #add8e6; stroke: #000000; stroke-linejoin: miter"/>
    </g>
    <!-- 27 -->
    <g transform="translate(992.0375 534.853493) scale(0.1 -0.1)">
     <use xlink:href="#DejaVuSans-32"/>
     <use xlink:href="#DejaVuSans-37" transform="translate(63.623047 0)"/>
    </g>
   </g>
   <g id="text_92">
    <!-- 55 -->
    <g transform="translate(993.31 566.913382) scale(0.08 -0.08)">
     <use xlink:href="#DejaVuSans-35"/>
     <use xlink:href="#DejaVuSans-35" transform="translate(63.623047 0)"/>
    </g>
   </g>
   <g id="text_93">
    <g id="patch_48">
     <path d="M 979.8 650.1625 
C 982.282964 650.1625 984.664567 649.176008 986.420287 647.420287 
C 988.176008 645.664567 989.1625 643.282964 989.1625 640.8 
C 989.1625 638.317036 988.176008 635.935433 986.420287 634.179713 
C 984.664567 632.423992 982.282964 631.4375 979.8 631.4375 
C 977.317036 631.4375 974.935433 632.423992 973.179713 634.179713 
C 971.423992 635.935433 970.4375 638.317036 970.4375 640.8 
C 970.4375 643.282964 971.423992 645.664567 973.179713 647.420287 
C 974.935433 649.176008 977.317036 650.1625 979.8 650.1625 
z
" style="fill: #add8e6; stroke: #000000; stroke-linejoin: miter"/>
    </g>
    <!-- 54 -->
    <g transform="translate(973.4375 643.559375) scale(0.1 -0.1)">
     <use xlink:href="#DejaVuSans-35"/>
     <use xlink:href="#DejaVuSans-34" transform="translate(63.623047 0)"/>
    </g>
   </g>
   <g id="text_94">
    <!-- 26 -->
    <g transform="translate(974.71 675.619265) scale(0.08 -0.08)">
     <use xlink:href="#DejaVuSans-32"/>
     <use xlink:href="#DejaVuSans-36" transform="translate(63.623047 0)"/>
    </g>
   </g>
   <g id="text_95">
    <g id="patch_49">
     <path d="M 1017 650.1625 
C 1019.482964 650.1625 1021.864567 649.176008 1023.620287 647.420287 
C 1025.376008 645.664567 1026.3625 643.282964 1026.3625 640.8 
C 1026.3625 638.317036 1025.376008 635.935433 1023.620287 634.179713 
C 1021.864567 632.423992 1019.482964 631.4375 1017 631.4375 
C 1014.517036 631.4375 1012.135433 632.423992 1010.379713 634.179713 
C 1008.623992 635.935433 1007.6375 638.317036 1007.6375 640.8 
C 1007.6375 643.282964 1008.623992 645.664567 1010.379713 647.420287 
C 1012.135433 649.176008 1014.517036 650.1625 1017 650.1625 
z
" style="fill: #add8e6; stroke: #000000; stroke-linejoin: miter"/>
    </g>
    <!-- 55 -->
    <g transform="translate(1010.6375 643.559375) scale(0.1 -0.1)">
     <use xlink:href="#DejaVuSans-35"/>
     <use xlink:href="#DejaVuSans-35" transform="translate(63.623047 0)"/>
    </g>
   </g>
   <g id="text_96">
    <!-- 54 -->
    <g transform="translate(1011.91 675.619265) scale(0.08 -0.08)">
     <use xlink:href="#DejaVuSans-35"/>
     <use xlink:href="#DejaVuSans-34" transform="translate(63.623047 0)"/>
    </g>
   </g>
   <g id="text_97">
    <g id="patch_50">
     <path d="M 1184.4 322.521415 
C 1186.478944 322.521415 1188.473019 321.695442 1189.943054 320.225407 
C 1191.413089 318.755372 1192.239063 316.761297 1192.239063 314.682353 
C 1192.239063 312.603409 1191.413089 310.609334 1189.943054 309.139299 
C 1188.473019 307.669264 1186.478944 306.84329 1184.4 306.84329 
C 1182.321056 306.84329 1180.326981 307.669264 1178.856946 309.139299 
C 1177.386911 310.609334 1176.560937 312.603409 1176.560937 314.682353 
C 1176.560937 316.761297 1177.386911 318.755372 1178.856946 320.225407 
C 1180.326981 321.695442 1182.321056 322.521415 1184.4 322.521415 
z
" style="fill: #f08080; stroke: #000000; stroke-linejoin: miter"/>
    </g>
    <!-- 7 -->
    <g transform="translate(1181.21875 317.441728) scale(0.1 -0.1)">
     <use xlink:href="#DejaVuSans-37"/>
    </g>
   </g>
   <g id="text_98">
    <!-- 15 -->
    <g transform="translate(1179.31 349.501618) scale(0.08 -0.08)">
     <use xlink:href="#DejaVuSans-31"/>
     <use xlink:href="#DejaVuSans-35" transform="translate(63.623047 0)"/>
    </g>
   </g>
   <g id="text_99">
    <g id="patch_51">
     <path d="M 1110 432.750735 
C 1112.482964 432.750735 1114.864567 431.764243 1116.620287 430.008523 
C 1118.376008 428.252802 1119.3625 425.871199 1119.3625 423.388235 
C 1119.3625 420.905271 1118.376008 418.523669 1116.620287 416.767948 
C 1114.864567 415.012227 1112.482964 414.025735 1110 414.025735 
C 1107.517036 414.025735 1105.135433 415.012227 1103.379713 416.767948 
C 1101.623992 418.523669 1100.6375 420.905271 1100.6375 423.388235 
C 1100.6375 425.871199 1101.623992 428.252802 1103.379713 430.008523 
C 1105.135433 431.764243 1107.517036 432.750735 1110 432.750735 
z
" style="fill: #add8e6; stroke: #000000; stroke-linejoin: miter"/>
    </g>
    <!-- 14 -->
    <g transform="translate(1103.6375 426.14761) scale(0.1 -0.1)">
     <use xlink:href="#DejaVuSans-31"/>
     <use xlink:href="#DejaVuSans-34" transform="translate(63.623047 0)"/>
    </g>
   </g>
   <g id="text_100">
    <!-- 29 -->
    <g transform="translate(1104.91 458.2075) scale(0.08 -0.08)">
     <use xlink:href="#DejaVuSans-32"/>
     <use xlink:href="#DejaVuSans-39" transform="translate(63.623047 0)"/>
    </g>
   </g>
   <g id="text_101">
    <g id="patch_52">
     <path d="M 1072.8 541.456618 
C 1075.282964 541.456618 1077.664567 540.470126 1079.420287 538.714405 
C 1081.176008 536.958684 1082.1625 534.577082 1082.1625 532.094118 
C 1082.1625 529.611154 1081.176008 527.229551 1079.420287 525.47383 
C 1077.664567 523.71811 1075.282964 522.731618 1072.8 522.731618 
C 1070.317036 522.731618 1067.935433 523.71811 1066.179713 525.47383 
C 1064.423992 527.229551 1063.4375 529.611154 1063.4375 532.094118 
C 1063.4375 534.577082 1064.423992 536.958684 1066.179713 538.714405 
C 1067.935433 540.470126 1070.317036 541.456618 1072.8 541.456618 
z
" style="fill: #add8e6; stroke: #000000; stroke-linejoin: miter"/>
    </g>
    <!-- 28 -->
    <g transform="translate(1066.4375 534.853493) scale(0.1 -0.1)">
     <use xlink:href="#DejaVuSans-32"/>
     <use xlink:href="#DejaVuSans-38" transform="translate(63.623047 0)"/>
    </g>
   </g>
   <g id="text_102">
    <!-- 57 -->
    <g transform="translate(1067.71 566.913382) scale(0.08 -0.08)">
     <use xlink:href="#DejaVuSans-35"/>
     <use xlink:href="#DejaVuSans-37" transform="translate(63.623047 0)"/>
    </g>
   </g>
   <g id="text_103">
    <g id="patch_53">
     <path d="M 1054.2 650.1625 
C 1056.682964 650.1625 1059.064567 649.176008 1060.820287 647.420287 
C 1062.576008 645.664567 1063.5625 643.282964 1063.5625 640.8 
C 1063.5625 638.317036 1062.576008 635.935433 1060.820287 634.179713 
C 1059.064567 632.423992 1056.682964 631.4375 1054.2 631.4375 
C 1051.717036 631.4375 1049.335433 632.423992 1047.579713 634.179713 
C 1045.823992 635.935433 1044.8375 638.317036 1044.8375 640.8 
C 1044.8375 643.282964 1045.823992 645.664567 1047.579713 647.420287 
C 1049.335433 649.176008 1051.717036 650.1625 1054.2 650.1625 
z
" style="fill: #add8e6; stroke: #000000; stroke-linejoin: miter"/>
    </g>
    <!-- 56 -->
    <g transform="translate(1047.8375 643.559375) scale(0.1 -0.1)">
     <use xlink:href="#DejaVuSans-35"/>
     <use xlink:href="#DejaVuSans-36" transform="translate(63.623047 0)"/>
    </g>
   </g>
   <g id="text_104">
    <!-- 6 -->
    <g transform="translate(1051.655 675.619265) scale(0.08 -0.08)">
     <use xlink:href="#DejaVuSans-36"/>
    </g>
   </g>
   <g id="text_105">
    <g id="patch_54">
     <path d="M 1091.4 650.1625 
C 1093.882964 650.1625 1096.264567 649.176008 1098.020287 647.420287 
C 1099.776008 645.664567 1100.7625 643.282964 1100.7625 640.8 
C 1100.7625 638.317036 1099.776008 635.935433 1098.020287 634.179713 
C 1096.264567 632.423992 1093.882964 631.4375 1091.4 631.4375 
C 1088.917036 631.4375 1086.535433 632.423992 1084.779713 634.179713 
C 1083.023992 635.935433 1082.0375 638.317036 1082.0375 640.8 
C 1082.0375 643.282964 1083.023992 645.664567 1084.779713 647.420287 
C 1086.535433 649.176008 1088.917036 650.1625 1091.4 650.1625 
z
" style="fill: #add8e6; stroke: #000000; stroke-linejoin: miter"/>
    </g>
    <!-- 57 -->
    <g transform="translate(1085.0375 643.559375) scale(0.1 -0.1)">
     <use xlink:href="#DejaVuSans-35"/>
     <use xlink:href="#DejaVuSans-37" transform="translate(63.623047 0)"/>
    </g>
   </g>
   <g id="text_106">
    <!-- 56 -->
    <g transform="translate(1086.31 675.619265) scale(0.08 -0.08)">
     <use xlink:href="#DejaVuSans-35"/>
     <use xlink:href="#DejaVuSans-36" transform="translate(63.623047 0)"/>
    </g>
   </g>
   <g id="text_107">
    <g id="patch_55">
     <path d="M 1147.2 541.456618 
C 1149.682964 541.456618 1152.064567 540.470126 1153.820287 538.714405 
C 1155.576008 536.958684 1156.5625 534.577082 1156.5625 532.094118 
C 1156.5625 529.611154 1155.576008 527.229551 1153.820287 525.47383 
C 1152.064567 523.71811 1149.682964 522.731618 1147.2 522.731618 
C 1144.717036 522.731618 1142.335433 523.71811 1140.579713 525.47383 
C 1138.823992 527.229551 1137.8375 529.611154 1137.8375 532.094118 
C 1137.8375 534.577082 1138.823992 536.958684 1140.579713 538.714405 
C 1142.335433 540.470126 1144.717036 541.456618 1147.2 541.456618 
z
" style="fill: #add8e6; stroke: #000000; stroke-linejoin: miter"/>
    </g>
    <!-- 29 -->
    <g transform="translate(1140.8375 534.853493) scale(0.1 -0.1)">
     <use xlink:href="#DejaVuSans-32"/>
     <use xlink:href="#DejaVuSans-39" transform="translate(63.623047 0)"/>
    </g>
   </g>
   <g id="text_108">
    <!-- 59 -->
    <g transform="translate(1142.11 566.913382) scale(0.08 -0.08)">
     <use xlink:href="#DejaVuSans-35"/>
     <use xlink:href="#DejaVuSans-39" transform="translate(63.623047 0)"/>
    </g>
   </g>
   <g id="text_109">
    <g id="patch_56">
     <path d="M 1128.6 650.1625 
C 1131.082964 650.1625 1133.464567 649.176008 1135.220287 647.420287 
C 1136.976008 645.664567 1137.9625 643.282964 1137.9625 640.8 
C 1137.9625 638.317036 1136.976008 635.935433 1135.220287 634.179713 
C 1133.464567 632.423992 1131.082964 631.4375 1128.6 631.4375 
C 1126.117036 631.4375 1123.735433 632.423992 1121.979713 634.179713 
C 1120.223992 635.935433 1119.2375 638.317036 1119.2375 640.8 
C 1119.2375 643.282964 1120.223992 645.664567 1121.979713 647.420287 
C 1123.735433 649.176008 1126.117036 650.1625 1128.6 650.1625 
z
" style="fill: #add8e6; stroke: #000000; stroke-linejoin: miter"/>
    </g>
    <!-- 58 -->
    <g transform="translate(1122.2375 643.559375) scale(0.1 -0.1)">
     <use xlink:href="#DejaVuSans-35"/>
     <use xlink:href="#DejaVuSans-38" transform="translate(63.623047 0)"/>
    </g>
   </g>
   <g id="text_110">
    <!-- 28 -->
    <g transform="translate(1123.51 675.619265) scale(0.08 -0.08)">
     <use xlink:href="#DejaVuSans-32"/>
     <use xlink:href="#DejaVuSans-38" transform="translate(63.623047 0)"/>
    </g>
   </g>
   <g id="text_111">
    <g id="patch_57">
     <path d="M 1165.8 650.1625 
C 1168.282964 650.1625 1170.664567 649.176008 1172.420287 647.420287 
C 1174.176008 645.664567 1175.1625 643.282964 1175.1625 640.8 
C 1175.1625 638.317036 1174.176008 635.935433 1172.420287 634.179713 
C 1170.664567 632.423992 1168.282964 631.4375 1165.8 631.4375 
C 1163.317036 631.4375 1160.935433 632.423992 1159.179713 634.179713 
C 1157.423992 635.935433 1156.4375 638.317036 1156.4375 640.8 
C 1156.4375 643.282964 1157.423992 645.664567 1159.179713 647.420287 
C 1160.935433 649.176008 1163.317036 650.1625 1165.8 650.1625 
z
" style="fill: #add8e6; stroke: #000000; stroke-linejoin: miter"/>
    </g>
    <!-- 59 -->
    <g transform="translate(1159.4375 643.559375) scale(0.1 -0.1)">
     <use xlink:href="#DejaVuSans-35"/>
     <use xlink:href="#DejaVuSans-39" transform="translate(63.623047 0)"/>
    </g>
   </g>
   <g id="text_112">
    <!-- 58 -->
    <g transform="translate(1160.71 675.619265) scale(0.08 -0.08)">
     <use xlink:href="#DejaVuSans-35"/>
     <use xlink:href="#DejaVuSans-38" transform="translate(63.623047 0)"/>
    </g>
   </g>
   <g id="text_113">
    <g id="patch_58">
     <path d="M 1258.8 432.750735 
C 1261.282964 432.750735 1263.664567 431.764243 1265.420287 430.008523 
C 1267.176008 428.252802 1268.1625 425.871199 1268.1625 423.388235 
C 1268.1625 420.905271 1267.176008 418.523669 1265.420287 416.767948 
C 1263.664567 415.012227 1261.282964 414.025735 1258.8 414.025735 
C 1256.317036 414.025735 1253.935433 415.012227 1252.179713 416.767948 
C 1250.423992 418.523669 1249.4375 420.905271 1249.4375 423.388235 
C 1249.4375 425.871199 1250.423992 428.252802 1252.179713 430.008523 
C 1253.935433 431.764243 1256.317036 432.750735 1258.8 432.750735 
z
" style="fill: #f08080; stroke: #000000; stroke-linejoin: miter"/>
    </g>
    <!-- 15 -->
    <g transform="translate(1252.4375 426.14761) scale(0.1 -0.1)">
     <use xlink:href="#DejaVuSans-31"/>
     <use xlink:href="#DejaVuSans-35" transform="translate(63.623047 0)"/>
    </g>
   </g>
   <g id="text_114">
    <!-- 31 -->
    <g transform="translate(1253.71 458.2075) scale(0.08 -0.08)">
     <use xlink:href="#DejaVuSans-33"/>
     <use xlink:href="#DejaVuSans-31" transform="translate(63.623047 0)"/>
    </g>
   </g>
   <g id="text_115">
    <g id="patch_59">
     <path d="M 1221.6 541.456618 
C 1224.082964 541.456618 1226.464567 540.470126 1228.220287 538.714405 
C 1229.976008 536.958684 1230.9625 534.577082 1230.9625 532.094118 
C 1230.9625 529.611154 1229.976008 527.229551 1228.220287 525.47383 
C 1226.464567 523.71811 1224.082964 522.731618 1221.6 522.731618 
C 1219.117036 522.731618 1216.735433 523.71811 1214.979713 525.47383 
C 1213.223992 527.229551 1212.2375 529.611154 1212.2375 532.094118 
C 1212.2375 534.577082 1213.223992 536.958684 1214.979713 538.714405 
C 1216.735433 540.470126 1219.117036 541.456618 1221.6 541.456618 
z
" style="fill: #add8e6; stroke: #000000; stroke-linejoin: miter"/>
    </g>
    <!-- 30 -->
    <g transform="translate(1215.2375 534.853493) scale(0.1 -0.1)">
     <use xlink:href="#DejaVuSans-33"/>
     <use xlink:href="#DejaVuSans-30" transform="translate(63.623047 0)"/>
    </g>
   </g>
   <g id="text_116">
    <!-- 61 -->
    <g transform="translate(1216.51 566.913382) scale(0.08 -0.08)">
     <use xlink:href="#DejaVuSans-36"/>
     <use xlink:href="#DejaVuSans-31" transform="translate(63.623047 0)"/>
    </g>
   </g>
   <g id="text_117">
    <g id="patch_60">
     <path d="M 1203 650.1625 
C 1205.482964 650.1625 1207.864567 649.176008 1209.620287 647.420287 
C 1211.376008 645.664567 1212.3625 643.282964 1212.3625 640.8 
C 1212.3625 638.317036 1211.376008 635.935433 1209.620287 634.179713 
C 1207.864567 632.423992 1205.482964 631.4375 1203 631.4375 
C 1200.517036 631.4375 1198.135433 632.423992 1196.379713 634.179713 
C 1194.623992 635.935433 1193.6375 638.317036 1193.6375 640.8 
C 1193.6375 643.282964 1194.623992 645.664567 1196.379713 647.420287 
C 1198.135433 649.176008 1200.517036 650.1625 1203 650.1625 
z
" style="fill: #add8e6; stroke: #000000; stroke-linejoin: miter"/>
    </g>
    <!-- 60 -->
    <g transform="translate(1196.6375 643.559375) scale(0.1 -0.1)">
     <use xlink:href="#DejaVuSans-36"/>
     <use xlink:href="#DejaVuSans-30" transform="translate(63.623047 0)"/>
    </g>
   </g>
   <g id="text_118">
    <!-- 14 -->
    <g transform="translate(1197.91 675.619265) scale(0.08 -0.08)">
     <use xlink:href="#DejaVuSans-31"/>
     <use xlink:href="#DejaVuSans-34" transform="translate(63.623047 0)"/>
    </g>
   </g>
   <g id="text_119">
    <g id="patch_61">
     <path d="M 1240.2 650.1625 
C 1242.682964 650.1625 1245.064567 649.176008 1246.820287 647.420287 
C 1248.576008 645.664567 1249.5625 643.282964 1249.5625 640.8 
C 1249.5625 638.317036 1248.576008 635.935433 1246.820287 634.179713 
C 1245.064567 632.423992 1242.682964 631.4375 1240.2 631.4375 
C 1237.717036 631.4375 1235.335433 632.423992 1233.579713 634.179713 
C 1231.823992 635.935433 1230.8375 638.317036 1230.8375 640.8 
C 1230.8375 643.282964 1231.823992 645.664567 1233.579713 647.420287 
C 1235.335433 649.176008 1237.717036 650.1625 1240.2 650.1625 
z
" style="fill: #add8e6; stroke: #000000; stroke-linejoin: miter"/>
    </g>
    <!-- 61 -->
    <g transform="translate(1233.8375 643.559375) scale(0.1 -0.1)">
     <use xlink:href="#DejaVuSans-36"/>
     <use xlink:href="#DejaVuSans-31" transform="translate(63.623047 0)"/>
    </g>
   </g>
   <g id="text_120">
    <!-- 60 -->
    <g transform="translate(1235.11 675.619265) scale(0.08 -0.08)">
     <use xlink:href="#DejaVuSans-36"/>
     <use xlink:href="#DejaVuSans-30" transform="translate(63.623047 0)"/>
    </g>
   </g>
   <g id="text_121">
    <g id="patch_62">
     <path d="M 1296 541.456618 
C 1298.482964 541.456618 1300.864567 540.470126 1302.620287 538.714405 
C 1304.376008 536.958684 1305.3625 534.577082 1305.3625 532.094118 
C 1305.3625 529.611154 1304.376008 527.229551 1302.620287 525.47383 
C 1300.864567 523.71811 1298.482964 522.731618 1296 522.731618 
C 1293.517036 522.731618 1291.135433 523.71811 1289.379713 525.47383 
C 1287.623992 527.229551 1286.6375 529.611154 1286.6375 532.094118 
C 1286.6375 534.577082 1287.623992 536.958684 1289.379713 538.714405 
C 1291.135433 540.470126 1293.517036 541.456618 1296 541.456618 
z
" style="fill: #f08080; stroke: #000000; stroke-linejoin: miter"/>
    </g>
    <!-- 31 -->
    <g transform="translate(1289.6375 534.853493) scale(0.1 -0.1)">
     <use xlink:href="#DejaVuSans-33"/>
     <use xlink:href="#DejaVuSans-31" transform="translate(63.623047 0)"/>
    </g>
   </g>
   <g id="text_122">
    <!-- 63 -->
    <g transform="translate(1290.91 566.913382) scale(0.08 -0.08)">
     <use xlink:href="#DejaVuSans-36"/>
     <use xlink:href="#DejaVuSans-33" transform="translate(63.623047 0)"/>
    </g>
   </g>
   <g id="text_123">
    <g id="patch_63">
     <path d="M 1277.4 650.1625 
C 1279.882964 650.1625 1282.264567 649.176008 1284.020287 647.420287 
C 1285.776008 645.664567 1286.7625 643.282964 1286.7625 640.8 
C 1286.7625 638.317036 1285.776008 635.935433 1284.020287 634.179713 
C 1282.264567 632.423992 1279.882964 631.4375 1277.4 631.4375 
C 1274.917036 631.4375 1272.535433 632.423992 1270.779713 634.179713 
C 1269.023992 635.935433 1268.0375 638.317036 1268.0375 640.8 
C 1268.0375 643.282964 1269.023992 645.664567 1270.779713 647.420287 
C 1272.535433 649.176008 1274.917036 650.1625 1277.4 650.1625 
z
" style="fill: #add8e6; stroke: #000000; stroke-linejoin: miter"/>
    </g>
    <!-- 62 -->
    <g transform="translate(1271.0375 643.559375) scale(0.1 -0.1)">
     <use xlink:href="#DejaVuSans-36"/>
     <use xlink:href="#DejaVuSans-32" transform="translate(63.623047 0)"/>
    </g>
   </g>
   <g id="text_124">
    <!-- 30 -->
    <g transform="translate(1272.31 675.619265) scale(0.08 -0.08)">
     <use xlink:href="#DejaVuSans-33"/>
     <use xlink:href="#DejaVuSans-30" transform="translate(63.623047 0)"/>
    </g>
   </g>
   <g id="text_125">
    <g id="patch_64">
     <path d="M 1314.6 650.1625 
C 1317.082964 650.1625 1319.464567 649.176008 1321.220287 647.420287 
C 1322.976008 645.664567 1323.9625 643.282964 1323.9625 640.8 
C 1323.9625 638.317036 1322.976008 635.935433 1321.220287 634.179713 
C 1319.464567 632.423992 1317.082964 631.4375 1314.6 631.4375 
C 1312.117036 631.4375 1309.735433 632.423992 1307.979713 634.179713 
C 1306.223992 635.935433 1305.2375 638.317036 1305.2375 640.8 
C 1305.2375 643.282964 1306.223992 645.664567 1307.979713 647.420287 
C 1309.735433 649.176008 1312.117036 650.1625 1314.6 650.1625 
z
" style="fill: #add8e6; stroke: #000000; stroke-linejoin: miter"/>
    </g>
    <!-- 63 -->
    <g transform="translate(1308.2375 643.559375) scale(0.1 -0.1)">
     <use xlink:href="#DejaVuSans-36"/>
     <use xlink:href="#DejaVuSans-33" transform="translate(63.623047 0)"/>
    </g>
   </g>
   <g id="text_126">
    <!-- 62 -->
    <g transform="translate(1309.51 675.619265) scale(0.08 -0.08)">
     <use xlink:href="#DejaVuSans-36"/>
     <use xlink:href="#DejaVuSans-32" transform="translate(63.623047 0)"/>
    </g>
   </g>
  </g>
 </g>
 <defs>
  <clipPath id="p6b3f746500">
   <rect x="180" y="86.4" width="1116" height="554.4"/>
  </clipPath>
 </defs>
</svg>
