<?xml version="1.0" encoding="utf-8" standalone="no"?>
<!DOCTYPE svg PUBLIC "-//W3C//DTD SVG 1.1//EN"
  "http://www.w3.org/Graphics/SVG/1.1/DTD/svg11.dtd">
<svg xmlns:xlink="http://www.w3.org/1999/xlink" width="1440pt" height="720pt" viewBox="0 0 1440 720" xmlns="http://www.w3.org/2000/svg" version="1.1">
 <metadata>
  <rdf:RDF xmlns:dc="http://purl.org/dc/elements/1.1/" xmlns:cc="http://creativecommons.org/ns#" xmlns:rdf="http://www.w3.org/1999/02/22-rdf-syntax-ns#">
   <cc:Work>
    <dc:type rdf:resource="http://purl.org/dc/dcmitype/StillImage"/>
    <dc:date>2026-04-15T10:46:01.950118</dc:date>
    <dc:format>image/svg+xml</dc:format>
    <dc:creator>
     <cc:Agent>
      <dc:title>Matplotlib v3.10.8, https://matplotlib.org/</dc:title>
     </cc:Agent>
    </dc:creator>
   </cc:Work>
  </rdf:RDF>
 </metadata>
 <defs>
  <style type="text/css">*{stroke-linejoin: round; stroke-linecap: butt}</style>
 </defs>
 <g id="figure_1">
  <g id="patch_1">
   <path d="M 0 720 
L 1440 720 
L 1440 0 
L 0 0 
z
" style="fill: #ffffff"/>
  </g>
  <g id="axes_1">
   <g id="line2d_1">
    <path d="M 738 94.208451 
L 514.8 172.292958 
" clip-path="url(#p7980f1d4a5)" style="fill: none; stroke: #000000; stroke-width: 1.5; stroke-linecap: square"/>
   </g>
   <g id="line2d_2">
    <path d="M 738 94.208451 
L 961.2 172.292958 
" clip-path="url(#p7980f1d4a5)" style="fill: none; stroke: #000000; stroke-width: 1.5; stroke-linecap: square"/>
   </g>
   <g id="text_1">
    <g id="patch_2">
     <path d="M 738 102.047513 
C 740.078944 102.047513 742.073019 101.22154 743.543054 99.751505 
C 745.013089 98.28147 745.839063 96.287394 745.839063 94.208451 
C 745.839063 92.129507 745.013089 90.135432 743.543054 88.665396 
C 742.073019 87.195361 740.078944 86.369388 738 86.369388 
C 735.921056 86.369388 733.926981 87.195361 732.456946 88.665396 
C 730.986911 90.135432 730.160938 92.129507 730.160938 94.208451 
C 730.160938 96.287394 730.986911 98.28147 732.456946 99.751505 
C 733.926981 101.22154 735.921056 102.047513 738 102.047513 
z
" style="fill: #f08080; stroke: #000000; stroke-linejoin: miter"/>
    </g>
    <!-- 1 -->
    <g transform="translate(734.81875 96.967826) scale(0.1 -0.1)">
     <defs>
      <path id="DejaVuSans-31" d="M 794 531 
L 1825 531 
L 1825 4091 
L 703 3866 
L 703 4441 
L 1819 4666 
L 2450 4666 
L 2450 531 
L 3481 531 
L 3481 0 
L 794 0 
L 794 531 
z
" transform="scale(0.015625)"/>
     </defs>
     <use xlink:href="#DejaVuSans-31"/>
    </g>
   </g>
   <g id="text_2">
    <!-- 3 -->
    <g transform="translate(735.455 119.841303) scale(0.08 -0.08)">
     <defs>
      <path id="DejaVuSans-33" d="M 2597 2516 
Q 3050 2419 3304 2112 
Q 3559 1806 3559 1356 
Q 3559 666 3084 287 
Q 2609 -91 1734 -91 
Q 1441 -91 1130 -33 
Q 819 25 488 141 
L 488 750 
Q 750 597 1062 519 
Q 1375 441 1716 441 
Q 2309 441 2620 675 
Q 2931 909 2931 1356 
Q 2931 1769 2642 2001 
Q 2353 2234 1838 2234 
L 1294 2234 
L 1294 2753 
L 1863 2753 
Q 2328 2753 2575 2939 
Q 2822 3125 2822 3475 
Q 2822 3834 2567 4026 
Q 2313 4219 1838 4219 
Q 1578 4219 1281 4162 
Q 984 4106 628 3988 
L 628 4550 
Q 988 4650 1302 4700 
Q 1616 4750 1894 4750 
Q 2613 4750 3031 4423 
Q 3450 4097 3450 3541 
Q 3450 3153 3228 2886 
Q 3006 2619 2597 2516 
z
" transform="scale(0.015625)"/>
     </defs>
     <use xlink:href="#DejaVuSans-33"/>
    </g>
   </g>
   <g id="text_3">
    <g id="patch_3">
     <path d="M 514.8 180.13202 
C 516.878944 180.13202 518.873019 179.306047 520.343054 177.836012 
C 521.813089 176.365977 522.639063 174.371901 522.639063 172.292958 
C 522.639063 170.214014 521.813089 168.219939 520.343054 166.749903 
C 518.873019 165.279868 516.878944 164.453895 514.8 164.453895 
C 512.721056 164.453895 510.726981 165.279868 509.256946 166.749903 
C 507.786911 168.219939 506.960938 170.214014 506.960938 172.292958 
C 506.960938 174.371901 507.786911 176.365977 509.256946 177.836012 
C 510.726981 179.306047 512.721056 180.13202 514.8 180.13202 
z
" style="fill: #add8e6; stroke: #000000; stroke-linejoin: miter"/>
    </g>
    <!-- 2 -->
    <g transform="translate(511.61875 175.052333) scale(0.1 -0.1)">
     <defs>
      <path id="DejaVuSans-32" d="M 1228 531 
L 3431 531 
L 3431 0 
L 469 0 
L 469 531 
Q 828 903 1448 1529 
Q 2069 2156 2228 2338 
Q 2531 2678 2651 2914 
Q 2772 3150 2772 3378 
Q 2772 3750 2511 3984 
Q 2250 4219 1831 4219 
Q 1534 4219 1204 4116 
Q 875 4013 500 3803 
L 500 4441 
Q 881 4594 1212 4672 
Q 1544 4750 1819 4750 
Q 2544 4750 2975 4387 
Q 3406 4025 3406 3419 
Q 3406 3131 3298 2873 
Q 3191 2616 2906 2266 
Q 2828 2175 2409 1742 
Q 1991 1309 1228 531 
z
" transform="scale(0.015625)"/>
     </defs>
     <use xlink:href="#DejaVuSans-32"/>
    </g>
   </g>
   <g id="text_4">
    <!-- 1 -->
    <g transform="translate(512.255 197.92581) scale(0.08 -0.08)">
     <use xlink:href="#DejaVuSans-31"/>
    </g>
   </g>
   <g id="text_5">
    <!-- 1 -->
    <g style="fill: #ff0000" transform="translate(509.71 239.175563) scale(0.16 -0.16)">
     <use xlink:href="#DejaVuSans-31"/>
    </g>
   </g>
   <g id="text_6">
    <g id="patch_4">
     <path d="M 961.2 180.13202 
C 963.278944 180.13202 965.273019 179.306047 966.743054 177.836012 
C 968.213089 176.365977 969.039063 174.371901 969.039063 172.292958 
C 969.039063 170.214014 968.213089 168.219939 966.743054 166.749903 
C 965.273019 165.279868 963.278944 164.453895 961.2 164.453895 
C 959.121056 164.453895 957.126981 165.279868 955.656946 166.749903 
C 954.186911 168.219939 953.360938 170.214014 953.360938 172.292958 
C 953.360938 174.371901 954.186911 176.365977 955.656946 177.836012 
C 957.126981 179.306047 959.121056 180.13202 961.2 180.13202 
z
" style="fill: #add8e6; stroke: #000000; stroke-linejoin: miter"/>
    </g>
    <!-- 3 -->
    <g transform="translate(958.01875 175.052333) scale(0.1 -0.1)">
     <use xlink:href="#DejaVuSans-33"/>
    </g>
   </g>
   <g id="text_7">
    <!-- 2 -->
    <g transform="translate(958.655 197.92581) scale(0.08 -0.08)">
     <use xlink:href="#DejaVuSans-32"/>
    </g>
   </g>
   <g id="text_8">
    <!-- 2 -->
    <g style="fill: #ff0000" transform="translate(956.11 239.175563) scale(0.16 -0.16)">
     <use xlink:href="#DejaVuSans-32"/>
    </g>
   </g>
  </g>
 </g>
 <defs>
  <clipPath id="p7980f1d4a5">
   <rect x="180" y="86.4" width="1116" height="554.4"/>
  </clipPath>
 </defs>
</svg>
