<?xml version="1.0" encoding="utf-8" standalone="no"?>
<!DOCTYPE svg PUBLIC "-//W3C//DTD SVG 1.1//EN"
  "http://www.w3.org/Graphics/SVG/1.1/DTD/svg11.dtd">
<svg xmlns:xlink="http://www.w3.org/1999/xlink" width="1440pt" height="720pt" viewBox="0 0 1440 720" xmlns="http://www.w3.org/2000/svg" version="1.1">
 <metadata>
  <rdf:RDF xmlns:dc="http://purl.org/dc/elements/1.1/" xmlns:cc="http://creativecommons.org/ns#" xmlns:rdf="http://www.w3.org/1999/02/22-rdf-syntax-ns#">
   <cc:Work>
    <dc:type rdf:resource="http://purl.org/dc/dcmitype/StillImage"/>
    <dc:date>2026-04-10T16:30:11.764990</dc:date>
    <dc:format>image/svg+xml</dc:format>
    <dc:creator>
     <cc:Agent>
      <dc:title>Matplotlib v3.10.8, https://matplotlib.org/</dc:title>
     </cc:Agent>
    </dc:creator>
   </cc:Work>
  </rdf:RDF>
 </metadata>
 <defs>
  <style type="text/css">*{stroke-linejoin: round; stroke-linecap: butt}</style>
 </defs>
 <g id="figure_1">
  <g id="patch_1">
   <path d="M 0 720 
L 1440 720 
L 1440 0 
L 0 0 
z
" style="fill: #ffffff"/>
  </g>
  <g id="axes_1">
   <g id="line2d_1">
    <path d="M 738 97.270588 
L 440.4 205.976471 
" clip-path="url(#p595af69d85)" style="fill: none; stroke: #000000; stroke-width: 1.5; stroke-linecap: square"/>
   </g>
   <g id="line2d_2">
    <path d="M 440.4 205.976471 
L 291.6 314.682353 
" clip-path="url(#p595af69d85)" style="fill: none; stroke: #000000; stroke-width: 1.5; stroke-linecap: square"/>
   </g>
   <g id="line2d_3">
    <path d="M 291.6 314.682353 
L 217.2 423.388235 
" clip-path="url(#p595af69d85)" style="fill: none; stroke: #000000; stroke-width: 1.5; stroke-linecap: square"/>
   </g>
   <g id="line2d_4">
    <path d="M 217.2 423.388235 
L 180 532.094118 
" clip-path="url(#p595af69d85)" style="fill: none; stroke: #000000; stroke-width: 1.5; stroke-linecap: square"/>
   </g>
   <g id="line2d_5">
    <path d="M 217.2 423.388235 
L 254.4 532.094118 
" clip-path="url(#p595af69d85)" style="fill: none; stroke: #000000; stroke-width: 1.5; stroke-linecap: square"/>
   </g>
   <g id="line2d_6">
    <path d="M 291.6 314.682353 
L 366 423.388235 
" clip-path="url(#p595af69d85)" style="fill: none; stroke: #000000; stroke-width: 1.5; stroke-linecap: square"/>
   </g>
   <g id="line2d_7">
    <path d="M 366 423.388235 
L 328.8 532.094118 
" clip-path="url(#p595af69d85)" style="fill: none; stroke: #000000; stroke-width: 1.5; stroke-linecap: square"/>
   </g>
   <g id="line2d_8">
    <path d="M 366 423.388235 
L 403.2 532.094118 
" clip-path="url(#p595af69d85)" style="fill: none; stroke: #000000; stroke-width: 1.5; stroke-linecap: square"/>
   </g>
   <g id="line2d_9">
    <path d="M 440.4 205.976471 
L 589.2 314.682353 
" clip-path="url(#p595af69d85)" style="fill: none; stroke: #000000; stroke-width: 1.5; stroke-linecap: square"/>
   </g>
   <g id="line2d_10">
    <path d="M 589.2 314.682353 
L 514.8 423.388235 
" clip-path="url(#p595af69d85)" style="fill: none; stroke: #000000; stroke-width: 1.5; stroke-linecap: square"/>
   </g>
   <g id="line2d_11">
    <path d="M 514.8 423.388235 
L 477.6 532.094118 
" clip-path="url(#p595af69d85)" style="fill: none; stroke: #000000; stroke-width: 1.5; stroke-linecap: square"/>
   </g>
   <g id="line2d_12">
    <path d="M 514.8 423.388235 
L 552 532.094118 
" clip-path="url(#p595af69d85)" style="fill: none; stroke: #000000; stroke-width: 1.5; stroke-linecap: square"/>
   </g>
   <g id="line2d_13">
    <path d="M 589.2 314.682353 
L 663.6 423.388235 
" clip-path="url(#p595af69d85)" style="fill: none; stroke: #000000; stroke-width: 1.5; stroke-linecap: square"/>
   </g>
   <g id="line2d_14">
    <path d="M 663.6 423.388235 
L 626.4 532.094118 
" clip-path="url(#p595af69d85)" style="fill: none; stroke: #000000; stroke-width: 1.5; stroke-linecap: square"/>
   </g>
   <g id="line2d_15">
    <path d="M 663.6 423.388235 
L 700.8 532.094118 
" clip-path="url(#p595af69d85)" style="fill: none; stroke: #000000; stroke-width: 1.5; stroke-linecap: square"/>
   </g>
   <g id="line2d_16">
    <path d="M 738 97.270588 
L 1035.6 205.976471 
" clip-path="url(#p595af69d85)" style="fill: none; stroke: #000000; stroke-width: 1.5; stroke-linecap: square"/>
   </g>
   <g id="line2d_17">
    <path d="M 1035.6 205.976471 
L 886.8 314.682353 
" clip-path="url(#p595af69d85)" style="fill: none; stroke: #000000; stroke-width: 1.5; stroke-linecap: square"/>
   </g>
   <g id="line2d_18">
    <path d="M 886.8 314.682353 
L 812.4 423.388235 
" clip-path="url(#p595af69d85)" style="fill: none; stroke: #000000; stroke-width: 1.5; stroke-linecap: square"/>
   </g>
   <g id="line2d_19">
    <path d="M 886.8 314.682353 
L 961.2 423.388235 
" clip-path="url(#p595af69d85)" style="fill: none; stroke: #000000; stroke-width: 1.5; stroke-linecap: square"/>
   </g>
   <g id="line2d_20">
    <path d="M 1035.6 205.976471 
L 1184.4 314.682353 
" clip-path="url(#p595af69d85)" style="fill: none; stroke: #000000; stroke-width: 1.5; stroke-linecap: square"/>
   </g>
   <g id="line2d_21">
    <path d="M 1184.4 314.682353 
L 1110 423.388235 
" clip-path="url(#p595af69d85)" style="fill: none; stroke: #000000; stroke-width: 1.5; stroke-linecap: square"/>
   </g>
   <g id="line2d_22">
    <path d="M 1184.4 314.682353 
L 1258.8 423.388235 
" clip-path="url(#p595af69d85)" style="fill: none; stroke: #000000; stroke-width: 1.5; stroke-linecap: square"/>
   </g>
   <g id="text_1">
    <g id="patch_2">
     <path d="M 738 105.109651 
C 740.078944 105.109651 742.073019 104.283678 743.543054 102.813642 
C 745.013089 101.343607 745.839063 99.349532 745.839063 97.270588 
C 745.839063 95.191645 745.013089 93.197569 743.543054 91.727534 
C 742.073019 90.257499 740.078944 89.431526 738 89.431526 
C 735.921056 89.431526 733.926981 90.257499 732.456946 91.727534 
C 730.986911 93.197569 730.160938 95.191645 730.160938 97.270588 
C 730.160938 99.349532 730.986911 101.343607 732.456946 102.813642 
C 733.926981 104.283678 735.921056 105.109651 738 105.109651 
z
" style="fill: #f08080; stroke: #000000; stroke-linejoin: miter"/>
    </g>
    <!-- 1 -->
    <g transform="translate(734.81875 100.029963) scale(0.1 -0.1)">
     <defs>
      <path id="DejaVuSans-31" d="M 794 531 
L 1825 531 
L 1825 4091 
L 703 3866 
L 703 4441 
L 1819 4666 
L 2450 4666 
L 2450 531 
L 3481 531 
L 3481 0 
L 794 0 
L 794 531 
z
" transform="scale(0.015625)"/>
     </defs>
     <use xlink:href="#DejaVuSans-31"/>
    </g>
   </g>
   <g id="text_2">
    <!-- 3 -->
    <g transform="translate(735.455 132.089853) scale(0.08 -0.08)">
     <defs>
      <path id="DejaVuSans-33" d="M 2597 2516 
Q 3050 2419 3304 2112 
Q 3559 1806 3559 1356 
Q 3559 666 3084 287 
Q 2609 -91 1734 -91 
Q 1441 -91 1130 -33 
Q 819 25 488 141 
L 488 750 
Q 750 597 1062 519 
Q 1375 441 1716 441 
Q 2309 441 2620 675 
Q 2931 909 2931 1356 
Q 2931 1769 2642 2001 
Q 2353 2234 1838 2234 
L 1294 2234 
L 1294 2753 
L 1863 2753 
Q 2328 2753 2575 2939 
Q 2822 3125 2822 3475 
Q 2822 3834 2567 4026 
Q 2313 4219 1838 4219 
Q 1578 4219 1281 4162 
Q 984 4106 628 3988 
L 628 4550 
Q 988 4650 1302 4700 
Q 1616 4750 1894 4750 
Q 2613 4750 3031 4423 
Q 3450 4097 3450 3541 
Q 3450 3153 3228 2886 
Q 3006 2619 2597 2516 
z
" transform="scale(0.015625)"/>
     </defs>
     <use xlink:href="#DejaVuSans-33"/>
    </g>
   </g>
   <g id="text_3">
    <g id="patch_3">
     <path d="M 440.4 213.815533 
C 442.478944 213.815533 444.473019 212.98956 445.943054 211.519525 
C 447.413089 210.04949 448.239062 208.055414 448.239062 205.976471 
C 448.239062 203.897527 447.413089 201.903452 445.943054 200.433416 
C 444.473019 198.963381 442.478944 198.137408 440.4 198.137408 
C 438.321056 198.137408 436.326981 198.963381 434.856946 200.433416 
C 433.386911 201.903452 432.560938 203.897527 432.560938 205.976471 
C 432.560938 208.055414 433.386911 210.04949 434.856946 211.519525 
C 436.326981 212.98956 438.321056 213.815533 440.4 213.815533 
z
" style="fill: #f08080; stroke: #000000; stroke-linejoin: miter"/>
    </g>
    <!-- 2 -->
    <g transform="translate(437.21875 208.735846) scale(0.1 -0.1)">
     <defs>
      <path id="DejaVuSans-32" d="M 1228 531 
L 3431 531 
L 3431 0 
L 469 0 
L 469 531 
Q 828 903 1448 1529 
Q 2069 2156 2228 2338 
Q 2531 2678 2651 2914 
Q 2772 3150 2772 3378 
Q 2772 3750 2511 3984 
Q 2250 4219 1831 4219 
Q 1534 4219 1204 4116 
Q 875 4013 500 3803 
L 500 4441 
Q 881 4594 1212 4672 
Q 1544 4750 1819 4750 
Q 2544 4750 2975 4387 
Q 3406 4025 3406 3419 
Q 3406 3131 3298 2873 
Q 3191 2616 2906 2266 
Q 2828 2175 2409 1742 
Q 1991 1309 1228 531 
z
" transform="scale(0.015625)"/>
     </defs>
     <use xlink:href="#DejaVuSans-32"/>
    </g>
   </g>
   <g id="text_4">
    <!-- 5 -->
    <g transform="translate(437.855 240.795735) scale(0.08 -0.08)">
     <defs>
      <path id="DejaVuSans-35" d="M 691 4666 
L 3169 4666 
L 3169 4134 
L 1269 4134 
L 1269 2991 
Q 1406 3038 1543 3061 
Q 1681 3084 1819 3084 
Q 2600 3084 3056 2656 
Q 3513 2228 3513 1497 
Q 3513 744 3044 326 
Q 2575 -91 1722 -91 
Q 1428 -91 1123 -41 
Q 819 9 494 109 
L 494 744 
Q 775 591 1075 516 
Q 1375 441 1709 441 
Q 2250 441 2565 725 
Q 2881 1009 2881 1497 
Q 2881 1984 2565 2268 
Q 2250 2553 1709 2553 
Q 1456 2553 1204 2497 
Q 953 2441 691 2322 
L 691 4666 
z
" transform="scale(0.015625)"/>
     </defs>
     <use xlink:href="#DejaVuSans-35"/>
    </g>
   </g>
   <g id="text_5">
    <g id="patch_4">
     <path d="M 291.6 322.521415 
C 293.678944 322.521415 295.673019 321.695442 297.143054 320.225407 
C 298.613089 318.755372 299.439062 316.761297 299.439062 314.682353 
C 299.439062 312.603409 298.613089 310.609334 297.143054 309.139299 
C 295.673019 307.669264 293.678944 306.84329 291.6 306.84329 
C 289.521056 306.84329 287.526981 307.669264 286.056946 309.139299 
C 284.586911 310.609334 283.760938 312.603409 283.760938 314.682353 
C 283.760938 316.761297 284.586911 318.755372 286.056946 320.225407 
C 287.526981 321.695442 289.521056 322.521415 291.6 322.521415 
z
" style="fill: #add8e6; stroke: #000000; stroke-linejoin: miter"/>
    </g>
    <!-- 4 -->
    <g transform="translate(288.41875 317.441728) scale(0.1 -0.1)">
     <defs>
      <path id="DejaVuSans-34" d="M 2419 4116 
L 825 1625 
L 2419 1625 
L 2419 4116 
z
M 2253 4666 
L 3047 4666 
L 3047 1625 
L 3713 1625 
L 3713 1100 
L 3047 1100 
L 3047 0 
L 2419 0 
L 2419 1100 
L 313 1100 
L 313 1709 
L 2253 4666 
z
" transform="scale(0.015625)"/>
     </defs>
     <use xlink:href="#DejaVuSans-34"/>
    </g>
   </g>
   <g id="text_6">
    <!-- 9 -->
    <g transform="translate(289.055 349.501618) scale(0.08 -0.08)">
     <defs>
      <path id="DejaVuSans-39" d="M 703 97 
L 703 672 
Q 941 559 1184 500 
Q 1428 441 1663 441 
Q 2288 441 2617 861 
Q 2947 1281 2994 2138 
Q 2813 1869 2534 1725 
Q 2256 1581 1919 1581 
Q 1219 1581 811 2004 
Q 403 2428 403 3163 
Q 403 3881 828 4315 
Q 1253 4750 1959 4750 
Q 2769 4750 3195 4129 
Q 3622 3509 3622 2328 
Q 3622 1225 3098 567 
Q 2575 -91 1691 -91 
Q 1453 -91 1209 -44 
Q 966 3 703 97 
z
M 1959 2075 
Q 2384 2075 2632 2365 
Q 2881 2656 2881 3163 
Q 2881 3666 2632 3958 
Q 2384 4250 1959 4250 
Q 1534 4250 1286 3958 
Q 1038 3666 1038 3163 
Q 1038 2656 1286 2365 
Q 1534 2075 1959 2075 
z
" transform="scale(0.015625)"/>
     </defs>
     <use xlink:href="#DejaVuSans-39"/>
    </g>
   </g>
   <g id="text_7">
    <g id="patch_5">
     <path d="M 217.2 431.227298 
C 219.278944 431.227298 221.273019 430.401325 222.743054 428.93129 
C 224.213089 427.461254 225.039062 425.467179 225.039062 423.388235 
C 225.039062 421.309292 224.213089 419.315216 222.743054 417.845181 
C 221.273019 416.375146 219.278944 415.549173 217.2 415.549173 
C 215.121056 415.549173 213.126981 416.375146 211.656946 417.845181 
C 210.186911 419.315216 209.360937 421.309292 209.360937 423.388235 
C 209.360937 425.467179 210.186911 427.461254 211.656946 428.93129 
C 213.126981 430.401325 215.121056 431.227298 217.2 431.227298 
z
" style="fill: #add8e6; stroke: #000000; stroke-linejoin: miter"/>
    </g>
    <!-- 8 -->
    <g transform="translate(214.01875 426.14761) scale(0.1 -0.1)">
     <defs>
      <path id="DejaVuSans-38" d="M 2034 2216 
Q 1584 2216 1326 1975 
Q 1069 1734 1069 1313 
Q 1069 891 1326 650 
Q 1584 409 2034 409 
Q 2484 409 2743 651 
Q 3003 894 3003 1313 
Q 3003 1734 2745 1975 
Q 2488 2216 2034 2216 
z
M 1403 2484 
Q 997 2584 770 2862 
Q 544 3141 544 3541 
Q 544 4100 942 4425 
Q 1341 4750 2034 4750 
Q 2731 4750 3128 4425 
Q 3525 4100 3525 3541 
Q 3525 3141 3298 2862 
Q 3072 2584 2669 2484 
Q 3125 2378 3379 2068 
Q 3634 1759 3634 1313 
Q 3634 634 3220 271 
Q 2806 -91 2034 -91 
Q 1263 -91 848 271 
Q 434 634 434 1313 
Q 434 1759 690 2068 
Q 947 2378 1403 2484 
z
M 1172 3481 
Q 1172 3119 1398 2916 
Q 1625 2713 2034 2713 
Q 2441 2713 2670 2916 
Q 2900 3119 2900 3481 
Q 2900 3844 2670 4047 
Q 2441 4250 2034 4250 
Q 1625 4250 1398 4047 
Q 1172 3844 1172 3481 
z
" transform="scale(0.015625)"/>
     </defs>
     <use xlink:href="#DejaVuSans-38"/>
    </g>
   </g>
   <g id="text_8">
    <!-- 17 -->
    <g transform="translate(212.11 458.2075) scale(0.08 -0.08)">
     <defs>
      <path id="DejaVuSans-37" d="M 525 4666 
L 3525 4666 
L 3525 4397 
L 1831 0 
L 1172 0 
L 2766 4134 
L 525 4134 
L 525 4666 
z
" transform="scale(0.015625)"/>
     </defs>
     <use xlink:href="#DejaVuSans-31"/>
     <use xlink:href="#DejaVuSans-37" transform="translate(63.623047 0)"/>
    </g>
   </g>
   <g id="text_9">
    <g id="patch_6">
     <path d="M 180 541.456618 
C 182.482964 541.456618 184.864567 540.470126 186.620287 538.714405 
C 188.376008 536.958684 189.3625 534.577082 189.3625 532.094118 
C 189.3625 529.611154 188.376008 527.229551 186.620287 525.47383 
C 184.864567 523.71811 182.482964 522.731618 180 522.731618 
C 177.517036 522.731618 175.135433 523.71811 173.379713 525.47383 
C 171.623992 527.229551 170.6375 529.611154 170.6375 532.094118 
C 170.6375 534.577082 171.623992 536.958684 173.379713 538.714405 
C 175.135433 540.470126 177.517036 541.456618 180 541.456618 
z
" style="fill: #add8e6; stroke: #000000; stroke-linejoin: miter"/>
    </g>
    <!-- 16 -->
    <g transform="translate(173.6375 534.853493) scale(0.1 -0.1)">
     <defs>
      <path id="DejaVuSans-36" d="M 2113 2584 
Q 1688 2584 1439 2293 
Q 1191 2003 1191 1497 
Q 1191 994 1439 701 
Q 1688 409 2113 409 
Q 2538 409 2786 701 
Q 3034 994 3034 1497 
Q 3034 2003 2786 2293 
Q 2538 2584 2113 2584 
z
M 3366 4563 
L 3366 3988 
Q 3128 4100 2886 4159 
Q 2644 4219 2406 4219 
Q 1781 4219 1451 3797 
Q 1122 3375 1075 2522 
Q 1259 2794 1537 2939 
Q 1816 3084 2150 3084 
Q 2853 3084 3261 2657 
Q 3669 2231 3669 1497 
Q 3669 778 3244 343 
Q 2819 -91 2113 -91 
Q 1303 -91 875 529 
Q 447 1150 447 2328 
Q 447 3434 972 4092 
Q 1497 4750 2381 4750 
Q 2619 4750 2861 4703 
Q 3103 4656 3366 4563 
z
" transform="scale(0.015625)"/>
     </defs>
     <use xlink:href="#DejaVuSans-31"/>
     <use xlink:href="#DejaVuSans-36" transform="translate(63.623047 0)"/>
    </g>
   </g>
   <g id="text_10">
    <!-- 1 -->
    <g transform="translate(177.455 566.913382) scale(0.08 -0.08)">
     <use xlink:href="#DejaVuSans-31"/>
    </g>
   </g>
   <g id="text_11">
    <g id="patch_7">
     <path d="M 254.4 541.456618 
C 256.882964 541.456618 259.264567 540.470126 261.020287 538.714405 
C 262.776008 536.958684 263.7625 534.577082 263.7625 532.094118 
C 263.7625 529.611154 262.776008 527.229551 261.020287 525.47383 
C 259.264567 523.71811 256.882964 522.731618 254.4 522.731618 
C 251.917036 522.731618 249.535433 523.71811 247.779713 525.47383 
C 246.023992 527.229551 245.0375 529.611154 245.0375 532.094118 
C 245.0375 534.577082 246.023992 536.958684 247.779713 538.714405 
C 249.535433 540.470126 251.917036 541.456618 254.4 541.456618 
z
" style="fill: #add8e6; stroke: #000000; stroke-linejoin: miter"/>
    </g>
    <!-- 17 -->
    <g transform="translate(248.0375 534.853493) scale(0.1 -0.1)">
     <use xlink:href="#DejaVuSans-31"/>
     <use xlink:href="#DejaVuSans-37" transform="translate(63.623047 0)"/>
    </g>
   </g>
   <g id="text_12">
    <!-- 16 -->
    <g transform="translate(249.31 566.913382) scale(0.08 -0.08)">
     <use xlink:href="#DejaVuSans-31"/>
     <use xlink:href="#DejaVuSans-36" transform="translate(63.623047 0)"/>
    </g>
   </g>
   <g id="text_13">
    <g id="patch_8">
     <path d="M 366 431.227298 
C 368.078944 431.227298 370.073019 430.401325 371.543054 428.93129 
C 373.013089 427.461254 373.839063 425.467179 373.839063 423.388235 
C 373.839063 421.309292 373.013089 419.315216 371.543054 417.845181 
C 370.073019 416.375146 368.078944 415.549173 366 415.549173 
C 363.921056 415.549173 361.926981 416.375146 360.456946 417.845181 
C 358.986911 419.315216 358.160938 421.309292 358.160938 423.388235 
C 358.160938 425.467179 358.986911 427.461254 360.456946 428.93129 
C 361.926981 430.401325 363.921056 431.227298 366 431.227298 
z
" style="fill: #add8e6; stroke: #000000; stroke-linejoin: miter"/>
    </g>
    <!-- 9 -->
    <g transform="translate(362.81875 426.14761) scale(0.1 -0.1)">
     <use xlink:href="#DejaVuSans-39"/>
    </g>
   </g>
   <g id="text_14">
    <!-- 19 -->
    <g transform="translate(360.91 458.2075) scale(0.08 -0.08)">
     <use xlink:href="#DejaVuSans-31"/>
     <use xlink:href="#DejaVuSans-39" transform="translate(63.623047 0)"/>
    </g>
   </g>
   <g id="text_15">
    <g id="patch_9">
     <path d="M 328.8 541.456618 
C 331.282964 541.456618 333.664567 540.470126 335.420287 538.714405 
C 337.176008 536.958684 338.1625 534.577082 338.1625 532.094118 
C 338.1625 529.611154 337.176008 527.229551 335.420287 525.47383 
C 333.664567 523.71811 331.282964 522.731618 328.8 522.731618 
C 326.317036 522.731618 323.935433 523.71811 322.179713 525.47383 
C 320.423992 527.229551 319.4375 529.611154 319.4375 532.094118 
C 319.4375 534.577082 320.423992 536.958684 322.179713 538.714405 
C 323.935433 540.470126 326.317036 541.456618 328.8 541.456618 
z
" style="fill: #add8e6; stroke: #000000; stroke-linejoin: miter"/>
    </g>
    <!-- 18 -->
    <g transform="translate(322.4375 534.853493) scale(0.1 -0.1)">
     <use xlink:href="#DejaVuSans-31"/>
     <use xlink:href="#DejaVuSans-38" transform="translate(63.623047 0)"/>
    </g>
   </g>
   <g id="text_16">
    <!-- 8 -->
    <g transform="translate(326.255 566.913382) scale(0.08 -0.08)">
     <use xlink:href="#DejaVuSans-38"/>
    </g>
   </g>
   <g id="text_17">
    <g id="patch_10">
     <path d="M 403.2 541.456618 
C 405.682964 541.456618 408.064567 540.470126 409.820287 538.714405 
C 411.576008 536.958684 412.5625 534.577082 412.5625 532.094118 
C 412.5625 529.611154 411.576008 527.229551 409.820287 525.47383 
C 408.064567 523.71811 405.682964 522.731618 403.2 522.731618 
C 400.717036 522.731618 398.335433 523.71811 396.579713 525.47383 
C 394.823992 527.229551 393.8375 529.611154 393.8375 532.094118 
C 393.8375 534.577082 394.823992 536.958684 396.579713 538.714405 
C 398.335433 540.470126 400.717036 541.456618 403.2 541.456618 
z
" style="fill: #add8e6; stroke: #000000; stroke-linejoin: miter"/>
    </g>
    <!-- 19 -->
    <g transform="translate(396.8375 534.853493) scale(0.1 -0.1)">
     <use xlink:href="#DejaVuSans-31"/>
     <use xlink:href="#DejaVuSans-39" transform="translate(63.623047 0)"/>
    </g>
   </g>
   <g id="text_18">
    <!-- 18 -->
    <g transform="translate(398.11 566.913382) scale(0.08 -0.08)">
     <use xlink:href="#DejaVuSans-31"/>
     <use xlink:href="#DejaVuSans-38" transform="translate(63.623047 0)"/>
    </g>
   </g>
   <g id="text_19">
    <g id="patch_11">
     <path d="M 589.2 322.521415 
C 591.278944 322.521415 593.273019 321.695442 594.743054 320.225407 
C 596.213089 318.755372 597.039063 316.761297 597.039063 314.682353 
C 597.039063 312.603409 596.213089 310.609334 594.743054 309.139299 
C 593.273019 307.669264 591.278944 306.84329 589.2 306.84329 
C 587.121056 306.84329 585.126981 307.669264 583.656946 309.139299 
C 582.186911 310.609334 581.360938 312.603409 581.360938 314.682353 
C 581.360938 316.761297 582.186911 318.755372 583.656946 320.225407 
C 585.126981 321.695442 587.121056 322.521415 589.2 322.521415 
z
" style="fill: #f08080; stroke: #000000; stroke-linejoin: miter"/>
    </g>
    <!-- 5 -->
    <g transform="translate(586.01875 317.441728) scale(0.1 -0.1)">
     <use xlink:href="#DejaVuSans-35"/>
    </g>
   </g>
   <g id="text_20">
    <!-- 11 -->
    <g transform="translate(584.11 349.501618) scale(0.08 -0.08)">
     <use xlink:href="#DejaVuSans-31"/>
     <use xlink:href="#DejaVuSans-31" transform="translate(63.623047 0)"/>
    </g>
   </g>
   <g id="text_21">
    <g id="patch_12">
     <path d="M 514.8 432.750735 
C 517.282964 432.750735 519.664567 431.764243 521.420287 430.008523 
C 523.176008 428.252802 524.1625 425.871199 524.1625 423.388235 
C 524.1625 420.905271 523.176008 418.523669 521.420287 416.767948 
C 519.664567 415.012227 517.282964 414.025735 514.8 414.025735 
C 512.317036 414.025735 509.935433 415.012227 508.179713 416.767948 
C 506.423992 418.523669 505.4375 420.905271 505.4375 423.388235 
C 505.4375 425.871199 506.423992 428.252802 508.179713 430.008523 
C 509.935433 431.764243 512.317036 432.750735 514.8 432.750735 
z
" style="fill: #add8e6; stroke: #000000; stroke-linejoin: miter"/>
    </g>
    <!-- 10 -->
    <g transform="translate(508.4375 426.14761) scale(0.1 -0.1)">
     <defs>
      <path id="DejaVuSans-30" d="M 2034 4250 
Q 1547 4250 1301 3770 
Q 1056 3291 1056 2328 
Q 1056 1369 1301 889 
Q 1547 409 2034 409 
Q 2525 409 2770 889 
Q 3016 1369 3016 2328 
Q 3016 3291 2770 3770 
Q 2525 4250 2034 4250 
z
M 2034 4750 
Q 2819 4750 3233 4129 
Q 3647 3509 3647 2328 
Q 3647 1150 3233 529 
Q 2819 -91 2034 -91 
Q 1250 -91 836 529 
Q 422 1150 422 2328 
Q 422 3509 836 4129 
Q 1250 4750 2034 4750 
z
" transform="scale(0.015625)"/>
     </defs>
     <use xlink:href="#DejaVuSans-31"/>
     <use xlink:href="#DejaVuSans-30" transform="translate(63.623047 0)"/>
    </g>
   </g>
   <g id="text_22">
    <!-- 21 -->
    <g transform="translate(509.71 458.2075) scale(0.08 -0.08)">
     <use xlink:href="#DejaVuSans-32"/>
     <use xlink:href="#DejaVuSans-31" transform="translate(63.623047 0)"/>
    </g>
   </g>
   <g id="text_23">
    <g id="patch_13">
     <path d="M 477.6 541.456618 
C 480.082964 541.456618 482.464567 540.470126 484.220287 538.714405 
C 485.976008 536.958684 486.9625 534.577082 486.9625 532.094118 
C 486.9625 529.611154 485.976008 527.229551 484.220287 525.47383 
C 482.464567 523.71811 480.082964 522.731618 477.6 522.731618 
C 475.117036 522.731618 472.735433 523.71811 470.979713 525.47383 
C 469.223992 527.229551 468.2375 529.611154 468.2375 532.094118 
C 468.2375 534.577082 469.223992 536.958684 470.979713 538.714405 
C 472.735433 540.470126 475.117036 541.456618 477.6 541.456618 
z
" style="fill: #add8e6; stroke: #000000; stroke-linejoin: miter"/>
    </g>
    <!-- 20 -->
    <g transform="translate(471.2375 534.853493) scale(0.1 -0.1)">
     <use xlink:href="#DejaVuSans-32"/>
     <use xlink:href="#DejaVuSans-30" transform="translate(63.623047 0)"/>
    </g>
   </g>
   <g id="text_24">
    <!-- 4 -->
    <g transform="translate(475.055 566.913382) scale(0.08 -0.08)">
     <use xlink:href="#DejaVuSans-34"/>
    </g>
   </g>
   <g id="text_25">
    <g id="patch_14">
     <path d="M 552 541.456618 
C 554.482964 541.456618 556.864567 540.470126 558.620287 538.714405 
C 560.376008 536.958684 561.3625 534.577082 561.3625 532.094118 
C 561.3625 529.611154 560.376008 527.229551 558.620287 525.47383 
C 556.864567 523.71811 554.482964 522.731618 552 522.731618 
C 549.517036 522.731618 547.135433 523.71811 545.379713 525.47383 
C 543.623992 527.229551 542.6375 529.611154 542.6375 532.094118 
C 542.6375 534.577082 543.623992 536.958684 545.379713 538.714405 
C 547.135433 540.470126 549.517036 541.456618 552 541.456618 
z
" style="fill: #add8e6; stroke: #000000; stroke-linejoin: miter"/>
    </g>
    <!-- 21 -->
    <g transform="translate(545.6375 534.853493) scale(0.1 -0.1)">
     <use xlink:href="#DejaVuSans-32"/>
     <use xlink:href="#DejaVuSans-31" transform="translate(63.623047 0)"/>
    </g>
   </g>
   <g id="text_26">
    <!-- 20 -->
    <g transform="translate(546.91 566.913382) scale(0.08 -0.08)">
     <use xlink:href="#DejaVuSans-32"/>
     <use xlink:href="#DejaVuSans-30" transform="translate(63.623047 0)"/>
    </g>
   </g>
   <g id="text_27">
    <g id="patch_15">
     <path d="M 663.6 432.750735 
C 666.082964 432.750735 668.464567 431.764243 670.220287 430.008523 
C 671.976008 428.252802 672.9625 425.871199 672.9625 423.388235 
C 672.9625 420.905271 671.976008 418.523669 670.220287 416.767948 
C 668.464567 415.012227 666.082964 414.025735 663.6 414.025735 
C 661.117036 414.025735 658.735433 415.012227 656.979713 416.767948 
C 655.223992 418.523669 654.2375 420.905271 654.2375 423.388235 
C 654.2375 425.871199 655.223992 428.252802 656.979713 430.008523 
C 658.735433 431.764243 661.117036 432.750735 663.6 432.750735 
z
" style="fill: #f08080; stroke: #000000; stroke-linejoin: miter"/>
    </g>
    <!-- 11 -->
    <g transform="translate(657.2375 426.14761) scale(0.1 -0.1)">
     <use xlink:href="#DejaVuSans-31"/>
     <use xlink:href="#DejaVuSans-31" transform="translate(63.623047 0)"/>
    </g>
   </g>
   <g id="text_28">
    <!-- 23 -->
    <g transform="translate(658.51 458.2075) scale(0.08 -0.08)">
     <use xlink:href="#DejaVuSans-32"/>
     <use xlink:href="#DejaVuSans-33" transform="translate(63.623047 0)"/>
    </g>
   </g>
   <g id="text_29">
    <g id="patch_16">
     <path d="M 626.4 541.456618 
C 628.882964 541.456618 631.264567 540.470126 633.020287 538.714405 
C 634.776008 536.958684 635.7625 534.577082 635.7625 532.094118 
C 635.7625 529.611154 634.776008 527.229551 633.020287 525.47383 
C 631.264567 523.71811 628.882964 522.731618 626.4 522.731618 
C 623.917036 522.731618 621.535433 523.71811 619.779713 525.47383 
C 618.023992 527.229551 617.0375 529.611154 617.0375 532.094118 
C 617.0375 534.577082 618.023992 536.958684 619.779713 538.714405 
C 621.535433 540.470126 623.917036 541.456618 626.4 541.456618 
z
" style="fill: #add8e6; stroke: #000000; stroke-linejoin: miter"/>
    </g>
    <!-- 22 -->
    <g transform="translate(620.0375 534.853493) scale(0.1 -0.1)">
     <use xlink:href="#DejaVuSans-32"/>
     <use xlink:href="#DejaVuSans-32" transform="translate(63.623047 0)"/>
    </g>
   </g>
   <g id="text_30">
    <!-- 10 -->
    <g transform="translate(621.31 566.913382) scale(0.08 -0.08)">
     <use xlink:href="#DejaVuSans-31"/>
     <use xlink:href="#DejaVuSans-30" transform="translate(63.623047 0)"/>
    </g>
   </g>
   <g id="text_31">
    <g id="patch_17">
     <path d="M 700.8 541.456618 
C 703.282964 541.456618 705.664567 540.470126 707.420287 538.714405 
C 709.176008 536.958684 710.1625 534.577082 710.1625 532.094118 
C 710.1625 529.611154 709.176008 527.229551 707.420287 525.47383 
C 705.664567 523.71811 703.282964 522.731618 700.8 522.731618 
C 698.317036 522.731618 695.935433 523.71811 694.179713 525.47383 
C 692.423992 527.229551 691.4375 529.611154 691.4375 532.094118 
C 691.4375 534.577082 692.423992 536.958684 694.179713 538.714405 
C 695.935433 540.470126 698.317036 541.456618 700.8 541.456618 
z
" style="fill: #add8e6; stroke: #000000; stroke-linejoin: miter"/>
    </g>
    <!-- 23 -->
    <g transform="translate(694.4375 534.853493) scale(0.1 -0.1)">
     <use xlink:href="#DejaVuSans-32"/>
     <use xlink:href="#DejaVuSans-33" transform="translate(63.623047 0)"/>
    </g>
   </g>
   <g id="text_32">
    <!-- 22 -->
    <g transform="translate(695.71 566.913382) scale(0.08 -0.08)">
     <use xlink:href="#DejaVuSans-32"/>
     <use xlink:href="#DejaVuSans-32" transform="translate(63.623047 0)"/>
    </g>
   </g>
   <g id="text_33">
    <g id="patch_18">
     <path d="M 1035.6 213.815533 
C 1037.678944 213.815533 1039.673019 212.98956 1041.143054 211.519525 
C 1042.613089 210.04949 1043.439062 208.055414 1043.439062 205.976471 
C 1043.439062 203.897527 1042.613089 201.903452 1041.143054 200.433416 
C 1039.673019 198.963381 1037.678944 198.137408 1035.6 198.137408 
C 1033.521056 198.137408 1031.526981 198.963381 1030.056946 200.433416 
C 1028.586911 201.903452 1027.760937 203.897527 1027.760937 205.976471 
C 1027.760937 208.055414 1028.586911 210.04949 1030.056946 211.519525 
C 1031.526981 212.98956 1033.521056 213.815533 1035.6 213.815533 
z
" style="fill: #add8e6; stroke: #000000; stroke-linejoin: miter"/>
    </g>
    <!-- 3 -->
    <g transform="translate(1032.41875 208.735846) scale(0.1 -0.1)">
     <use xlink:href="#DejaVuSans-33"/>
    </g>
   </g>
   <g id="text_34">
    <!-- 7 -->
    <g transform="translate(1033.055 240.795735) scale(0.08 -0.08)">
     <use xlink:href="#DejaVuSans-37"/>
    </g>
   </g>
   <g id="text_35">
    <g id="patch_19">
     <path d="M 886.8 322.521415 
C 888.878944 322.521415 890.873019 321.695442 892.343054 320.225407 
C 893.813089 318.755372 894.639063 316.761297 894.639063 314.682353 
C 894.639063 312.603409 893.813089 310.609334 892.343054 309.139299 
C 890.873019 307.669264 888.878944 306.84329 886.8 306.84329 
C 884.721056 306.84329 882.726981 307.669264 881.256946 309.139299 
C 879.786911 310.609334 878.960938 312.603409 878.960938 314.682353 
C 878.960938 316.761297 879.786911 318.755372 881.256946 320.225407 
C 882.726981 321.695442 884.721056 322.521415 886.8 322.521415 
z
" style="fill: #add8e6; stroke: #000000; stroke-linejoin: miter"/>
    </g>
    <!-- 6 -->
    <g transform="translate(883.61875 317.441728) scale(0.1 -0.1)">
     <use xlink:href="#DejaVuSans-36"/>
    </g>
   </g>
   <g id="text_36">
    <!-- 13 -->
    <g transform="translate(881.71 349.501618) scale(0.08 -0.08)">
     <use xlink:href="#DejaVuSans-31"/>
     <use xlink:href="#DejaVuSans-33" transform="translate(63.623047 0)"/>
    </g>
   </g>
   <g id="text_37">
    <g id="patch_20">
     <path d="M 812.4 432.750735 
C 814.882964 432.750735 817.264567 431.764243 819.020287 430.008523 
C 820.776008 428.252802 821.7625 425.871199 821.7625 423.388235 
C 821.7625 420.905271 820.776008 418.523669 819.020287 416.767948 
C 817.264567 415.012227 814.882964 414.025735 812.4 414.025735 
C 809.917036 414.025735 807.535433 415.012227 805.779713 416.767948 
C 804.023992 418.523669 803.0375 420.905271 803.0375 423.388235 
C 803.0375 425.871199 804.023992 428.252802 805.779713 430.008523 
C 807.535433 431.764243 809.917036 432.750735 812.4 432.750735 
z
" style="fill: #add8e6; stroke: #000000; stroke-linejoin: miter"/>
    </g>
    <!-- 12 -->
    <g transform="translate(806.0375 426.14761) scale(0.1 -0.1)">
     <use xlink:href="#DejaVuSans-31"/>
     <use xlink:href="#DejaVuSans-32" transform="translate(63.623047 0)"/>
    </g>
   </g>
   <g id="text_38">
    <!-- 2 -->
    <g transform="translate(809.855 458.2075) scale(0.08 -0.08)">
     <use xlink:href="#DejaVuSans-32"/>
    </g>
   </g>
   <g id="text_39">
    <g id="patch_21">
     <path d="M 961.2 432.750735 
C 963.682964 432.750735 966.064567 431.764243 967.820287 430.008523 
C 969.576008 428.252802 970.5625 425.871199 970.5625 423.388235 
C 970.5625 420.905271 969.576008 418.523669 967.820287 416.767948 
C 966.064567 415.012227 963.682964 414.025735 961.2 414.025735 
C 958.717036 414.025735 956.335433 415.012227 954.579713 416.767948 
C 952.823992 418.523669 951.8375 420.905271 951.8375 423.388235 
C 951.8375 425.871199 952.823992 428.252802 954.579713 430.008523 
C 956.335433 431.764243 958.717036 432.750735 961.2 432.750735 
z
" style="fill: #add8e6; stroke: #000000; stroke-linejoin: miter"/>
    </g>
    <!-- 13 -->
    <g transform="translate(954.8375 426.14761) scale(0.1 -0.1)">
     <use xlink:href="#DejaVuSans-31"/>
     <use xlink:href="#DejaVuSans-33" transform="translate(63.623047 0)"/>
    </g>
   </g>
   <g id="text_40">
    <!-- 12 -->
    <g transform="translate(956.11 458.2075) scale(0.08 -0.08)">
     <use xlink:href="#DejaVuSans-31"/>
     <use xlink:href="#DejaVuSans-32" transform="translate(63.623047 0)"/>
    </g>
   </g>
   <g id="text_41">
    <g id="patch_22">
     <path d="M 1184.4 322.521415 
C 1186.478944 322.521415 1188.473019 321.695442 1189.943054 320.225407 
C 1191.413089 318.755372 1192.239063 316.761297 1192.239063 314.682353 
C 1192.239063 312.603409 1191.413089 310.609334 1189.943054 309.139299 
C 1188.473019 307.669264 1186.478944 306.84329 1184.4 306.84329 
C 1182.321056 306.84329 1180.326981 307.669264 1178.856946 309.139299 
C 1177.386911 310.609334 1176.560937 312.603409 1176.560937 314.682353 
C 1176.560937 316.761297 1177.386911 318.755372 1178.856946 320.225407 
C 1180.326981 321.695442 1182.321056 322.521415 1184.4 322.521415 
z
" style="fill: #add8e6; stroke: #000000; stroke-linejoin: miter"/>
    </g>
    <!-- 7 -->
    <g transform="translate(1181.21875 317.441728) scale(0.1 -0.1)">
     <use xlink:href="#DejaVuSans-37"/>
    </g>
   </g>
   <g id="text_42">
    <!-- 15 -->
    <g transform="translate(1179.31 349.501618) scale(0.08 -0.08)">
     <use xlink:href="#DejaVuSans-31"/>
     <use xlink:href="#DejaVuSans-35" transform="translate(63.623047 0)"/>
    </g>
   </g>
   <g id="text_43">
    <g id="patch_23">
     <path d="M 1110 432.750735 
C 1112.482964 432.750735 1114.864567 431.764243 1116.620287 430.008523 
C 1118.376008 428.252802 1119.3625 425.871199 1119.3625 423.388235 
C 1119.3625 420.905271 1118.376008 418.523669 1116.620287 416.767948 
C 1114.864567 415.012227 1112.482964 414.025735 1110 414.025735 
C 1107.517036 414.025735 1105.135433 415.012227 1103.379713 416.767948 
C 1101.623992 418.523669 1100.6375 420.905271 1100.6375 423.388235 
C 1100.6375 425.871199 1101.623992 428.252802 1103.379713 430.008523 
C 1105.135433 431.764243 1107.517036 432.750735 1110 432.750735 
z
" style="fill: #add8e6; stroke: #000000; stroke-linejoin: miter"/>
    </g>
    <!-- 14 -->
    <g transform="translate(1103.6375 426.14761) scale(0.1 -0.1)">
     <use xlink:href="#DejaVuSans-31"/>
     <use xlink:href="#DejaVuSans-34" transform="translate(63.623047 0)"/>
    </g>
   </g>
   <g id="text_44">
    <!-- 6 -->
    <g transform="translate(1107.455 458.2075) scale(0.08 -0.08)">
     <use xlink:href="#DejaVuSans-36"/>
    </g>
   </g>
   <g id="text_45">
    <g id="patch_24">
     <path d="M 1258.8 432.750735 
C 1261.282964 432.750735 1263.664567 431.764243 1265.420287 430.008523 
C 1267.176008 428.252802 1268.1625 425.871199 1268.1625 423.388235 
C 1268.1625 420.905271 1267.176008 418.523669 1265.420287 416.767948 
C 1263.664567 415.012227 1261.282964 414.025735 1258.8 414.025735 
C 1256.317036 414.025735 1253.935433 415.012227 1252.179713 416.767948 
C 1250.423992 418.523669 1249.4375 420.905271 1249.4375 423.388235 
C 1249.4375 425.871199 1250.423992 428.252802 1252.179713 430.008523 
C 1253.935433 431.764243 1256.317036 432.750735 1258.8 432.750735 
z
" style="fill: #add8e6; stroke: #000000; stroke-linejoin: miter"/>
    </g>
    <!-- 15 -->
    <g transform="translate(1252.4375 426.14761) scale(0.1 -0.1)">
     <use xlink:href="#DejaVuSans-31"/>
     <use xlink:href="#DejaVuSans-35" transform="translate(63.623047 0)"/>
    </g>
   </g>
   <g id="text_46">
    <!-- 14 -->
    <g transform="translate(1253.71 458.2075) scale(0.08 -0.08)">
     <use xlink:href="#DejaVuSans-31"/>
     <use xlink:href="#DejaVuSans-34" transform="translate(63.623047 0)"/>
    </g>
   </g>
  </g>
 </g>
 <defs>
  <clipPath id="p595af69d85">
   <rect x="180" y="86.4" width="1116" height="554.4"/>
  </clipPath>
 </defs>
</svg>
