<?xml version="1.0" encoding="utf-8" standalone="no"?>
<!DOCTYPE svg PUBLIC "-//W3C//DTD SVG 1.1//EN"
  "http://www.w3.org/Graphics/SVG/1.1/DTD/svg11.dtd">
<svg xmlns:xlink="http://www.w3.org/1999/xlink" width="1440pt" height="720pt" viewBox="0 0 1440 720" xmlns="http://www.w3.org/2000/svg" version="1.1">
 <metadata>
  <rdf:RDF xmlns:dc="http://purl.org/dc/elements/1.1/" xmlns:cc="http://creativecommons.org/ns#" xmlns:rdf="http://www.w3.org/1999/02/22-rdf-syntax-ns#">
   <cc:Work>
    <dc:type rdf:resource="http://purl.org/dc/dcmitype/StillImage"/>
    <dc:date>2026-04-10T16:30:10.288391</dc:date>
    <dc:format>image/svg+xml</dc:format>
    <dc:creator>
     <cc:Agent>
      <dc:title>Matplotlib v3.10.8, https://matplotlib.org/</dc:title>
     </cc:Agent>
    </dc:creator>
   </cc:Work>
  </rdf:RDF>
 </metadata>
 <defs>
  <style type="text/css">*{stroke-linejoin: round; stroke-linecap: butt}</style>
 </defs>
 <g id="figure_1">
  <g id="patch_1">
   <path d="M 0 720 
L 1440 720 
L 1440 0 
L 0 0 
z
" style="fill: #ffffff"/>
  </g>
  <g id="axes_1">
   <g id="line2d_1">
    <path d="M 738 97.270588 
L 440.4 205.976471 
" clip-path="url(#p349c195706)" style="fill: none; stroke: #000000; stroke-width: 1.5; stroke-linecap: square"/>
   </g>
   <g id="line2d_2">
    <path d="M 440.4 205.976471 
L 291.6 314.682353 
" clip-path="url(#p349c195706)" style="fill: none; stroke: #000000; stroke-width: 1.5; stroke-linecap: square"/>
   </g>
   <g id="line2d_3">
    <path d="M 440.4 205.976471 
L 589.2 314.682353 
" clip-path="url(#p349c195706)" style="fill: none; stroke: #000000; stroke-width: 1.5; stroke-linecap: square"/>
   </g>
   <g id="line2d_4">
    <path d="M 738 97.270588 
L 1035.6 205.976471 
" clip-path="url(#p349c195706)" style="fill: none; stroke: #000000; stroke-width: 1.5; stroke-linecap: square"/>
   </g>
   <g id="line2d_5">
    <path d="M 1035.6 205.976471 
L 886.8 314.682353 
" clip-path="url(#p349c195706)" style="fill: none; stroke: #000000; stroke-width: 1.5; stroke-linecap: square"/>
   </g>
   <g id="line2d_6">
    <path d="M 1035.6 205.976471 
L 1184.4 314.682353 
" clip-path="url(#p349c195706)" style="fill: none; stroke: #000000; stroke-width: 1.5; stroke-linecap: square"/>
   </g>
   <g id="text_1">
    <g id="patch_2">
     <path d="M 738 105.109651 
C 740.078944 105.109651 742.073019 104.283678 743.543054 102.813642 
C 745.013089 101.343607 745.839063 99.349532 745.839063 97.270588 
C 745.839063 95.191645 745.013089 93.197569 743.543054 91.727534 
C 742.073019 90.257499 740.078944 89.431526 738 89.431526 
C 735.921056 89.431526 733.926981 90.257499 732.456946 91.727534 
C 730.986911 93.197569 730.160938 95.191645 730.160938 97.270588 
C 730.160938 99.349532 730.986911 101.343607 732.456946 102.813642 
C 733.926981 104.283678 735.921056 105.109651 738 105.109651 
z
" style="fill: #f08080; stroke: #000000; stroke-linejoin: miter"/>
    </g>
    <!-- 1 -->
    <g transform="translate(734.81875 100.029963) scale(0.1 -0.1)">
     <defs>
      <path id="DejaVuSans-31" d="M 794 531 
L 1825 531 
L 1825 4091 
L 703 3866 
L 703 4441 
L 1819 4666 
L 2450 4666 
L 2450 531 
L 3481 531 
L 3481 0 
L 794 0 
L 794 531 
z
" transform="scale(0.015625)"/>
     </defs>
     <use xlink:href="#DejaVuSans-31"/>
    </g>
   </g>
   <g id="text_2">
    <!-- 3 -->
    <g transform="translate(735.455 132.089853) scale(0.08 -0.08)">
     <defs>
      <path id="DejaVuSans-33" d="M 2597 2516 
Q 3050 2419 3304 2112 
Q 3559 1806 3559 1356 
Q 3559 666 3084 287 
Q 2609 -91 1734 -91 
Q 1441 -91 1130 -33 
Q 819 25 488 141 
L 488 750 
Q 750 597 1062 519 
Q 1375 441 1716 441 
Q 2309 441 2620 675 
Q 2931 909 2931 1356 
Q 2931 1769 2642 2001 
Q 2353 2234 1838 2234 
L 1294 2234 
L 1294 2753 
L 1863 2753 
Q 2328 2753 2575 2939 
Q 2822 3125 2822 3475 
Q 2822 3834 2567 4026 
Q 2313 4219 1838 4219 
Q 1578 4219 1281 4162 
Q 984 4106 628 3988 
L 628 4550 
Q 988 4650 1302 4700 
Q 1616 4750 1894 4750 
Q 2613 4750 3031 4423 
Q 3450 4097 3450 3541 
Q 3450 3153 3228 2886 
Q 3006 2619 2597 2516 
z
" transform="scale(0.015625)"/>
     </defs>
     <use xlink:href="#DejaVuSans-33"/>
    </g>
   </g>
   <g id="text_3">
    <g id="patch_3">
     <path d="M 440.4 213.815533 
C 442.478944 213.815533 444.473019 212.98956 445.943054 211.519525 
C 447.413089 210.04949 448.239062 208.055414 448.239062 205.976471 
C 448.239062 203.897527 447.413089 201.903452 445.943054 200.433416 
C 444.473019 198.963381 442.478944 198.137408 440.4 198.137408 
C 438.321056 198.137408 436.326981 198.963381 434.856946 200.433416 
C 433.386911 201.903452 432.560938 203.897527 432.560938 205.976471 
C 432.560938 208.055414 433.386911 210.04949 434.856946 211.519525 
C 436.326981 212.98956 438.321056 213.815533 440.4 213.815533 
z
" style="fill: #add8e6; stroke: #000000; stroke-linejoin: miter"/>
    </g>
    <!-- 2 -->
    <g transform="translate(437.21875 208.735846) scale(0.1 -0.1)">
     <defs>
      <path id="DejaVuSans-32" d="M 1228 531 
L 3431 531 
L 3431 0 
L 469 0 
L 469 531 
Q 828 903 1448 1529 
Q 2069 2156 2228 2338 
Q 2531 2678 2651 2914 
Q 2772 3150 2772 3378 
Q 2772 3750 2511 3984 
Q 2250 4219 1831 4219 
Q 1534 4219 1204 4116 
Q 875 4013 500 3803 
L 500 4441 
Q 881 4594 1212 4672 
Q 1544 4750 1819 4750 
Q 2544 4750 2975 4387 
Q 3406 4025 3406 3419 
Q 3406 3131 3298 2873 
Q 3191 2616 2906 2266 
Q 2828 2175 2409 1742 
Q 1991 1309 1228 531 
z
" transform="scale(0.015625)"/>
     </defs>
     <use xlink:href="#DejaVuSans-32"/>
    </g>
   </g>
   <g id="text_4">
    <!-- 5 -->
    <g transform="translate(437.855 240.795735) scale(0.08 -0.08)">
     <defs>
      <path id="DejaVuSans-35" d="M 691 4666 
L 3169 4666 
L 3169 4134 
L 1269 4134 
L 1269 2991 
Q 1406 3038 1543 3061 
Q 1681 3084 1819 3084 
Q 2600 3084 3056 2656 
Q 3513 2228 3513 1497 
Q 3513 744 3044 326 
Q 2575 -91 1722 -91 
Q 1428 -91 1123 -41 
Q 819 9 494 109 
L 494 744 
Q 775 591 1075 516 
Q 1375 441 1709 441 
Q 2250 441 2565 725 
Q 2881 1009 2881 1497 
Q 2881 1984 2565 2268 
Q 2250 2553 1709 2553 
Q 1456 2553 1204 2497 
Q 953 2441 691 2322 
L 691 4666 
z
" transform="scale(0.015625)"/>
     </defs>
     <use xlink:href="#DejaVuSans-35"/>
    </g>
   </g>
   <g id="text_5">
    <g id="patch_4">
     <path d="M 291.6 322.521415 
C 293.678944 322.521415 295.673019 321.695442 297.143054 320.225407 
C 298.613089 318.755372 299.439062 316.761297 299.439062 314.682353 
C 299.439062 312.603409 298.613089 310.609334 297.143054 309.139299 
C 295.673019 307.669264 293.678944 306.84329 291.6 306.84329 
C 289.521056 306.84329 287.526981 307.669264 286.056946 309.139299 
C 284.586911 310.609334 283.760938 312.603409 283.760938 314.682353 
C 283.760938 316.761297 284.586911 318.755372 286.056946 320.225407 
C 287.526981 321.695442 289.521056 322.521415 291.6 322.521415 
z
" style="fill: #add8e6; stroke: #000000; stroke-linejoin: miter"/>
    </g>
    <!-- 4 -->
    <g transform="translate(288.41875 317.441728) scale(0.1 -0.1)">
     <defs>
      <path id="DejaVuSans-34" d="M 2419 4116 
L 825 1625 
L 2419 1625 
L 2419 4116 
z
M 2253 4666 
L 3047 4666 
L 3047 1625 
L 3713 1625 
L 3713 1100 
L 3047 1100 
L 3047 0 
L 2419 0 
L 2419 1100 
L 313 1100 
L 313 1709 
L 2253 4666 
z
" transform="scale(0.015625)"/>
     </defs>
     <use xlink:href="#DejaVuSans-34"/>
    </g>
   </g>
   <g id="text_6">
    <!-- 1 -->
    <g transform="translate(289.055 349.501618) scale(0.08 -0.08)">
     <use xlink:href="#DejaVuSans-31"/>
    </g>
   </g>
   <g id="text_7">
    <g id="patch_5">
     <path d="M 589.2 322.521415 
C 591.278944 322.521415 593.273019 321.695442 594.743054 320.225407 
C 596.213089 318.755372 597.039063 316.761297 597.039063 314.682353 
C 597.039063 312.603409 596.213089 310.609334 594.743054 309.139299 
C 593.273019 307.669264 591.278944 306.84329 589.2 306.84329 
C 587.121056 306.84329 585.126981 307.669264 583.656946 309.139299 
C 582.186911 310.609334 581.360938 312.603409 581.360938 314.682353 
C 581.360938 316.761297 582.186911 318.755372 583.656946 320.225407 
C 585.126981 321.695442 587.121056 322.521415 589.2 322.521415 
z
" style="fill: #add8e6; stroke: #000000; stroke-linejoin: miter"/>
    </g>
    <!-- 5 -->
    <g transform="translate(586.01875 317.441728) scale(0.1 -0.1)">
     <use xlink:href="#DejaVuSans-35"/>
    </g>
   </g>
   <g id="text_8">
    <!-- 4 -->
    <g transform="translate(586.655 349.501618) scale(0.08 -0.08)">
     <use xlink:href="#DejaVuSans-34"/>
    </g>
   </g>
   <g id="text_9">
    <g id="patch_6">
     <path d="M 1035.6 213.815533 
C 1037.678944 213.815533 1039.673019 212.98956 1041.143054 211.519525 
C 1042.613089 210.04949 1043.439062 208.055414 1043.439062 205.976471 
C 1043.439062 203.897527 1042.613089 201.903452 1041.143054 200.433416 
C 1039.673019 198.963381 1037.678944 198.137408 1035.6 198.137408 
C 1033.521056 198.137408 1031.526981 198.963381 1030.056946 200.433416 
C 1028.586911 201.903452 1027.760937 203.897527 1027.760937 205.976471 
C 1027.760937 208.055414 1028.586911 210.04949 1030.056946 211.519525 
C 1031.526981 212.98956 1033.521056 213.815533 1035.6 213.815533 
z
" style="fill: #f08080; stroke: #000000; stroke-linejoin: miter"/>
    </g>
    <!-- 3 -->
    <g transform="translate(1032.41875 208.735846) scale(0.1 -0.1)">
     <use xlink:href="#DejaVuSans-33"/>
    </g>
   </g>
   <g id="text_10">
    <!-- 7 -->
    <g transform="translate(1033.055 240.795735) scale(0.08 -0.08)">
     <defs>
      <path id="DejaVuSans-37" d="M 525 4666 
L 3525 4666 
L 3525 4397 
L 1831 0 
L 1172 0 
L 2766 4134 
L 525 4134 
L 525 4666 
z
" transform="scale(0.015625)"/>
     </defs>
     <use xlink:href="#DejaVuSans-37"/>
    </g>
   </g>
   <g id="text_11">
    <g id="patch_7">
     <path d="M 886.8 322.521415 
C 888.878944 322.521415 890.873019 321.695442 892.343054 320.225407 
C 893.813089 318.755372 894.639063 316.761297 894.639063 314.682353 
C 894.639063 312.603409 893.813089 310.609334 892.343054 309.139299 
C 890.873019 307.669264 888.878944 306.84329 886.8 306.84329 
C 884.721056 306.84329 882.726981 307.669264 881.256946 309.139299 
C 879.786911 310.609334 878.960938 312.603409 878.960938 314.682353 
C 878.960938 316.761297 879.786911 318.755372 881.256946 320.225407 
C 882.726981 321.695442 884.721056 322.521415 886.8 322.521415 
z
" style="fill: #add8e6; stroke: #000000; stroke-linejoin: miter"/>
    </g>
    <!-- 6 -->
    <g transform="translate(883.61875 317.441728) scale(0.1 -0.1)">
     <defs>
      <path id="DejaVuSans-36" d="M 2113 2584 
Q 1688 2584 1439 2293 
Q 1191 2003 1191 1497 
Q 1191 994 1439 701 
Q 1688 409 2113 409 
Q 2538 409 2786 701 
Q 3034 994 3034 1497 
Q 3034 2003 2786 2293 
Q 2538 2584 2113 2584 
z
M 3366 4563 
L 3366 3988 
Q 3128 4100 2886 4159 
Q 2644 4219 2406 4219 
Q 1781 4219 1451 3797 
Q 1122 3375 1075 2522 
Q 1259 2794 1537 2939 
Q 1816 3084 2150 3084 
Q 2853 3084 3261 2657 
Q 3669 2231 3669 1497 
Q 3669 778 3244 343 
Q 2819 -91 2113 -91 
Q 1303 -91 875 529 
Q 447 1150 447 2328 
Q 447 3434 972 4092 
Q 1497 4750 2381 4750 
Q 2619 4750 2861 4703 
Q 3103 4656 3366 4563 
z
" transform="scale(0.015625)"/>
     </defs>
     <use xlink:href="#DejaVuSans-36"/>
    </g>
   </g>
   <g id="text_12">
    <!-- 2 -->
    <g transform="translate(884.255 349.501618) scale(0.08 -0.08)">
     <use xlink:href="#DejaVuSans-32"/>
    </g>
   </g>
   <g id="text_13">
    <g id="patch_8">
     <path d="M 1184.4 322.521415 
C 1186.478944 322.521415 1188.473019 321.695442 1189.943054 320.225407 
C 1191.413089 318.755372 1192.239063 316.761297 1192.239063 314.682353 
C 1192.239063 312.603409 1191.413089 310.609334 1189.943054 309.139299 
C 1188.473019 307.669264 1186.478944 306.84329 1184.4 306.84329 
C 1182.321056 306.84329 1180.326981 307.669264 1178.856946 309.139299 
C 1177.386911 310.609334 1176.560937 312.603409 1176.560937 314.682353 
C 1176.560937 316.761297 1177.386911 318.755372 1178.856946 320.225407 
C 1180.326981 321.695442 1182.321056 322.521415 1184.4 322.521415 
z
" style="fill: #add8e6; stroke: #000000; stroke-linejoin: miter"/>
    </g>
    <!-- 7 -->
    <g transform="translate(1181.21875 317.441728) scale(0.1 -0.1)">
     <use xlink:href="#DejaVuSans-37"/>
    </g>
   </g>
   <g id="text_14">
    <!-- 6 -->
    <g transform="translate(1181.855 349.501618) scale(0.08 -0.08)">
     <use xlink:href="#DejaVuSans-36"/>
    </g>
   </g>
  </g>
 </g>
 <defs>
  <clipPath id="p349c195706">
   <rect x="180" y="86.4" width="1116" height="554.4"/>
  </clipPath>
 </defs>
</svg>
