<?xml version="1.0" encoding="utf-8" standalone="no"?>
<!DOCTYPE svg PUBLIC "-//W3C//DTD SVG 1.1//EN"
  "http://www.w3.org/Graphics/SVG/1.1/DTD/svg11.dtd">
<svg xmlns:xlink="http://www.w3.org/1999/xlink" width="1440pt" height="720pt" viewBox="0 0 1440 720" xmlns="http://www.w3.org/2000/svg" version="1.1">
 <metadata>
  <rdf:RDF xmlns:dc="http://purl.org/dc/elements/1.1/" xmlns:cc="http://creativecommons.org/ns#" xmlns:rdf="http://www.w3.org/1999/02/22-rdf-syntax-ns#">
   <cc:Work>
    <dc:type rdf:resource="http://purl.org/dc/dcmitype/StillImage"/>
    <dc:date>2026-04-13T17:00:27.419692</dc:date>
    <dc:format>image/svg+xml</dc:format>
    <dc:creator>
     <cc:Agent>
      <dc:title>Matplotlib v3.10.8, https://matplotlib.org/</dc:title>
     </cc:Agent>
    </dc:creator>
   </cc:Work>
  </rdf:RDF>
 </metadata>
 <defs>
  <style type="text/css">*{stroke-linejoin: round; stroke-linecap: butt}</style>
 </defs>
 <g id="figure_1">
  <g id="patch_1">
   <path d="M 0 720 
L 1440 720 
L 1440 0 
L 0 0 
z
" style="fill: #ffffff"/>
  </g>
  <g id="axes_1">
   <g id="line2d_1">
    <path d="M 738 94.208451 
L 514.8 172.292958 
" clip-path="url(#pa75cb09fc6)" style="fill: none; stroke: #000000; stroke-width: 1.5; stroke-linecap: square"/>
   </g>
   <g id="line2d_2">
    <path d="M 514.8 172.292958 
L 403.2 250.377465 
" clip-path="url(#pa75cb09fc6)" style="fill: none; stroke: #000000; stroke-width: 1.5; stroke-linecap: square"/>
   </g>
   <g id="line2d_3">
    <path d="M 514.8 172.292958 
L 626.4 250.377465 
" clip-path="url(#pa75cb09fc6)" style="fill: none; stroke: #000000; stroke-width: 1.5; stroke-linecap: square"/>
   </g>
   <g id="line2d_4">
    <path d="M 738 94.208451 
L 961.2 172.292958 
" clip-path="url(#pa75cb09fc6)" style="fill: none; stroke: #000000; stroke-width: 1.5; stroke-linecap: square"/>
   </g>
   <g id="text_1">
    <g id="patch_2">
     <path d="M 738 102.047513 
C 740.078944 102.047513 742.073019 101.22154 743.543054 99.751505 
C 745.013089 98.28147 745.839063 96.287394 745.839063 94.208451 
C 745.839063 92.129507 745.013089 90.135432 743.543054 88.665396 
C 742.073019 87.195361 740.078944 86.369388 738 86.369388 
C 735.921056 86.369388 733.926981 87.195361 732.456946 88.665396 
C 730.986911 90.135432 730.160938 92.129507 730.160938 94.208451 
C 730.160938 96.287394 730.986911 98.28147 732.456946 99.751505 
C 733.926981 101.22154 735.921056 102.047513 738 102.047513 
z
" style="fill: #f08080; stroke: #000000; stroke-linejoin: miter"/>
    </g>
    <!-- 1 -->
    <g transform="translate(734.81875 96.967826) scale(0.1 -0.1)">
     <defs>
      <path id="DejaVuSans-31" d="M 794 531 
L 1825 531 
L 1825 4091 
L 703 3866 
L 703 4441 
L 1819 4666 
L 2450 4666 
L 2450 531 
L 3481 531 
L 3481 0 
L 794 0 
L 794 531 
z
" transform="scale(0.015625)"/>
     </defs>
     <use xlink:href="#DejaVuSans-31"/>
    </g>
   </g>
   <g id="text_2">
    <!-- 3 -->
    <g transform="translate(735.455 119.841303) scale(0.08 -0.08)">
     <defs>
      <path id="DejaVuSans-33" d="M 2597 2516 
Q 3050 2419 3304 2112 
Q 3559 1806 3559 1356 
Q 3559 666 3084 287 
Q 2609 -91 1734 -91 
Q 1441 -91 1130 -33 
Q 819 25 488 141 
L 488 750 
Q 750 597 1062 519 
Q 1375 441 1716 441 
Q 2309 441 2620 675 
Q 2931 909 2931 1356 
Q 2931 1769 2642 2001 
Q 2353 2234 1838 2234 
L 1294 2234 
L 1294 2753 
L 1863 2753 
Q 2328 2753 2575 2939 
Q 2822 3125 2822 3475 
Q 2822 3834 2567 4026 
Q 2313 4219 1838 4219 
Q 1578 4219 1281 4162 
Q 984 4106 628 3988 
L 628 4550 
Q 988 4650 1302 4700 
Q 1616 4750 1894 4750 
Q 2613 4750 3031 4423 
Q 3450 4097 3450 3541 
Q 3450 3153 3228 2886 
Q 3006 2619 2597 2516 
z
" transform="scale(0.015625)"/>
     </defs>
     <use xlink:href="#DejaVuSans-33"/>
    </g>
   </g>
   <g id="text_3">
    <g id="patch_3">
     <path d="M 514.8 180.13202 
C 516.878944 180.13202 518.873019 179.306047 520.343054 177.836012 
C 521.813089 176.365977 522.639063 174.371901 522.639063 172.292958 
C 522.639063 170.214014 521.813089 168.219939 520.343054 166.749903 
C 518.873019 165.279868 516.878944 164.453895 514.8 164.453895 
C 512.721056 164.453895 510.726981 165.279868 509.256946 166.749903 
C 507.786911 168.219939 506.960938 170.214014 506.960938 172.292958 
C 506.960938 174.371901 507.786911 176.365977 509.256946 177.836012 
C 510.726981 179.306047 512.721056 180.13202 514.8 180.13202 
z
" style="fill: #f08080; stroke: #000000; stroke-linejoin: miter"/>
    </g>
    <!-- 2 -->
    <g transform="translate(511.61875 175.052333) scale(0.1 -0.1)">
     <defs>
      <path id="DejaVuSans-32" d="M 1228 531 
L 3431 531 
L 3431 0 
L 469 0 
L 469 531 
Q 828 903 1448 1529 
Q 2069 2156 2228 2338 
Q 2531 2678 2651 2914 
Q 2772 3150 2772 3378 
Q 2772 3750 2511 3984 
Q 2250 4219 1831 4219 
Q 1534 4219 1204 4116 
Q 875 4013 500 3803 
L 500 4441 
Q 881 4594 1212 4672 
Q 1544 4750 1819 4750 
Q 2544 4750 2975 4387 
Q 3406 4025 3406 3419 
Q 3406 3131 3298 2873 
Q 3191 2616 2906 2266 
Q 2828 2175 2409 1742 
Q 1991 1309 1228 531 
z
" transform="scale(0.015625)"/>
     </defs>
     <use xlink:href="#DejaVuSans-32"/>
    </g>
   </g>
   <g id="text_4">
    <!-- 5 -->
    <g transform="translate(512.255 197.92581) scale(0.08 -0.08)">
     <defs>
      <path id="DejaVuSans-35" d="M 691 4666 
L 3169 4666 
L 3169 4134 
L 1269 4134 
L 1269 2991 
Q 1406 3038 1543 3061 
Q 1681 3084 1819 3084 
Q 2600 3084 3056 2656 
Q 3513 2228 3513 1497 
Q 3513 744 3044 326 
Q 2575 -91 1722 -91 
Q 1428 -91 1123 -41 
Q 819 9 494 109 
L 494 744 
Q 775 591 1075 516 
Q 1375 441 1709 441 
Q 2250 441 2565 725 
Q 2881 1009 2881 1497 
Q 2881 1984 2565 2268 
Q 2250 2553 1709 2553 
Q 1456 2553 1204 2497 
Q 953 2441 691 2322 
L 691 4666 
z
" transform="scale(0.015625)"/>
     </defs>
     <use xlink:href="#DejaVuSans-35"/>
    </g>
   </g>
   <g id="text_5">
    <g id="patch_4">
     <path d="M 403.2 258.216527 
C 405.278944 258.216527 407.273019 257.390554 408.743054 255.920519 
C 410.213089 254.450484 411.039062 252.456408 411.039062 250.377465 
C 411.039062 248.298521 410.213089 246.304446 408.743054 244.834411 
C 407.273019 243.364375 405.278944 242.538402 403.2 242.538402 
C 401.121056 242.538402 399.126981 243.364375 397.656946 244.834411 
C 396.186911 246.304446 395.360938 248.298521 395.360938 250.377465 
C 395.360938 252.456408 396.186911 254.450484 397.656946 255.920519 
C 399.126981 257.390554 401.121056 258.216527 403.2 258.216527 
z
" style="fill: #add8e6; stroke: #000000; stroke-linejoin: miter"/>
    </g>
    <!-- 4 -->
    <g transform="translate(400.01875 253.13684) scale(0.1 -0.1)">
     <defs>
      <path id="DejaVuSans-34" d="M 2419 4116 
L 825 1625 
L 2419 1625 
L 2419 4116 
z
M 2253 4666 
L 3047 4666 
L 3047 1625 
L 3713 1625 
L 3713 1100 
L 3047 1100 
L 3047 0 
L 2419 0 
L 2419 1100 
L 313 1100 
L 313 1709 
L 2253 4666 
z
" transform="scale(0.015625)"/>
     </defs>
     <use xlink:href="#DejaVuSans-34"/>
    </g>
   </g>
   <g id="text_6">
    <!-- 1 -->
    <g transform="translate(400.655 276.010317) scale(0.08 -0.08)">
     <use xlink:href="#DejaVuSans-31"/>
    </g>
   </g>
   <g id="text_7">
    <!-- 1 -->
    <g style="fill: #ff0000" transform="translate(398.11 317.26007) scale(0.16 -0.16)">
     <use xlink:href="#DejaVuSans-31"/>
    </g>
   </g>
   <g id="text_8">
    <g id="patch_5">
     <path d="M 626.4 258.216527 
C 628.478944 258.216527 630.473019 257.390554 631.943054 255.920519 
C 633.413089 254.450484 634.239063 252.456408 634.239063 250.377465 
C 634.239063 248.298521 633.413089 246.304446 631.943054 244.834411 
C 630.473019 243.364375 628.478944 242.538402 626.4 242.538402 
C 624.321056 242.538402 622.326981 243.364375 620.856946 244.834411 
C 619.386911 246.304446 618.560938 248.298521 618.560938 250.377465 
C 618.560938 252.456408 619.386911 254.450484 620.856946 255.920519 
C 622.326981 257.390554 624.321056 258.216527 626.4 258.216527 
z
" style="fill: #add8e6; stroke: #000000; stroke-linejoin: miter"/>
    </g>
    <!-- 5 -->
    <g transform="translate(623.21875 253.13684) scale(0.1 -0.1)">
     <use xlink:href="#DejaVuSans-35"/>
    </g>
   </g>
   <g id="text_9">
    <!-- 4 -->
    <g transform="translate(623.855 276.010317) scale(0.08 -0.08)">
     <use xlink:href="#DejaVuSans-34"/>
    </g>
   </g>
   <g id="text_10">
    <!-- 3 -->
    <g style="fill: #ff0000" transform="translate(621.31 317.26007) scale(0.16 -0.16)">
     <use xlink:href="#DejaVuSans-33"/>
    </g>
   </g>
   <g id="text_11">
    <g id="patch_6">
     <path d="M 961.2 180.13202 
C 963.278944 180.13202 965.273019 179.306047 966.743054 177.836012 
C 968.213089 176.365977 969.039063 174.371901 969.039063 172.292958 
C 969.039063 170.214014 968.213089 168.219939 966.743054 166.749903 
C 965.273019 165.279868 963.278944 164.453895 961.2 164.453895 
C 959.121056 164.453895 957.126981 165.279868 955.656946 166.749903 
C 954.186911 168.219939 953.360938 170.214014 953.360938 172.292958 
C 953.360938 174.371901 954.186911 176.365977 955.656946 177.836012 
C 957.126981 179.306047 959.121056 180.13202 961.2 180.13202 
z
" style="fill: #add8e6; stroke: #000000; stroke-linejoin: miter"/>
    </g>
    <!-- 3 -->
    <g transform="translate(958.01875 175.052333) scale(0.1 -0.1)">
     <use xlink:href="#DejaVuSans-33"/>
    </g>
   </g>
   <g id="text_12">
    <!-- 2 -->
    <g transform="translate(958.655 197.92581) scale(0.08 -0.08)">
     <use xlink:href="#DejaVuSans-32"/>
    </g>
   </g>
   <g id="text_13">
    <!-- 2 -->
    <g style="fill: #ff0000" transform="translate(956.11 239.175563) scale(0.16 -0.16)">
     <use xlink:href="#DejaVuSans-32"/>
    </g>
   </g>
  </g>
 </g>
 <defs>
  <clipPath id="pa75cb09fc6">
   <rect x="180" y="86.4" width="1116" height="554.4"/>
  </clipPath>
 </defs>
</svg>
