<?xml version="1.0" encoding="utf-8" standalone="no"?>
<!DOCTYPE svg PUBLIC "-//W3C//DTD SVG 1.1//EN"
  "http://www.w3.org/Graphics/SVG/1.1/DTD/svg11.dtd">
<svg xmlns:xlink="http://www.w3.org/1999/xlink" width="1440pt" height="720pt" viewBox="0 0 1440 720" xmlns="http://www.w3.org/2000/svg" version="1.1">
 <metadata>
  <rdf:RDF xmlns:dc="http://purl.org/dc/elements/1.1/" xmlns:cc="http://creativecommons.org/ns#" xmlns:rdf="http://www.w3.org/1999/02/22-rdf-syntax-ns#">
   <cc:Work>
    <dc:type rdf:resource="http://purl.org/dc/dcmitype/StillImage"/>
    <dc:date>2026-07-10T01:51:21.695376</dc:date>
    <dc:format>image/svg+xml</dc:format>
    <dc:creator>
     <cc:Agent>
      <dc:title>Matplotlib v3.10.8, https://matplotlib.org/</dc:title>
     </cc:Agent>
    </dc:creator>
   </cc:Work>
  </rdf:RDF>
 </metadata>
 <defs>
  <style type="text/css">*{stroke-linejoin: round; stroke-linecap: butt}</style>
 </defs>
 <g id="figure_1">
  <g id="patch_1">
   <path d="M 0 720 
L 1440 720 
L 1440 0 
L 0 0 
z
" style="fill: #ffffff"/>
  </g>
  <g id="axes_1">
   <g id="line2d_1">
    <path d="M 738 104.283871 
L 514.8 283.122581 
" clip-path="url(#paf0a77620f)" style="fill: none; stroke: #000000; stroke-width: 1.5; stroke-linecap: square"/>
   </g>
   <g id="line2d_2">
    <path d="M 738 104.283871 
L 961.2 283.122581 
" clip-path="url(#paf0a77620f)" style="fill: none; stroke: #000000; stroke-width: 1.5; stroke-linecap: square"/>
   </g>
   <g id="text_1">
    <g id="patch_2">
     <path d="M 738 108.987308 
C 739.247366 108.987308 740.443811 108.491725 741.325833 107.609704 
C 742.207854 106.727682 742.703437 105.531237 742.703437 104.283871 
C 742.703437 103.036505 742.207854 101.84006 741.325833 100.958038 
C 740.443811 100.076017 739.247366 99.580433 738 99.580433 
C 736.752634 99.580433 735.556189 100.076017 734.674167 100.958038 
C 733.792146 101.84006 733.296562 103.036505 733.296562 104.283871 
C 733.296562 105.531237 733.792146 106.727682 734.674167 107.609704 
C 735.556189 108.491725 736.752634 108.987308 738 108.987308 
z
" style="fill: #add8e6; stroke: #000000; stroke-linejoin: miter"/>
    </g>
    <!-- 1 -->
    <g transform="translate(736.09125 105.939496) scale(0.06 -0.06)">
     <defs>
      <path id="DejaVuSans-31" d="M 794 531 
L 1825 531 
L 1825 4091 
L 703 3866 
L 703 4441 
L 1819 4666 
L 2450 4666 
L 2450 531 
L 3481 531 
L 3481 0 
L 794 0 
L 794 531 
z
" transform="scale(0.015625)"/>
     </defs>
     <use xlink:href="#DejaVuSans-31"/>
    </g>
   </g>
   <g id="text_2">
    <!-- 3 -->
    <g transform="translate(735.455 160.142984) scale(0.08 -0.08)">
     <defs>
      <path id="DejaVuSans-33" d="M 2597 2516 
Q 3050 2419 3304 2112 
Q 3559 1806 3559 1356 
Q 3559 666 3084 287 
Q 2609 -91 1734 -91 
Q 1441 -91 1130 -33 
Q 819 25 488 141 
L 488 750 
Q 750 597 1062 519 
Q 1375 441 1716 441 
Q 2309 441 2620 675 
Q 2931 909 2931 1356 
Q 2931 1769 2642 2001 
Q 2353 2234 1838 2234 
L 1294 2234 
L 1294 2753 
L 1863 2753 
Q 2328 2753 2575 2939 
Q 2822 3125 2822 3475 
Q 2822 3834 2567 4026 
Q 2313 4219 1838 4219 
Q 1578 4219 1281 4162 
Q 984 4106 628 3988 
L 628 4550 
Q 988 4650 1302 4700 
Q 1616 4750 1894 4750 
Q 2613 4750 3031 4423 
Q 3450 4097 3450 3541 
Q 3450 3153 3228 2886 
Q 3006 2619 2597 2516 
z
" transform="scale(0.015625)"/>
     </defs>
     <use xlink:href="#DejaVuSans-33"/>
    </g>
   </g>
   <g id="text_3">
    <g id="patch_3">
     <path d="M 514.8 287.826018 
C 516.047366 287.826018 517.243811 287.330434 518.125833 286.448413 
C 519.007854 285.566392 519.503437 284.369947 519.503437 283.122581 
C 519.503437 281.875214 519.007854 280.678769 518.125833 279.796748 
C 517.243811 278.914727 516.047366 278.419143 514.8 278.419143 
C 513.552634 278.419143 512.356189 278.914727 511.474167 279.796748 
C 510.592146 280.678769 510.096562 281.875214 510.096562 283.122581 
C 510.096562 284.369947 510.592146 285.566392 511.474167 286.448413 
C 512.356189 287.330434 513.552634 287.826018 514.8 287.826018 
z
" style="fill: #90ee90; stroke: #000000; stroke-linejoin: miter"/>
    </g>
    <!-- 2 -->
    <g transform="translate(512.89125 284.778206) scale(0.06 -0.06)">
     <defs>
      <path id="DejaVuSans-32" d="M 1228 531 
L 3431 531 
L 3431 0 
L 469 0 
L 469 531 
Q 828 903 1448 1529 
Q 2069 2156 2228 2338 
Q 2531 2678 2651 2914 
Q 2772 3150 2772 3378 
Q 2772 3750 2511 3984 
Q 2250 4219 1831 4219 
Q 1534 4219 1204 4116 
Q 875 4013 500 3803 
L 500 4441 
Q 881 4594 1212 4672 
Q 1544 4750 1819 4750 
Q 2544 4750 2975 4387 
Q 3406 4025 3406 3419 
Q 3406 3131 3298 2873 
Q 3191 2616 2906 2266 
Q 2828 2175 2409 1742 
Q 1991 1309 1228 531 
z
" transform="scale(0.015625)"/>
     </defs>
     <use xlink:href="#DejaVuSans-32"/>
    </g>
   </g>
   <g id="text_4">
    <!-- 1 -->
    <g transform="translate(512.255 338.981694) scale(0.08 -0.08)">
     <use xlink:href="#DejaVuSans-31"/>
    </g>
   </g>
   <g id="text_5">
    <!-- 1 -->
    <g style="fill: #ff0000" transform="translate(509.71 430.608548) scale(0.16 -0.16)">
     <use xlink:href="#DejaVuSans-31"/>
    </g>
   </g>
   <g id="text_6">
    <g id="patch_4">
     <path d="M 961.2 287.826018 
C 962.447366 287.826018 963.643811 287.330434 964.525833 286.448413 
C 965.407854 285.566392 965.903437 284.369947 965.903437 283.122581 
C 965.903437 281.875214 965.407854 280.678769 964.525833 279.796748 
C 963.643811 278.914727 962.447366 278.419143 961.2 278.419143 
C 959.952634 278.419143 958.756189 278.914727 957.874167 279.796748 
C 956.992146 280.678769 956.496562 281.875214 956.496562 283.122581 
C 956.496562 284.369947 956.992146 285.566392 957.874167 286.448413 
C 958.756189 287.330434 959.952634 287.826018 961.2 287.826018 
z
" style="fill: #90ee90; stroke: #000000; stroke-linejoin: miter"/>
    </g>
    <!-- 3 -->
    <g transform="translate(959.29125 284.778206) scale(0.06 -0.06)">
     <use xlink:href="#DejaVuSans-33"/>
    </g>
   </g>
   <g id="text_7">
    <!-- 2 -->
    <g transform="translate(958.655 338.981694) scale(0.08 -0.08)">
     <use xlink:href="#DejaVuSans-32"/>
    </g>
   </g>
   <g id="text_8">
    <!-- 2 -->
    <g style="fill: #ff0000" transform="translate(956.11 430.608548) scale(0.16 -0.16)">
     <use xlink:href="#DejaVuSans-32"/>
    </g>
   </g>
  </g>
 </g>
 <defs>
  <clipPath id="paf0a77620f">
   <rect x="180" y="86.4" width="1116" height="554.4"/>
  </clipPath>
 </defs>
</svg>
